<svg xmlns="http://www.w3.org/2000/svg" width="480" height="480" viewBox="0 0 480 480" role="img" aria-labelledby="title desc">
<title id="title">苏连多柠檬 · 风格化食材插画</title><desc id="desc">原创本地矢量插画。以目录食材名称选择形态，图片不代表原书照片、实测成分或精确品种鉴定。</desc>
<metadata>{&quot;id&quot;:&quot;ing-e17eaf45d99b&quot;,&quot;rawName&quot;:&quot;蘇連多檸檬&quot;,&quot;displayName&quot;:&quot;苏连多柠檬&quot;,&quot;status&quot;:&quot;illustrated&quot;,&quot;motif&quot;:&quot;citrus&quot;,&quot;style&quot;:&quot;original_native_svg_editorial_botanical_v1&quot;,&quot;source&quot;:&quot;Original procedural SVG drawing, created locally; no external images.&quot;,&quot;identityBasis&quot;:&quot;catalog displayName; nameNeedsReview gates identifiable food depictions&quot;,&quot;isPhotograph&quot;:false,&quot;isSensoryMeasurement&quot;:false,&quot;cultivarExactness&quot;:&quot;stylized representation; not verified botanical reference&quot;,&quot;preparationHints&quot;:[]}</metadata><defs>
<radialGradient id="red" cx="30%" cy="21%" r="83%"><stop stop-color="#f68667"/><stop offset=".39" stop-color="#d84937"/><stop offset=".83" stop-color="#ae2d2b"/><stop offset="1" stop-color="#7c272c"/></radialGradient>
<radialGradient id="berry" cx="30%" cy="23%" r="80%"><stop stop-color="#a4abc5"/><stop offset=".4" stop-color="#68738f"/><stop offset=".82" stop-color="#42475e"/><stop offset="1" stop-color="#282e45"/></radialGradient>
<radialGradient id="purple" cx="25%" cy="20%" r="87%"><stop stop-color="#b690ad"/><stop offset=".45" stop-color="#755273"/><stop offset="1" stop-color="#3e334c"/></radialGradient>
<linearGradient id="leaf" x1="0" y1="0" x2="1" y2=".65"><stop stop-color="#9aaa66"/><stop offset=".43" stop-color="#6f864e"/><stop offset="1" stop-color="#3f6449"/></linearGradient>
<radialGradient id="green" cx="28%" cy="25%" r="84%"><stop stop-color="#c6cb6d"/><stop offset=".42" stop-color="#94ad58"/><stop offset="1" stop-color="#527846"/></radialGradient>
<radialGradient id="gold" cx="26%" cy="20%" r="89%"><stop stop-color="#f9d991"/><stop offset=".52" stop-color="#dea94e"/><stop offset="1" stop-color="#a86632"/></radialGradient>
<radialGradient id="orange" cx="29%" cy="20%" r="87%"><stop stop-color="#ffd795"/><stop offset=".4" stop-color="#edab55"/><stop offset="1" stop-color="#ce7341"/></radialGradient>
<radialGradient id="brown" cx="26%" cy="23%" r="80%"><stop stop-color="#c6976c"/><stop offset=".45" stop-color="#946948"/><stop offset="1" stop-color="#624633"/></radialGradient>
<radialGradient id="cream" cx="26%" cy="18%" r="87%"><stop stop-color="#fffdf1"/><stop offset=".5" stop-color="#ece3c5"/><stop offset="1" stop-color="#c4b28d"/></radialGradient>
<linearGradient id="milk" x1="0" y1="0" x2="1" y2=".3"><stop stop-color="#e2dbca"/><stop offset=".3" stop-color="#fffdf2"/><stop offset=".74" stop-color="#f7f2e4"/><stop offset="1" stop-color="#d9d1bf"/></linearGradient>
<linearGradient id="glass" x1="0" y1="0" x2="1" y2="0"><stop stop-color="#bfd0c8" stop-opacity=".45"/><stop offset=".2" stop-color="#fffef6" stop-opacity=".8"/><stop offset=".5" stop-color="#e5eadb" stop-opacity=".1"/><stop offset=".83" stop-color="#cad5c6" stop-opacity=".35"/><stop offset="1" stop-color="#9dafa4" stop-opacity=".5"/></linearGradient>
<linearGradient id="fish" x1="0" y1="0" x2="0" y2="1"><stop stop-color="#536f75"/><stop offset=".4" stop-color="#9caea7"/><stop offset=".69" stop-color="#e6e1c8"/><stop offset="1" stop-color="#b0afa0"/></linearGradient>
<linearGradient id="salmon" x1="0" y1="0" x2="1" y2="1"><stop stop-color="#f6b091"/><stop offset=".5" stop-color="#dc826b"/><stop offset="1" stop-color="#b85d4f"/></linearGradient>
<linearGradient id="meat" x1="0" y1="0" x2="1" y2="1"><stop stop-color="#cc8b7e"/><stop offset=".4" stop-color="#a64f4c"/><stop offset="1" stop-color="#70393a"/></linearGradient>
<radialGradient id="roast" cx="26%" cy="20%" r="80%"><stop stop-color="#d49a60"/><stop offset=".4" stop-color="#a66c3e"/><stop offset="1" stop-color="#6c4331"/></radialGradient>
<radialGradient id="oil" cx="29%" cy="20%" r="84%"><stop stop-color="#ecd78b"/><stop offset=".57" stop-color="#b3a150"/><stop offset="1" stop-color="#74703b"/></radialGradient>
<filter id="ground" x="-60%" y="-200%" width="220%" height="500%"><feGaussianBlur stdDeviation="9"/></filter>
<filter id="soft" x="-20%" y="-20%" width="140%" height="150%"><feDropShadow dx="0" dy="5" stdDeviation="4" flood-color="#685438" flood-opacity=".13"/></filter>
<filter id="paper"><feTurbulence type="fractalNoise" baseFrequency=".69" numOctaves="2" stitchTiles="stitch"/><feColorMatrix type="saturate" values="0"/><feComponentTransfer><feFuncA type="linear" slope=".042"/></feComponentTransfer><feBlend in="SourceGraphic" mode="multiply"/></filter>
</defs>
<rect width="480" height="480" fill="#f5f1e8"/><ellipse cx="237" cy="267" rx="175" ry="163" fill="#faf6ed" opacity=".75"/><ellipse cx="239" cy="362" rx="119" ry="15" fill="#8c7b59" opacity="0.13" filter="url(#ground)"/>
<g><path d="M110 232 C126 171 205 154 258 179 L279 184 L284 206 C303 260 247 306 195 306 C147 308 112 294 106 257 L95 246Z" fill="url(#gold)" stroke="#e9c950" stroke-width="2"/><g transform="translate(181 152) rotate(60) scale(0.76)"><path d="M0 0 C-28-19-31-58 1-91 C29-61 29-26 0 0Z" fill="url(#leaf)"/><path d="M0-3 Q4-47 1-83" fill="none" stroke="#bdc589" stroke-width="1.2" opacity="0.6"/><path d="M2 -22 Q-8 -26 -15 -36 M2 -22 Q12 -28 17 -38" fill="none" stroke="#c7ce96" stroke-width="0.75" opacity="0.33"/><path d="M2 -37 Q-8 -41 -15 -51 M2 -37 Q12 -43 17 -53" fill="none" stroke="#c7ce96" stroke-width="0.75" opacity="0.33"/><path d="M2 -52 Q-8 -56 -15 -66 M2 -52 Q12 -58 17 -68" fill="none" stroke="#c7ce96" stroke-width="0.75" opacity="0.33"/><path d="M2 -65 Q-8 -69 -15 -79 M2 -65 Q12 -71 17 -81" fill="none" stroke="#c7ce96" stroke-width="0.75" opacity="0.33"/></g><ellipse cx="191.13" cy="225.51" rx="0.98" ry="0.46" fill="#996b36" opacity="0.17"/><ellipse cx="133.27" cy="260.69" rx="0.56" ry="0.56" fill="#996b36" opacity="0.17"/><ellipse cx="157.32" cy="250.03" rx="0.75" ry="0.52" fill="#996b36" opacity="0.17"/><ellipse cx="179.77" cy="165.4" rx="0.77" ry="0.58" fill="#996b36" opacity="0.17"/><ellipse cx="158.18" cy="253.27" rx="1.19" ry="0.32" fill="#996b36" opacity="0.17"/><ellipse cx="204.48" cy="252.09" rx="1.24" ry="0.65" fill="#996b36" opacity="0.17"/><ellipse cx="188.56" cy="292.24" rx="1.05" ry="0.76" fill="#996b36" opacity="0.17"/><ellipse cx="139.28" cy="221.16" rx="0.87" ry="0.36" fill="#996b36" opacity="0.17"/><ellipse cx="239.03" cy="271.97" rx="1.22" ry="0.46" fill="#996b36" opacity="0.17"/><ellipse cx="133.92" cy="236.99" rx="1.24" ry="0.72" fill="#996b36" opacity="0.17"/><ellipse cx="131.45" cy="224.04" rx="0.69" ry="0.72" fill="#996b36" opacity="0.17"/><ellipse cx="188.42" cy="204.5" rx="0.43" ry="0.87" fill="#996b36" opacity="0.17"/><ellipse cx="253.22" cy="225.9" rx="1.15" ry="0.36" fill="#996b36" opacity="0.17"/><ellipse cx="122.72" cy="260.46" rx="1.28" ry="0.88" fill="#996b36" opacity="0.17"/><ellipse cx="225.84" cy="178.34" rx="1.06" ry="0.88" fill="#996b36" opacity="0.17"/><ellipse cx="204.35" cy="199.93" rx="1.22" ry="0.58" fill="#996b36" opacity="0.17"/><ellipse cx="182.94" cy="189.85" rx="0.66" ry="0.39" fill="#996b36" opacity="0.17"/><ellipse cx="130.01" cy="179.64" rx="0.84" ry="0.53" fill="#996b36" opacity="0.17"/><ellipse cx="201.87" cy="205.51" rx="1.16" ry="0.68" fill="#996b36" opacity="0.17"/><ellipse cx="150.52" cy="196.59" rx="1.21" ry="0.61" fill="#996b36" opacity="0.17"/><ellipse cx="110.91" cy="235.55" rx="0.83" ry="0.73" fill="#996b36" opacity="0.17"/><ellipse cx="217.58" cy="206.25" rx="0.5" ry="0.35" fill="#996b36" opacity="0.17"/><ellipse cx="219.48" cy="229.46" rx="0.9" ry="0.52" fill="#996b36" opacity="0.17"/><ellipse cx="177.06" cy="237.53" rx="1.11" ry="0.53" fill="#996b36" opacity="0.17"/><ellipse cx="188.21" cy="198.68" rx="1.27" ry="0.75" fill="#996b36" opacity="0.17"/><ellipse cx="210.13" cy="245.38" rx="0.72" ry="0.5" fill="#996b36" opacity="0.17"/><ellipse cx="177" cy="211.62" rx="1.25" ry="0.54" fill="#996b36" opacity="0.17"/><ellipse cx="180.47" cy="272.73" rx="0.79" ry="0.65" fill="#996b36" opacity="0.17"/><ellipse cx="124.87" cy="219.08" rx="1.25" ry="0.55" fill="#996b36" opacity="0.17"/><ellipse cx="141.57" cy="171.16" rx="0.62" ry="0.45" fill="#996b36" opacity="0.17"/><ellipse cx="246.97" cy="201.17" rx="1.23" ry="0.58" fill="#996b36" opacity="0.17"/><ellipse cx="204.49" cy="295.55" rx="1.21" ry="0.68" fill="#996b36" opacity="0.17"/><ellipse cx="225.54" cy="266.07" rx="0.97" ry="0.74" fill="#996b36" opacity="0.17"/><ellipse cx="141.81" cy="247.83" rx="1.19" ry="0.87" fill="#996b36" opacity="0.17"/><ellipse cx="240.35" cy="196.63" rx="1.08" ry="0.41" fill="#996b36" opacity="0.17"/><ellipse cx="142.5" cy="209.75" rx="1.12" ry="0.66" fill="#996b36" opacity="0.17"/><ellipse cx="152.45" cy="219.01" rx="0.69" ry="0.51" fill="#996b36" opacity="0.17"/><ellipse cx="200.27" cy="160.47" rx="1.24" ry="0.37" fill="#996b36" opacity="0.17"/><ellipse cx="179.19" cy="179.68" rx="0.42" ry="0.45" fill="#996b36" opacity="0.17"/><ellipse cx="175.42" cy="162.77" rx="1.13" ry="0.72" fill="#996b36" opacity="0.17"/><ellipse cx="252.45" cy="262.1" rx="1.11" ry="0.31" fill="#996b36" opacity="0.17"/><ellipse cx="147.61" cy="193.31" rx="1.1" ry="0.67" fill="#996b36" opacity="0.17"/><ellipse cx="233.16" cy="227.3" rx="0.75" ry="0.58" fill="#996b36" opacity="0.17"/><ellipse cx="212.35" cy="275.71" rx="0.83" ry="0.34" fill="#996b36" opacity="0.17"/><ellipse cx="180.18" cy="278.43" rx="0.9" ry="0.51" fill="#996b36" opacity="0.17"/><ellipse cx="188.13" cy="186.41" rx="0.7" ry="0.77" fill="#996b36" opacity="0.17"/><ellipse cx="182.67" cy="212.67" rx="0.72" ry="0.31" fill="#996b36" opacity="0.17"/><ellipse cx="116.24" cy="238.27" rx="0.44" ry="0.53" fill="#996b36" opacity="0.17"/><ellipse cx="155.17" cy="255.83" rx="0.76" ry="0.78" fill="#996b36" opacity="0.17"/><ellipse cx="197.65" cy="210.25" rx="0.83" ry="0.81" fill="#996b36" opacity="0.17"/><ellipse cx="166.86" cy="282.4" rx="0.68" ry="0.77" fill="#996b36" opacity="0.17"/><ellipse cx="166.39" cy="214.39" rx="1.09" ry="0.57" fill="#996b36" opacity="0.17"/><ellipse cx="131.4" cy="204.91" rx="1.29" ry="0.37" fill="#996b36" opacity="0.17"/><ellipse cx="167.67" cy="262.14" rx="0.55" ry="0.35" fill="#996b36" opacity="0.17"/><ellipse cx="149.15" cy="259.74" rx="0.94" ry="0.56" fill="#996b36" opacity="0.17"/><ellipse cx="224.94" cy="275.94" rx="1.3" ry="0.39" fill="#996b36" opacity="0.17"/><ellipse cx="160.3" cy="169.19" rx="0.45" ry="0.49" fill="#996b36" opacity="0.17"/><ellipse cx="150.59" cy="179.17" rx="0.87" ry="0.36" fill="#996b36" opacity="0.17"/><ellipse cx="213.51" cy="195.23" rx="1.23" ry="0.84" fill="#996b36" opacity="0.17"/><ellipse cx="168.92" cy="242.43" rx="0.98" ry="0.61" fill="#996b36" opacity="0.17"/><ellipse cx="208.32" cy="259.58" rx="0.87" ry="0.59" fill="#996b36" opacity="0.17"/><ellipse cx="184.88" cy="240.1" rx="1.09" ry="0.47" fill="#996b36" opacity="0.17"/><ellipse cx="192.13" cy="212.86" rx="0.81" ry="0.64" fill="#996b36" opacity="0.17"/><ellipse cx="250.61" cy="265.66" rx="0.97" ry="0.32" fill="#996b36" opacity="0.17"/><ellipse cx="109.26" cy="243.82" rx="0.47" ry="0.71" fill="#996b36" opacity="0.17"/><ellipse cx="147.74" cy="250.8" rx="1.07" ry="0.33" fill="#996b36" opacity="0.17"/><ellipse cx="232.93" cy="262.52" rx="0.8" ry="0.55" fill="#996b36" opacity="0.17"/><ellipse cx="139.38" cy="209.87" rx="0.85" ry="0.85" fill="#996b36" opacity="0.17"/><ellipse cx="202.48" cy="197.89" rx="0.58" ry="0.84" fill="#996b36" opacity="0.17"/><ellipse cx="196.59" cy="244.64" rx="0.76" ry="0.45" fill="#996b36" opacity="0.17"/><ellipse cx="185.09" cy="216.02" rx="1.23" ry="0.32" fill="#996b36" opacity="0.17"/><ellipse cx="139.13" cy="225.51" rx="0.94" ry="0.43" fill="#996b36" opacity="0.17"/><ellipse cx="156.51" cy="204.94" rx="1.03" ry="0.52" fill="#996b36" opacity="0.17"/><ellipse cx="155.23" cy="269.3" rx="1.26" ry="0.46" fill="#996b36" opacity="0.17"/><ellipse cx="205.92" cy="290.87" rx="0.95" ry="0.67" fill="#996b36" opacity="0.17"/><ellipse cx="152.33" cy="295.05" rx="0.89" ry="0.53" fill="#996b36" opacity="0.17"/><ellipse cx="171.72" cy="188.76" rx="0.53" ry="0.36" fill="#996b36" opacity="0.17"/><ellipse cx="125.33" cy="192.59" rx="0.52" ry="0.32" fill="#996b36" opacity="0.17"/><ellipse cx="187.62" cy="292.83" rx="0.74" ry="0.88" fill="#996b36" opacity="0.17"/><ellipse cx="166.95" cy="289.79" rx="0.84" ry="0.54" fill="#996b36" opacity="0.17"/><ellipse cx="208.36" cy="259.97" rx="0.98" ry="0.52" fill="#996b36" opacity="0.17"/><ellipse cx="132.34" cy="192.13" rx="0.9" ry="0.66" fill="#996b36" opacity="0.17"/><ellipse cx="245.2" cy="231.25" rx="0.63" ry="0.55" fill="#996b36" opacity="0.17"/><ellipse cx="132.59" cy="272.31" rx="0.61" ry="0.81" fill="#996b36" opacity="0.17"/><ellipse cx="244.97" cy="237.42" rx="0.55" ry="0.48" fill="#996b36" opacity="0.17"/><ellipse cx="170.17" cy="290.11" rx="1.15" ry="0.51" fill="#996b36" opacity="0.17"/><ellipse cx="160.95" cy="179.6" rx="0.68" ry="0.46" fill="#996b36" opacity="0.17"/><ellipse cx="231.11" cy="174.17" rx="0.68" ry="0.6" fill="#996b36" opacity="0.17"/><ellipse cx="126.18" cy="227.13" rx="0.81" ry="0.47" fill="#996b36" opacity="0.17"/><ellipse cx="158.12" cy="265.57" rx="0.98" ry="0.72" fill="#996b36" opacity="0.17"/><ellipse cx="228.32" cy="271.72" rx="0.86" ry="0.32" fill="#996b36" opacity="0.17"/><ellipse cx="112.29" cy="207.85" rx="1.23" ry="0.57" fill="#996b36" opacity="0.17"/><ellipse cx="236.43" cy="262.83" rx="0.54" ry="0.52" fill="#996b36" opacity="0.17"/><ellipse cx="218.13" cy="243.83" rx="0.96" ry="0.87" fill="#996b36" opacity="0.17"/><ellipse cx="147.09" cy="187.95" rx="0.9" ry="0.74" fill="#996b36" opacity="0.17"/><ellipse cx="251.41" cy="264.47" rx="0.99" ry="0.34" fill="#996b36" opacity="0.17"/><ellipse cx="179.11" cy="275.6" rx="0.99" ry="0.55" fill="#996b36" opacity="0.17"/><ellipse cx="129.57" cy="212.8" rx="0.55" ry="0.34" fill="#996b36" opacity="0.17"/><ellipse cx="202.08" cy="273.73" rx="0.7" ry="0.81" fill="#996b36" opacity="0.17"/><ellipse cx="149.98" cy="214.81" rx="0.62" ry="0.59" fill="#996b36" opacity="0.17"/><ellipse cx="182.45" cy="229.67" rx="1.06" ry="0.87" fill="#996b36" opacity="0.17"/><ellipse cx="230.28" cy="253.69" rx="1.25" ry="0.39" fill="#996b36" opacity="0.17"/><ellipse cx="196.58" cy="179.26" rx="0.99" ry="0.46" fill="#996b36" opacity="0.17"/><ellipse cx="145.43" cy="224.7" rx="0.85" ry="0.31" fill="#996b36" opacity="0.17"/><ellipse cx="132.31" cy="262.16" rx="0.47" ry="0.77" fill="#996b36" opacity="0.17"/><ellipse cx="219.65" cy="216.21" rx="1.08" ry="0.71" fill="#996b36" opacity="0.17"/><ellipse cx="190.9" cy="188.4" rx="1.16" ry="0.28" fill="#996b36" opacity="0.17"/><ellipse cx="166.13" cy="208.24" rx="1" ry="0.79" fill="#996b36" opacity="0.17"/><ellipse cx="136.23" cy="210.55" rx="0.98" ry="0.5" fill="#996b36" opacity="0.17"/><ellipse cx="204.41" cy="226.64" rx="1.27" ry="0.44" fill="#996b36" opacity="0.17"/><ellipse cx="252.47" cy="229.94" rx="0.78" ry="0.36" fill="#996b36" opacity="0.17"/><ellipse cx="237.37" cy="187.46" rx="0.95" ry="0.74" fill="#996b36" opacity="0.17"/><ellipse cx="166.71" cy="274.09" rx="0.9" ry="0.61" fill="#996b36" opacity="0.17"/><ellipse cx="239.46" cy="209.25" rx="1.05" ry="0.35" fill="#996b36" opacity="0.17"/><ellipse cx="164.19" cy="208.67" rx="0.96" ry="0.7" fill="#996b36" opacity="0.17"/><ellipse cx="208.52" cy="216.77" rx="0.7" ry="0.43" fill="#996b36" opacity="0.17"/><ellipse cx="148.83" cy="235.64" rx="1.15" ry="0.54" fill="#996b36" opacity="0.17"/><ellipse cx="190.18" cy="234.08" rx="0.75" ry="0.49" fill="#996b36" opacity="0.17"/><ellipse cx="232.38" cy="265.27" rx="0.96" ry="0.59" fill="#996b36" opacity="0.17"/><ellipse cx="170.64" cy="178.77" rx="1.17" ry="0.42" fill="#996b36" opacity="0.17"/><ellipse cx="212.58" cy="246.01" rx="1.14" ry="0.28" fill="#996b36" opacity="0.17"/><ellipse cx="198.42" cy="255.69" rx="0.65" ry="0.3" fill="#996b36" opacity="0.17"/><ellipse cx="147.12" cy="260.97" rx="1.05" ry="0.75" fill="#996b36" opacity="0.17"/><ellipse cx="204.9" cy="216.03" rx="0.72" ry="0.66" fill="#996b36" opacity="0.17"/><ellipse cx="185.8" cy="228.7" rx="0.92" ry="0.79" fill="#996b36" opacity="0.17"/><ellipse cx="183.78" cy="201.55" rx="1.12" ry="0.76" fill="#996b36" opacity="0.17"/><ellipse cx="198.24" cy="163.38" rx="0.93" ry="0.38" fill="#996b36" opacity="0.17"/><ellipse cx="194.78" cy="200.72" rx="0.86" ry="0.39" fill="#996b36" opacity="0.17"/><ellipse cx="197.75" cy="260.56" rx="0.8" ry="0.39" fill="#996b36" opacity="0.17"/><ellipse cx="125.72" cy="200.88" rx="1.21" ry="0.83" fill="#996b36" opacity="0.17"/><ellipse cx="226.94" cy="197.63" rx="0.87" ry="0.32" fill="#996b36" opacity="0.17"/><ellipse cx="224.87" cy="190.43" rx="0.62" ry="0.54" fill="#996b36" opacity="0.17"/><ellipse cx="221.73" cy="248.47" rx="0.54" ry="0.47" fill="#996b36" opacity="0.17"/><ellipse cx="237.89" cy="257.23" rx="0.95" ry="0.79" fill="#996b36" opacity="0.17"/><ellipse cx="124.53" cy="224.08" rx="1.05" ry="0.35" fill="#996b36" opacity="0.17"/><ellipse cx="209.99" cy="254.44" rx="0.71" ry="0.41" fill="#996b36" opacity="0.17"/><ellipse cx="194.61" cy="236.23" rx="0.59" ry="0.52" fill="#996b36" opacity="0.17"/><ellipse cx="119.73" cy="234.44" rx="1.22" ry="0.37" fill="#996b36" opacity="0.17"/><ellipse cx="152.94" cy="178.64" rx="0.46" ry="0.61" fill="#996b36" opacity="0.17"/><ellipse cx="188.15" cy="280.84" rx="0.61" ry="0.56" fill="#996b36" opacity="0.17"/><ellipse cx="176.59" cy="214.58" rx="0.56" ry="0.28" fill="#996b36" opacity="0.17"/><ellipse cx="258.35" cy="211.66" rx="0.85" ry="0.66" fill="#996b36" opacity="0.17"/><ellipse cx="178.93" cy="265.74" rx="1.12" ry="0.4" fill="#996b36" opacity="0.17"/><ellipse cx="205.84" cy="175.99" rx="1.05" ry="0.68" fill="#996b36" opacity="0.17"/><ellipse cx="185.43" cy="160.76" rx="0.46" ry="0.51" fill="#996b36" opacity="0.17"/><ellipse cx="211.91" cy="295.74" rx="0.49" ry="0.3" fill="#996b36" opacity="0.17"/><ellipse cx="213.52" cy="170.58" rx="0.77" ry="0.38" fill="#996b36" opacity="0.17"/><ellipse cx="244.46" cy="270.35" rx="1.23" ry="0.79" fill="#996b36" opacity="0.17"/><ellipse cx="256.22" cy="235.4" rx="0.49" ry="0.62" fill="#996b36" opacity="0.17"/><ellipse cx="218.71" cy="174.53" rx="0.42" ry="0.49" fill="#996b36" opacity="0.17"/><ellipse cx="145.99" cy="206.74" rx="0.53" ry="0.4" fill="#996b36" opacity="0.17"/><ellipse cx="147.6" cy="238.13" rx="0.68" ry="0.4" fill="#996b36" opacity="0.17"/><ellipse cx="141.73" cy="254.47" rx="0.97" ry="0.83" fill="#996b36" opacity="0.17"/><ellipse cx="218.21" cy="257.48" rx="0.85" ry="0.45" fill="#996b36" opacity="0.17"/><ellipse cx="160.46" cy="179.69" rx="1.26" ry="0.71" fill="#996b36" opacity="0.17"/><ellipse cx="211.51" cy="288.09" rx="0.69" ry="0.29" fill="#996b36" opacity="0.17"/><ellipse cx="158.26" cy="283.96" rx="1.25" ry="0.32" fill="#996b36" opacity="0.17"/><ellipse cx="180.85" cy="276.49" rx="1.23" ry="0.56" fill="#996b36" opacity="0.17"/><ellipse cx="222.45" cy="268.02" rx="1" ry="0.27" fill="#996b36" opacity="0.17"/><ellipse cx="175.74" cy="273.94" rx="0.81" ry="0.33" fill="#996b36" opacity="0.17"/><ellipse cx="184.85" cy="246.46" rx="0.92" ry="0.51" fill="#996b36" opacity="0.17"/><ellipse cx="165.17" cy="210.29" rx="0.97" ry="0.59" fill="#996b36" opacity="0.17"/><ellipse cx="220.68" cy="191.57" rx="0.61" ry="0.35" fill="#996b36" opacity="0.17"/><ellipse cx="154.49" cy="168.98" rx="0.77" ry="0.46" fill="#996b36" opacity="0.17"/><ellipse cx="161.26" cy="181.82" rx="1.3" ry="0.63" fill="#996b36" opacity="0.17"/><ellipse cx="162.83" cy="281.06" rx="0.72" ry="0.62" fill="#996b36" opacity="0.17"/><ellipse cx="249.62" cy="253.68" rx="0.8" ry="0.53" fill="#996b36" opacity="0.17"/><ellipse cx="168.94" cy="244.18" rx="0.45" ry="0.48" fill="#996b36" opacity="0.17"/><ellipse cx="208.6" cy="188.2" rx="1.06" ry="0.81" fill="#996b36" opacity="0.17"/><ellipse cx="140.48" cy="273.23" rx="0.73" ry="0.78" fill="#996b36" opacity="0.17"/><circle cx="292" cy="295" r="83" fill="#e9c950"/><circle cx="292" cy="295" r="77" fill="#faf2d6"/><path d="M298.98285700177297 295.4895999313627 L360.8310190174763 299.82605646628974 A69 69 0 0 1 350.5221489428994 331.5534961816938 L297.93702960290284 298.70832569959214Z" fill="#f4dfa0"/><line x1="335.4" y1="299.38" x2="355.68" y2="301.42" stroke="#fff8d9" stroke-width="0.85" opacity="0.32"/><line x1="322.66" y1="300" x2="355.17" y2="305.29" stroke="#fff8d9" stroke-width="0.85" opacity="0.32"/><line x1="336.43" y1="305.06" x2="354.42" y2="309.13" stroke="#fff8d9" stroke-width="0.85" opacity="0.32"/><line x1="324.05" y1="304.34" x2="353.44" y2="312.91" stroke="#fff8d9" stroke-width="0.85" opacity="0.32"/><line x1="328.14" y1="307.97" x2="352.24" y2="316.63" stroke="#fff8d9" stroke-width="0.85" opacity="0.32"/><line x1="322.41" y1="308.06" x2="350.8" y2="320.26" stroke="#fff8d9" stroke-width="0.85" opacity="0.32"/><line x1="317.84" y1="308.02" x2="349.15" y2="323.8" stroke="#fff8d9" stroke-width="0.85" opacity="0.32"/><line x1="328.78" y1="316.44" x2="347.29" y2="327.23" stroke="#fff8d9" stroke-width="0.85" opacity="0.32"/><path d="M297.361470364546 299.50051502942665 L344.84877930766766 339.36221957577686 A69 69 0 0 1 317.85980706681863 358.9708556959098 L294.6234586879381 301.4897969546575Z" fill="#f4dfa0"/><line x1="317.01" y1="317.33" x2="339.74" y2="337.62" stroke="#fff8d9" stroke-width="0.85" opacity="0.32"/><line x1="313.94" y1="317.13" x2="337.05" y2="340.46" stroke="#fff8d9" stroke-width="0.85" opacity="0.32"/><line x1="316.71" y1="323.18" x2="334.19" y2="343.12" stroke="#fff8d9" stroke-width="0.85" opacity="0.32"/><line x1="315.51" y1="325.37" x2="331.18" y2="345.61" stroke="#fff8d9" stroke-width="0.85" opacity="0.32"/><line x1="314.22" y1="327.63" x2="328.02" y2="347.9" stroke="#fff8d9" stroke-width="0.85" opacity="0.32"/><line x1="309.9" y1="325.09" x2="324.73" y2="350" stroke="#fff8d9" stroke-width="0.85" opacity="0.32"/><line x1="310.57" y1="331.04" x2="321.31" y2="351.89" stroke="#fff8d9" stroke-width="0.85" opacity="0.32"/><line x1="304.2" y1="322.71" x2="317.79" y2="353.58" stroke="#fff8d9" stroke-width="0.85" opacity="0.32"/><path d="M293.69218427773774 301.7923863531293 L308.68010216627215 361.9535226237031 A69 69 0 0 1 275.31989783372785 361.9535226237031 L290.30781572226226 301.7923863531293Z" fill="#f4dfa0"/><line x1="300.4" y1="333.73" x2="305.57" y2="357.55" stroke="#fff8d9" stroke-width="0.85" opacity="0.32"/><line x1="298.53" y1="337.45" x2="301.73" y2="358.26" stroke="#fff8d9" stroke-width="0.85" opacity="0.32"/><line x1="295.54" y1="333.61" x2="297.85" y2="358.73" stroke="#fff8d9" stroke-width="0.85" opacity="0.32"/><line x1="293.38" y1="340.31" x2="293.95" y2="358.97" stroke="#fff8d9" stroke-width="0.85" opacity="0.32"/><line x1="290.94" y1="329.59" x2="290.05" y2="358.97" stroke="#fff8d9" stroke-width="0.85" opacity="0.32"/><line x1="289.25" y1="324.9" x2="286.15" y2="358.73" stroke="#fff8d9" stroke-width="0.85" opacity="0.32"/><line x1="287.54" y1="323.98" x2="282.27" y2="358.26" stroke="#fff8d9" stroke-width="0.85" opacity="0.32"/><line x1="283.38" y1="334.72" x2="278.43" y2="357.55" stroke="#fff8d9" stroke-width="0.85" opacity="0.32"/><path d="M289.3765413120619 301.4897969546575 L266.14019293318137 358.97085569590985 A69 69 0 0 1 239.15122069233234 339.36221957577686 L286.638529635454 299.50051502942665Z" fill="#f4dfa0"/><line x1="276.13" y1="331.05" x2="266.21" y2="353.58" stroke="#fff8d9" stroke-width="0.85" opacity="0.32"/><line x1="276.11" y1="325.84" x2="262.69" y2="351.89" stroke="#fff8d9" stroke-width="0.85" opacity="0.32"/><line x1="270.24" y1="331.57" x2="259.27" y2="350" stroke="#fff8d9" stroke-width="0.85" opacity="0.32"/><line x1="267.19" y1="331.44" x2="255.98" y2="347.9" stroke="#fff8d9" stroke-width="0.85" opacity="0.32"/><line x1="269.68" y1="323.83" x2="252.82" y2="345.61" stroke="#fff8d9" stroke-width="0.85" opacity="0.32"/><line x1="263.08" y1="327.98" x2="249.81" y2="343.12" stroke="#fff8d9" stroke-width="0.85" opacity="0.32"/><line x1="268.38" y1="318.83" x2="246.95" y2="340.46" stroke="#fff8d9" stroke-width="0.85" opacity="0.32"/><line x1="266.74" y1="317.55" x2="244.26" y2="337.62" stroke="#fff8d9" stroke-width="0.85" opacity="0.32"/><path d="M286.06297039709716 298.70832569959214 L233.47785105710065 331.55349618169384 A69 69 0 0 1 223.1689809825237 299.82605646628974 L285.01714299822703 295.4895999313627Z" fill="#f4dfa0"/><line x1="265.95" y1="310.19" x2="236.71" y2="327.23" stroke="#fff8d9" stroke-width="0.85" opacity="0.32"/><line x1="253.82" y1="314.24" x2="234.85" y2="323.8" stroke="#fff8d9" stroke-width="0.85" opacity="0.32"/><line x1="265.98" y1="306.18" x2="233.2" y2="320.26" stroke="#fff8d9" stroke-width="0.85" opacity="0.32"/><line x1="262.55" y1="305.57" x2="231.76" y2="316.63" stroke="#fff8d9" stroke-width="0.85" opacity="0.32"/><line x1="259.98" y1="304.33" x2="230.56" y2="312.91" stroke="#fff8d9" stroke-width="0.85" opacity="0.32"/><line x1="249.74" y1="304.57" x2="229.58" y2="309.13" stroke="#fff8d9" stroke-width="0.85" opacity="0.32"/><line x1="261.97" y1="299.89" x2="228.83" y2="305.29" stroke="#fff8d9" stroke-width="0.85" opacity="0.32"/><line x1="254.09" y1="298.82" x2="228.32" y2="301.42" stroke="#fff8d9" stroke-width="0.85" opacity="0.32"/><path d="M285.01714299822703 294.5104000686373 L223.1689809825237 290.17394353371026 A69 69 0 0 1 233.47785105710062 258.4465038183062 L286.06297039709716 291.29167430040786Z" fill="#f4dfa0"/><line x1="246.89" y1="290.45" x2="228.32" y2="288.58" stroke="#fff8d9" stroke-width="0.85" opacity="0.32"/><line x1="248.73" y1="287.95" x2="228.83" y2="284.71" stroke="#fff8d9" stroke-width="0.85" opacity="0.32"/><line x1="256.19" y1="286.89" x2="229.58" y2="280.87" stroke="#fff8d9" stroke-width="0.85" opacity="0.32"/><line x1="252.38" y1="283.45" x2="230.56" y2="277.09" stroke="#fff8d9" stroke-width="0.85" opacity="0.32"/><line x1="253.71" y1="281.25" x2="231.76" y2="273.37" stroke="#fff8d9" stroke-width="0.85" opacity="0.32"/><line x1="260.47" y1="281.46" x2="233.2" y2="269.74" stroke="#fff8d9" stroke-width="0.85" opacity="0.32"/><line x1="264.3" y1="281.04" x2="234.85" y2="266.2" stroke="#fff8d9" stroke-width="0.85" opacity="0.32"/><line x1="257.21" y1="274.72" x2="236.71" y2="262.77" stroke="#fff8d9" stroke-width="0.85" opacity="0.32"/><path d="M286.638529635454 290.49948497057335 L239.15122069233232 250.63778042422317 A69 69 0 0 1 266.14019293318137 231.02914430409018 L289.3765413120619 288.5102030453425Z" fill="#f4dfa0"/><line x1="269.77" y1="275.15" x2="244.26" y2="252.38" stroke="#fff8d9" stroke-width="0.85" opacity="0.32"/><line x1="260.77" y1="263.49" x2="246.95" y2="249.54" stroke="#fff8d9" stroke-width="0.85" opacity="0.32"/><line x1="265.34" y1="264.6" x2="249.81" y2="246.88" stroke="#fff8d9" stroke-width="0.85" opacity="0.32"/><line x1="272.69" y1="270.06" x2="252.82" y2="244.39" stroke="#fff8d9" stroke-width="0.85" opacity="0.32"/><line x1="273.13" y1="267.29" x2="255.98" y2="242.1" stroke="#fff8d9" stroke-width="0.85" opacity="0.32"/><line x1="273.97" y1="264.71" x2="259.27" y2="240" stroke="#fff8d9" stroke-width="0.85" opacity="0.32"/><line x1="272.09" y1="256.34" x2="262.69" y2="238.11" stroke="#fff8d9" stroke-width="0.85" opacity="0.32"/><line x1="274.6" y1="255.48" x2="266.21" y2="236.42" stroke="#fff8d9" stroke-width="0.85" opacity="0.32"/><path d="M290.30781572226226 288.2076136468707 L275.31989783372785 228.04647737629688 A69 69 0 0 1 308.6801021662721 228.04647737629688 L293.69218427773774 288.2076136468707Z" fill="#f4dfa0"/><line x1="284.96" y1="262.54" x2="278.43" y2="232.45" stroke="#fff8d9" stroke-width="0.85" opacity="0.32"/><line x1="285.47" y1="252.56" x2="282.27" y2="231.74" stroke="#fff8d9" stroke-width="0.85" opacity="0.32"/><line x1="289.27" y1="265.29" x2="286.15" y2="231.27" stroke="#fff8d9" stroke-width="0.85" opacity="0.32"/><line x1="290.67" y1="251.3" x2="290.05" y2="231.03" stroke="#fff8d9" stroke-width="0.85" opacity="0.32"/><line x1="293.26" y1="253.72" x2="293.95" y2="231.03" stroke="#fff8d9" stroke-width="0.85" opacity="0.32"/><line x1="296.11" y1="250.29" x2="297.85" y2="231.27" stroke="#fff8d9" stroke-width="0.85" opacity="0.32"/><line x1="298.18" y1="254.85" x2="301.73" y2="231.74" stroke="#fff8d9" stroke-width="0.85" opacity="0.32"/><line x1="298.87" y1="263.33" x2="305.57" y2="232.45" stroke="#fff8d9" stroke-width="0.85" opacity="0.32"/><path d="M294.6234586879381 288.5102030453425 L317.85980706681863 231.02914430409018 A69 69 0 0 1 344.84877930766766 250.63778042422314 L297.361470364546 290.49948497057335Z" fill="#f4dfa0"/><line x1="303.88" y1="268.02" x2="317.79" y2="236.42" stroke="#fff8d9" stroke-width="0.85" opacity="0.32"/><line x1="310.71" y1="258.68" x2="321.31" y2="238.11" stroke="#fff8d9" stroke-width="0.85" opacity="0.32"/><line x1="309.05" y1="266.34" x2="324.73" y2="240" stroke="#fff8d9" stroke-width="0.85" opacity="0.32"/><line x1="310.42" y1="267.94" x2="328.02" y2="242.1" stroke="#fff8d9" stroke-width="0.85" opacity="0.32"/><line x1="318.8" y1="260.39" x2="331.18" y2="244.39" stroke="#fff8d9" stroke-width="0.85" opacity="0.32"/><line x1="311.75" y1="272.48" x2="334.19" y2="246.88" stroke="#fff8d9" stroke-width="0.85" opacity="0.32"/><line x1="316.57" y1="270.2" x2="337.05" y2="249.54" stroke="#fff8d9" stroke-width="0.85" opacity="0.32"/><line x1="315.71" y1="273.83" x2="339.74" y2="252.38" stroke="#fff8d9" stroke-width="0.85" opacity="0.32"/><path d="M297.93702960290284 291.29167430040786 L350.5221489428994 258.4465038183062 A69 69 0 0 1 360.8310190174763 290.1739435337102 L298.98285700177297 294.51040006863724Z" fill="#f4dfa0"/><line x1="325.53" y1="275.46" x2="347.29" y2="262.77" stroke="#fff8d9" stroke-width="0.85" opacity="0.32"/><line x1="323.59" y1="279.08" x2="349.15" y2="266.2" stroke="#fff8d9" stroke-width="0.85" opacity="0.32"/><line x1="319.03" y1="283.39" x2="350.8" y2="269.74" stroke="#fff8d9" stroke-width="0.85" opacity="0.32"/><line x1="324.46" y1="283.35" x2="352.24" y2="273.37" stroke="#fff8d9" stroke-width="0.85" opacity="0.32"/><line x1="320.08" y1="286.81" x2="353.44" y2="277.09" stroke="#fff8d9" stroke-width="0.85" opacity="0.32"/><line x1="324.53" y1="287.64" x2="354.42" y2="280.87" stroke="#fff8d9" stroke-width="0.85" opacity="0.32"/><line x1="329.05" y1="288.96" x2="355.17" y2="284.71" stroke="#fff8d9" stroke-width="0.85" opacity="0.32"/><line x1="334.34" y1="290.73" x2="355.68" y2="288.58" stroke="#fff8d9" stroke-width="0.85" opacity="0.32"/><circle cx="292" cy="295" r="6" fill="#faf2d6"/></g><rect width="480" height="480" fill="#968265" filter="url(#paper)" opacity=".023" pointer-events="none"/>
</svg>