<svg xmlns="http://www.w3.org/2000/svg" width="480" height="480" viewBox="0 0 480 480" role="img" aria-labelledby="title desc">
<title id="title">圆叶当归籽 · 风格化食材插画</title><desc id="desc">原创本地矢量插画。以目录食材名称选择形态，图片不代表原书照片、实测成分或精确品种鉴定。</desc>
<metadata>{&quot;id&quot;:&quot;ing-3ec43b31852d&quot;,&quot;rawName&quot;:&quot;圓葉當歸籽&quot;,&quot;displayName&quot;:&quot;圆叶当归籽&quot;,&quot;status&quot;:&quot;illustrated&quot;,&quot;motif&quot;:&quot;nuts&quot;,&quot;style&quot;:&quot;original_native_svg_editorial_botanical_v1&quot;,&quot;source&quot;:&quot;Original procedural SVG drawing, created locally; no external images.&quot;,&quot;identityBasis&quot;:&quot;catalog displayName; nameNeedsReview gates identifiable food depictions&quot;,&quot;isPhotograph&quot;:false,&quot;isSensoryMeasurement&quot;:false,&quot;cultivarExactness&quot;:&quot;stylized representation; not verified botanical reference&quot;,&quot;preparationHints&quot;:[]}</metadata><defs>
<radialGradient id="red" cx="30%" cy="21%" r="83%"><stop stop-color="#f68667"/><stop offset=".39" stop-color="#d84937"/><stop offset=".83" stop-color="#ae2d2b"/><stop offset="1" stop-color="#7c272c"/></radialGradient>
<radialGradient id="berry" cx="30%" cy="23%" r="80%"><stop stop-color="#a4abc5"/><stop offset=".4" stop-color="#68738f"/><stop offset=".82" stop-color="#42475e"/><stop offset="1" stop-color="#282e45"/></radialGradient>
<radialGradient id="purple" cx="25%" cy="20%" r="87%"><stop stop-color="#b690ad"/><stop offset=".45" stop-color="#755273"/><stop offset="1" stop-color="#3e334c"/></radialGradient>
<linearGradient id="leaf" x1="0" y1="0" x2="1" y2=".65"><stop stop-color="#9aaa66"/><stop offset=".43" stop-color="#6f864e"/><stop offset="1" stop-color="#3f6449"/></linearGradient>
<radialGradient id="green" cx="28%" cy="25%" r="84%"><stop stop-color="#c6cb6d"/><stop offset=".42" stop-color="#94ad58"/><stop offset="1" stop-color="#527846"/></radialGradient>
<radialGradient id="gold" cx="26%" cy="20%" r="89%"><stop stop-color="#f9d991"/><stop offset=".52" stop-color="#dea94e"/><stop offset="1" stop-color="#a86632"/></radialGradient>
<radialGradient id="orange" cx="29%" cy="20%" r="87%"><stop stop-color="#ffd795"/><stop offset=".4" stop-color="#edab55"/><stop offset="1" stop-color="#ce7341"/></radialGradient>
<radialGradient id="brown" cx="26%" cy="23%" r="80%"><stop stop-color="#c6976c"/><stop offset=".45" stop-color="#946948"/><stop offset="1" stop-color="#624633"/></radialGradient>
<radialGradient id="cream" cx="26%" cy="18%" r="87%"><stop stop-color="#fffdf1"/><stop offset=".5" stop-color="#ece3c5"/><stop offset="1" stop-color="#c4b28d"/></radialGradient>
<linearGradient id="milk" x1="0" y1="0" x2="1" y2=".3"><stop stop-color="#e2dbca"/><stop offset=".3" stop-color="#fffdf2"/><stop offset=".74" stop-color="#f7f2e4"/><stop offset="1" stop-color="#d9d1bf"/></linearGradient>
<linearGradient id="glass" x1="0" y1="0" x2="1" y2="0"><stop stop-color="#bfd0c8" stop-opacity=".45"/><stop offset=".2" stop-color="#fffef6" stop-opacity=".8"/><stop offset=".5" stop-color="#e5eadb" stop-opacity=".1"/><stop offset=".83" stop-color="#cad5c6" stop-opacity=".35"/><stop offset="1" stop-color="#9dafa4" stop-opacity=".5"/></linearGradient>
<linearGradient id="fish" x1="0" y1="0" x2="0" y2="1"><stop stop-color="#536f75"/><stop offset=".4" stop-color="#9caea7"/><stop offset=".69" stop-color="#e6e1c8"/><stop offset="1" stop-color="#b0afa0"/></linearGradient>
<linearGradient id="salmon" x1="0" y1="0" x2="1" y2="1"><stop stop-color="#f6b091"/><stop offset=".5" stop-color="#dc826b"/><stop offset="1" stop-color="#b85d4f"/></linearGradient>
<linearGradient id="meat" x1="0" y1="0" x2="1" y2="1"><stop stop-color="#cc8b7e"/><stop offset=".4" stop-color="#a64f4c"/><stop offset="1" stop-color="#70393a"/></linearGradient>
<radialGradient id="roast" cx="26%" cy="20%" r="80%"><stop stop-color="#d49a60"/><stop offset=".4" stop-color="#a66c3e"/><stop offset="1" stop-color="#6c4331"/></radialGradient>
<radialGradient id="oil" cx="29%" cy="20%" r="84%"><stop stop-color="#ecd78b"/><stop offset=".57" stop-color="#b3a150"/><stop offset="1" stop-color="#74703b"/></radialGradient>
<filter id="ground" x="-60%" y="-200%" width="220%" height="500%"><feGaussianBlur stdDeviation="9"/></filter>
<filter id="soft" x="-20%" y="-20%" width="140%" height="150%"><feDropShadow dx="0" dy="5" stdDeviation="4" flood-color="#685438" flood-opacity=".13"/></filter>
<filter id="paper"><feTurbulence type="fractalNoise" baseFrequency=".69" numOctaves="2" stitchTiles="stitch"/><feColorMatrix type="saturate" values="0"/><feComponentTransfer><feFuncA type="linear" slope=".042"/></feComponentTransfer><feBlend in="SourceGraphic" mode="multiply"/></filter>
</defs>
<rect width="480" height="480" fill="#f5f1e8"/><ellipse cx="237" cy="267" rx="175" ry="163" fill="#faf6ed" opacity=".75"/><ellipse cx="239" cy="362" rx="119" ry="15" fill="#8c7b59" opacity="0.13" filter="url(#ground)"/>
<g><g transform="translate(251.35676587286923 176.9428022659028) rotate(129.3664378714072) scale(1)"><path d="M0 -4.5 Q3.15 0 0 4.5 Q-3.15 0 0 -4.5Z" fill="#d5c69f" stroke="#8e8269" stroke-width="0.75"/><line x1="0" y1="-3.15" x2="0" y2="2.7" stroke="#f1e5c9" stroke-width="0.9" opacity="0.65"/></g><g transform="translate(175.32262730133124 326.4852013735105) rotate(136.269215649147) scale(1)"><path d="M0 -4.5 Q3.15 0 0 4.5 Q-3.15 0 0 -4.5Z" fill="#d5c69f" stroke="#8e8269" stroke-width="0.75"/><line x1="0" y1="-3.15" x2="0" y2="2.7" stroke="#f1e5c9" stroke-width="0.9" opacity="0.65"/></g><g transform="translate(236.96682284725452 320.17032665850786) rotate(-90.91299455782743) scale(1)"><path d="M0 -4.5 Q3.15 0 0 4.5 Q-3.15 0 0 -4.5Z" fill="#d5c69f" stroke="#8e8269" stroke-width="0.75"/><line x1="0" y1="-3.15" x2="0" y2="2.7" stroke="#f1e5c9" stroke-width="0.9" opacity="0.65"/></g><g transform="translate(260.3276265928441 237.95333908859374) rotate(-167.19184430002824) scale(1)"><path d="M0 -4.5 Q3.15 0 0 4.5 Q-3.15 0 0 -4.5Z" fill="#d5c69f" stroke="#8e8269" stroke-width="0.75"/><line x1="0" y1="-3.15" x2="0" y2="2.7" stroke="#f1e5c9" stroke-width="0.9" opacity="0.65"/></g><g transform="translate(160.90907833503869 293.79016801343727) rotate(1.4480244593624718) scale(1)"><path d="M0 -4.5 Q3.15 0 0 4.5 Q-3.15 0 0 -4.5Z" fill="#d5c69f" stroke="#8e8269" stroke-width="0.75"/><line x1="0" y1="-3.15" x2="0" y2="2.7" stroke="#f1e5c9" stroke-width="0.9" opacity="0.65"/></g><g transform="translate(331.8758376499738 238.30985403927883) rotate(179.33333211075518) scale(1)"><path d="M0 -4.5 Q3.15 0 0 4.5 Q-3.15 0 0 -4.5Z" fill="#d5c69f" stroke="#8e8269" stroke-width="0.75"/><line x1="0" y1="-3.15" x2="0" y2="2.7" stroke="#f1e5c9" stroke-width="0.9" opacity="0.65"/></g><g transform="translate(265.33599958167974 289.15260889198623) rotate(-14.113346430087716) scale(1)"><path d="M0 -4.5 Q3.15 0 0 4.5 Q-3.15 0 0 -4.5Z" fill="#d5c69f" stroke="#8e8269" stroke-width="0.75"/><line x1="0" y1="-3.15" x2="0" y2="2.7" stroke="#f1e5c9" stroke-width="0.9" opacity="0.65"/></g><g transform="translate(309.0316264818696 294.063460707078) rotate(-30.084132240916432) scale(1)"><path d="M0 -4.5 Q3.15 0 0 4.5 Q-3.15 0 0 -4.5Z" fill="#d5c69f" stroke="#8e8269" stroke-width="0.75"/><line x1="0" y1="-3.15" x2="0" y2="2.7" stroke="#f1e5c9" stroke-width="0.9" opacity="0.65"/></g><g transform="translate(330.1236622591764 279.2319214578768) rotate(-94.23716971823764) scale(1)"><path d="M0 -4.5 Q3.15 0 0 4.5 Q-3.15 0 0 -4.5Z" fill="#d5c69f" stroke="#8e8269" stroke-width="0.75"/><line x1="0" y1="-3.15" x2="0" y2="2.7" stroke="#f1e5c9" stroke-width="0.9" opacity="0.65"/></g><g transform="translate(157.2951869280799 210.4363106930692) rotate(68.18624799421585) scale(1)"><path d="M0 -4.5 Q3.15 0 0 4.5 Q-3.15 0 0 -4.5Z" fill="#d5c69f" stroke="#8e8269" stroke-width="0.75"/><line x1="0" y1="-3.15" x2="0" y2="2.7" stroke="#f1e5c9" stroke-width="0.9" opacity="0.65"/></g><g transform="translate(197.66544777414876 194.64191124701895) rotate(113.61122658173258) scale(1)"><path d="M0 -4.5 Q3.15 0 0 4.5 Q-3.15 0 0 -4.5Z" fill="#d5c69f" stroke="#8e8269" stroke-width="0.75"/><line x1="0" y1="-3.15" x2="0" y2="2.7" stroke="#f1e5c9" stroke-width="0.9" opacity="0.65"/></g><g transform="translate(258.4046100721861 231.26109861230773) rotate(40.09228439370389) scale(1)"><path d="M0 -4.5 Q3.15 0 0 4.5 Q-3.15 0 0 -4.5Z" fill="#d5c69f" stroke="#8e8269" stroke-width="0.75"/><line x1="0" y1="-3.15" x2="0" y2="2.7" stroke="#f1e5c9" stroke-width="0.9" opacity="0.65"/></g><g transform="translate(170.01120604128835 269.088865665777) rotate(-81.48786242307285) scale(1)"><path d="M0 -4.5 Q3.15 0 0 4.5 Q-3.15 0 0 -4.5Z" fill="#d5c69f" stroke="#8e8269" stroke-width="0.75"/><line x1="0" y1="-3.15" x2="0" y2="2.7" stroke="#f1e5c9" stroke-width="0.9" opacity="0.65"/></g><g transform="translate(249.01944210750221 169.35228192233376) rotate(70.78318032061733) scale(1)"><path d="M0 -4.5 Q3.15 0 0 4.5 Q-3.15 0 0 -4.5Z" fill="#d5c69f" stroke="#8e8269" stroke-width="0.75"/><line x1="0" y1="-3.15" x2="0" y2="2.7" stroke="#f1e5c9" stroke-width="0.9" opacity="0.65"/></g><g transform="translate(302.37666627558605 241.80634328155563) rotate(81.30546863596999) scale(1)"><path d="M0 -4.5 Q3.15 0 0 4.5 Q-3.15 0 0 -4.5Z" fill="#d5c69f" stroke="#8e8269" stroke-width="0.75"/><line x1="0" y1="-3.15" x2="0" y2="2.7" stroke="#f1e5c9" stroke-width="0.9" opacity="0.65"/></g><g transform="translate(352.76043215805396 277.8835735831374) rotate(-98.55447082280918) scale(1)"><path d="M0 -4.5 Q3.15 0 0 4.5 Q-3.15 0 0 -4.5Z" fill="#d5c69f" stroke="#8e8269" stroke-width="0.75"/><line x1="0" y1="-3.15" x2="0" y2="2.7" stroke="#f1e5c9" stroke-width="0.9" opacity="0.65"/></g><g transform="translate(243.367251827515 313.288339214209) rotate(54.394180571054505) scale(1)"><path d="M0 -4.5 Q3.15 0 0 4.5 Q-3.15 0 0 -4.5Z" fill="#d5c69f" stroke="#8e8269" stroke-width="0.75"/><line x1="0" y1="-3.15" x2="0" y2="2.7" stroke="#f1e5c9" stroke-width="0.9" opacity="0.65"/></g><g transform="translate(194.65702603177553 188.93706466077998) rotate(71.06570459669308) scale(1)"><path d="M0 -4.5 Q3.15 0 0 4.5 Q-3.15 0 0 -4.5Z" fill="#d5c69f" stroke="#8e8269" stroke-width="0.75"/><line x1="0" y1="-3.15" x2="0" y2="2.7" stroke="#f1e5c9" stroke-width="0.9" opacity="0.65"/></g><g transform="translate(113.32704442488489 266.0312016463982) rotate(56.573063109265945) scale(1)"><path d="M0 -4.5 Q3.15 0 0 4.5 Q-3.15 0 0 -4.5Z" fill="#d5c69f" stroke="#8e8269" stroke-width="0.75"/><line x1="0" y1="-3.15" x2="0" y2="2.7" stroke="#f1e5c9" stroke-width="0.9" opacity="0.65"/></g><g transform="translate(299.97074946348744 337.4635734083831) rotate(90.28138982229524) scale(1)"><path d="M0 -4.5 Q3.15 0 0 4.5 Q-3.15 0 0 -4.5Z" fill="#d5c69f" stroke="#8e8269" stroke-width="0.75"/><line x1="0" y1="-3.15" x2="0" y2="2.7" stroke="#f1e5c9" stroke-width="0.9" opacity="0.65"/></g><g transform="translate(316.31989017832973 284.7855894308459) rotate(2.483017672703511) scale(1)"><path d="M0 -4.5 Q3.15 0 0 4.5 Q-3.15 0 0 -4.5Z" fill="#d5c69f" stroke="#8e8269" stroke-width="0.75"/><line x1="0" y1="-3.15" x2="0" y2="2.7" stroke="#f1e5c9" stroke-width="0.9" opacity="0.65"/></g><g transform="translate(292.37398462804924 197.89220720697475) rotate(-125.00820769510169) scale(1)"><path d="M0 -4.5 Q3.15 0 0 4.5 Q-3.15 0 0 -4.5Z" fill="#d5c69f" stroke="#8e8269" stroke-width="0.75"/><line x1="0" y1="-3.15" x2="0" y2="2.7" stroke="#f1e5c9" stroke-width="0.9" opacity="0.65"/></g><g transform="translate(279.71699868280155 268.2414386504519) rotate(-129.05368509171288) scale(1)"><path d="M0 -4.5 Q3.15 0 0 4.5 Q-3.15 0 0 -4.5Z" fill="#d5c69f" stroke="#8e8269" stroke-width="0.75"/><line x1="0" y1="-3.15" x2="0" y2="2.7" stroke="#f1e5c9" stroke-width="0.9" opacity="0.65"/></g><g transform="translate(177.86267528110298 201.25372865541925) rotate(128.23417185457606) scale(1)"><path d="M0 -4.5 Q3.15 0 0 4.5 Q-3.15 0 0 -4.5Z" fill="#d5c69f" stroke="#8e8269" stroke-width="0.75"/><line x1="0" y1="-3.15" x2="0" y2="2.7" stroke="#f1e5c9" stroke-width="0.9" opacity="0.65"/></g><g transform="translate(173.85077027934972 309.49940799817426) rotate(129.87643497422926) scale(1)"><path d="M0 -4.5 Q3.15 0 0 4.5 Q-3.15 0 0 -4.5Z" fill="#d5c69f" stroke="#8e8269" stroke-width="0.75"/><line x1="0" y1="-3.15" x2="0" y2="2.7" stroke="#f1e5c9" stroke-width="0.9" opacity="0.65"/></g><g transform="translate(160.1244043074184 222.15177311054677) rotate(-15.25485820328609) scale(1)"><path d="M0 -4.5 Q3.15 0 0 4.5 Q-3.15 0 0 -4.5Z" fill="#d5c69f" stroke="#8e8269" stroke-width="0.75"/><line x1="0" y1="-3.15" x2="0" y2="2.7" stroke="#f1e5c9" stroke-width="0.9" opacity="0.65"/></g><g transform="translate(123.0026559361588 298.14916231849253) rotate(30.22048211607077) scale(1)"><path d="M0 -4.5 Q3.15 0 0 4.5 Q-3.15 0 0 -4.5Z" fill="#d5c69f" stroke="#8e8269" stroke-width="0.75"/><line x1="0" y1="-3.15" x2="0" y2="2.7" stroke="#f1e5c9" stroke-width="0.9" opacity="0.65"/></g><g transform="translate(128.47407908446831 240.92522142046954) rotate(-69.3213671317449) scale(1)"><path d="M0 -4.5 Q3.15 0 0 4.5 Q-3.15 0 0 -4.5Z" fill="#d5c69f" stroke="#8e8269" stroke-width="0.75"/><line x1="0" y1="-3.15" x2="0" y2="2.7" stroke="#f1e5c9" stroke-width="0.9" opacity="0.65"/></g><g transform="translate(140.61714869057374 234.39069091861987) rotate(2.404663839134855) scale(1)"><path d="M0 -4.5 Q3.15 0 0 4.5 Q-3.15 0 0 -4.5Z" fill="#d5c69f" stroke="#8e8269" stroke-width="0.75"/><line x1="0" y1="-3.15" x2="0" y2="2.7" stroke="#f1e5c9" stroke-width="0.9" opacity="0.65"/></g><g transform="translate(302.5590766416292 300.13583129862127) rotate(132.90729592513293) scale(1)"><path d="M0 -4.5 Q3.15 0 0 4.5 Q-3.15 0 0 -4.5Z" fill="#d5c69f" stroke="#8e8269" stroke-width="0.75"/><line x1="0" y1="-3.15" x2="0" y2="2.7" stroke="#f1e5c9" stroke-width="0.9" opacity="0.65"/></g><g transform="translate(179.3217723009132 236.51793816626216) rotate(-87.88222969310245) scale(1)"><path d="M0 -4.5 Q3.15 0 0 4.5 Q-3.15 0 0 -4.5Z" fill="#d5c69f" stroke="#8e8269" stroke-width="0.75"/><line x1="0" y1="-3.15" x2="0" y2="2.7" stroke="#f1e5c9" stroke-width="0.9" opacity="0.65"/></g><g transform="translate(173.34741510155334 235.75948206526243) rotate(-101.08770324939752) scale(1)"><path d="M0 -4.5 Q3.15 0 0 4.5 Q-3.15 0 0 -4.5Z" fill="#d5c69f" stroke="#8e8269" stroke-width="0.75"/><line x1="0" y1="-3.15" x2="0" y2="2.7" stroke="#f1e5c9" stroke-width="0.9" opacity="0.65"/></g><g transform="translate(310.7506069363381 189.60184671821375) rotate(-54.54692198283027) scale(1)"><path d="M0 -4.5 Q3.15 0 0 4.5 Q-3.15 0 0 -4.5Z" fill="#d5c69f" stroke="#8e8269" stroke-width="0.75"/><line x1="0" y1="-3.15" x2="0" y2="2.7" stroke="#f1e5c9" stroke-width="0.9" opacity="0.65"/></g><g transform="translate(247.95462238212232 170.7018925104154) rotate(145.75274346106602) scale(1)"><path d="M0 -4.5 Q3.15 0 0 4.5 Q-3.15 0 0 -4.5Z" fill="#d5c69f" stroke="#8e8269" stroke-width="0.75"/><line x1="0" y1="-3.15" x2="0" y2="2.7" stroke="#f1e5c9" stroke-width="0.9" opacity="0.65"/></g><g transform="translate(225.20588123061682 252.36847443425629) rotate(148.91159293062606) scale(1)"><path d="M0 -4.5 Q3.15 0 0 4.5 Q-3.15 0 0 -4.5Z" fill="#d5c69f" stroke="#8e8269" stroke-width="0.75"/><line x1="0" y1="-3.15" x2="0" y2="2.7" stroke="#f1e5c9" stroke-width="0.9" opacity="0.65"/></g><g transform="translate(288.1294636002825 299.27444292747373) rotate(81.421504490546) scale(1)"><path d="M0 -4.5 Q3.15 0 0 4.5 Q-3.15 0 0 -4.5Z" fill="#d5c69f" stroke="#8e8269" stroke-width="0.75"/><line x1="0" y1="-3.15" x2="0" y2="2.7" stroke="#f1e5c9" stroke-width="0.9" opacity="0.65"/></g><g transform="translate(330.7455973730299 214.13884377311257) rotate(157.32933505588625) scale(1)"><path d="M0 -4.5 Q3.15 0 0 4.5 Q-3.15 0 0 -4.5Z" fill="#d5c69f" stroke="#8e8269" stroke-width="0.75"/><line x1="0" y1="-3.15" x2="0" y2="2.7" stroke="#f1e5c9" stroke-width="0.9" opacity="0.65"/></g><g transform="translate(149.86173792854666 290.4154843038981) rotate(-106.4803008742173) scale(1)"><path d="M0 -4.5 Q3.15 0 0 4.5 Q-3.15 0 0 -4.5Z" fill="#d5c69f" stroke="#8e8269" stroke-width="0.75"/><line x1="0" y1="-3.15" x2="0" y2="2.7" stroke="#f1e5c9" stroke-width="0.9" opacity="0.65"/></g><g transform="translate(206.46542084001743 205.92625814512093) rotate(-120.31855658606091) scale(1)"><path d="M0 -4.5 Q3.15 0 0 4.5 Q-3.15 0 0 -4.5Z" fill="#d5c69f" stroke="#8e8269" stroke-width="0.75"/><line x1="0" y1="-3.15" x2="0" y2="2.7" stroke="#f1e5c9" stroke-width="0.9" opacity="0.65"/></g><g transform="translate(299.99141474542694 220.74908345866845) rotate(-13.246460205855897) scale(1)"><path d="M0 -4.5 Q3.15 0 0 4.5 Q-3.15 0 0 -4.5Z" fill="#d5c69f" stroke="#8e8269" stroke-width="0.75"/><line x1="0" y1="-3.15" x2="0" y2="2.7" stroke="#f1e5c9" stroke-width="0.9" opacity="0.65"/></g><g transform="translate(204.007481089464 267.6840183285896) rotate(-58.38082484653032) scale(1)"><path d="M0 -4.5 Q3.15 0 0 4.5 Q-3.15 0 0 -4.5Z" fill="#d5c69f" stroke="#8e8269" stroke-width="0.75"/><line x1="0" y1="-3.15" x2="0" y2="2.7" stroke="#f1e5c9" stroke-width="0.9" opacity="0.65"/></g><g transform="translate(141.89173406170573 276.7092934905916) rotate(-67.73563058032805) scale(1)"><path d="M0 -4.5 Q3.15 0 0 4.5 Q-3.15 0 0 -4.5Z" fill="#d5c69f" stroke="#8e8269" stroke-width="0.75"/><line x1="0" y1="-3.15" x2="0" y2="2.7" stroke="#f1e5c9" stroke-width="0.9" opacity="0.65"/></g><g transform="translate(247.49863706721834 198.5719019371018) rotate(173.27759909610523) scale(1)"><path d="M0 -4.5 Q3.15 0 0 4.5 Q-3.15 0 0 -4.5Z" fill="#d5c69f" stroke="#8e8269" stroke-width="0.75"/><line x1="0" y1="-3.15" x2="0" y2="2.7" stroke="#f1e5c9" stroke-width="0.9" opacity="0.65"/></g><g transform="translate(269.7849812660324 300.60592608073955) rotate(113.71261643862073) scale(1)"><path d="M0 -4.5 Q3.15 0 0 4.5 Q-3.15 0 0 -4.5Z" fill="#d5c69f" stroke="#8e8269" stroke-width="0.75"/><line x1="0" y1="-3.15" x2="0" y2="2.7" stroke="#f1e5c9" stroke-width="0.9" opacity="0.65"/></g><g transform="translate(256.40228140492445 240.44639019669512) rotate(146.0145868808949) scale(1)"><path d="M0 -4.5 Q3.15 0 0 4.5 Q-3.15 0 0 -4.5Z" fill="#d5c69f" stroke="#8e8269" stroke-width="0.75"/><line x1="0" y1="-3.15" x2="0" y2="2.7" stroke="#f1e5c9" stroke-width="0.9" opacity="0.65"/></g><g transform="translate(314.935172186121 223.7793885219744) rotate(139.85940876370955) scale(1)"><path d="M0 -4.5 Q3.15 0 0 4.5 Q-3.15 0 0 -4.5Z" fill="#d5c69f" stroke="#8e8269" stroke-width="0.75"/><line x1="0" y1="-3.15" x2="0" y2="2.7" stroke="#f1e5c9" stroke-width="0.9" opacity="0.65"/></g><g transform="translate(319.915530277433 212.30017439964777) rotate(-59.418702979398105) scale(1)"><path d="M0 -4.5 Q3.15 0 0 4.5 Q-3.15 0 0 -4.5Z" fill="#d5c69f" stroke="#8e8269" stroke-width="0.75"/><line x1="0" y1="-3.15" x2="0" y2="2.7" stroke="#f1e5c9" stroke-width="0.9" opacity="0.65"/></g><g transform="translate(275.48447882198104 268.0004552208055) rotate(75.5248705687547) scale(1)"><path d="M0 -4.5 Q3.15 0 0 4.5 Q-3.15 0 0 -4.5Z" fill="#d5c69f" stroke="#8e8269" stroke-width="0.75"/><line x1="0" y1="-3.15" x2="0" y2="2.7" stroke="#f1e5c9" stroke-width="0.9" opacity="0.65"/></g><g transform="translate(193.24865026063515 235.6570275585198) rotate(126.41375205113627) scale(1)"><path d="M0 -4.5 Q3.15 0 0 4.5 Q-3.15 0 0 -4.5Z" fill="#d5c69f" stroke="#8e8269" stroke-width="0.75"/><line x1="0" y1="-3.15" x2="0" y2="2.7" stroke="#f1e5c9" stroke-width="0.9" opacity="0.65"/></g><g transform="translate(282.4192544948975 268.6635505325101) rotate(-64.38397632143442) scale(1)"><path d="M0 -4.5 Q3.15 0 0 4.5 Q-3.15 0 0 -4.5Z" fill="#d5c69f" stroke="#8e8269" stroke-width="0.75"/><line x1="0" y1="-3.15" x2="0" y2="2.7" stroke="#f1e5c9" stroke-width="0.9" opacity="0.65"/></g><g transform="translate(217.04975732325195 288.8390103423542) rotate(146.87124467825026) scale(1)"><path d="M0 -4.5 Q3.15 0 0 4.5 Q-3.15 0 0 -4.5Z" fill="#d5c69f" stroke="#8e8269" stroke-width="0.75"/><line x1="0" y1="-3.15" x2="0" y2="2.7" stroke="#f1e5c9" stroke-width="0.9" opacity="0.65"/></g><g transform="translate(224.6863677437115 262.7160946063409) rotate(87.1394087885659) scale(1)"><path d="M0 -4.5 Q3.15 0 0 4.5 Q-3.15 0 0 -4.5Z" fill="#d5c69f" stroke="#8e8269" stroke-width="0.75"/><line x1="0" y1="-3.15" x2="0" y2="2.7" stroke="#f1e5c9" stroke-width="0.9" opacity="0.65"/></g><g transform="translate(266.9771931483598 299.9014903354705) rotate(-110.13735079406247) scale(1)"><path d="M0 -4.5 Q3.15 0 0 4.5 Q-3.15 0 0 -4.5Z" fill="#d5c69f" stroke="#8e8269" stroke-width="0.75"/><line x1="0" y1="-3.15" x2="0" y2="2.7" stroke="#f1e5c9" stroke-width="0.9" opacity="0.65"/></g><g transform="translate(218.7665120790041 222.4332987410277) rotate(119.98035183352289) scale(1)"><path d="M0 -4.5 Q3.15 0 0 4.5 Q-3.15 0 0 -4.5Z" fill="#d5c69f" stroke="#8e8269" stroke-width="0.75"/><line x1="0" y1="-3.15" x2="0" y2="2.7" stroke="#f1e5c9" stroke-width="0.9" opacity="0.65"/></g><g transform="translate(297.66060480611605 276.72132072804726) rotate(167.52208782513816) scale(1)"><path d="M0 -4.5 Q3.15 0 0 4.5 Q-3.15 0 0 -4.5Z" fill="#d5c69f" stroke="#8e8269" stroke-width="0.75"/><line x1="0" y1="-3.15" x2="0" y2="2.7" stroke="#f1e5c9" stroke-width="0.9" opacity="0.65"/></g><g transform="translate(204.32790910055118 265.08273192824663) rotate(63.110442349601726) scale(1)"><path d="M0 -4.5 Q3.15 0 0 4.5 Q-3.15 0 0 -4.5Z" fill="#d5c69f" stroke="#8e8269" stroke-width="0.75"/><line x1="0" y1="-3.15" x2="0" y2="2.7" stroke="#f1e5c9" stroke-width="0.9" opacity="0.65"/></g><g transform="translate(271.9814487217044 212.16879392821957) rotate(-168.35935141276005) scale(1)"><path d="M0 -4.5 Q3.15 0 0 4.5 Q-3.15 0 0 -4.5Z" fill="#d5c69f" stroke="#8e8269" stroke-width="0.75"/><line x1="0" y1="-3.15" x2="0" y2="2.7" stroke="#f1e5c9" stroke-width="0.9" opacity="0.65"/></g><g transform="translate(198.57454377623174 200.92187554103276) rotate(15.064943838158882) scale(1)"><path d="M0 -4.5 Q3.15 0 0 4.5 Q-3.15 0 0 -4.5Z" fill="#d5c69f" stroke="#8e8269" stroke-width="0.75"/><line x1="0" y1="-3.15" x2="0" y2="2.7" stroke="#f1e5c9" stroke-width="0.9" opacity="0.65"/></g><g transform="translate(239.14215846955918 333.9197772027204) rotate(-86.91064827453995) scale(1)"><path d="M0 -4.5 Q3.15 0 0 4.5 Q-3.15 0 0 -4.5Z" fill="#d5c69f" stroke="#8e8269" stroke-width="0.75"/><line x1="0" y1="-3.15" x2="0" y2="2.7" stroke="#f1e5c9" stroke-width="0.9" opacity="0.65"/></g><g transform="translate(250.16244368294176 223.32448274321786) rotate(-30.622634326209692) scale(1)"><path d="M0 -4.5 Q3.15 0 0 4.5 Q-3.15 0 0 -4.5Z" fill="#d5c69f" stroke="#8e8269" stroke-width="0.75"/><line x1="0" y1="-3.15" x2="0" y2="2.7" stroke="#f1e5c9" stroke-width="0.9" opacity="0.65"/></g><g transform="translate(262.088279275486 243.47063409522053) rotate(-11.484371622323039) scale(1)"><path d="M0 -4.5 Q3.15 0 0 4.5 Q-3.15 0 0 -4.5Z" fill="#d5c69f" stroke="#8e8269" stroke-width="0.75"/><line x1="0" y1="-3.15" x2="0" y2="2.7" stroke="#f1e5c9" stroke-width="0.9" opacity="0.65"/></g><g transform="translate(139.1751101618809 240.3192563838162) rotate(-25.693837420178426) scale(1)"><path d="M0 -4.5 Q3.15 0 0 4.5 Q-3.15 0 0 -4.5Z" fill="#d5c69f" stroke="#8e8269" stroke-width="0.75"/><line x1="0" y1="-3.15" x2="0" y2="2.7" stroke="#f1e5c9" stroke-width="0.9" opacity="0.65"/></g><g transform="translate(288.88076728807926 295.3695462888288) rotate(-88.40019053928842) scale(1)"><path d="M0 -4.5 Q3.15 0 0 4.5 Q-3.15 0 0 -4.5Z" fill="#d5c69f" stroke="#8e8269" stroke-width="0.75"/><line x1="0" y1="-3.15" x2="0" y2="2.7" stroke="#f1e5c9" stroke-width="0.9" opacity="0.65"/></g><g transform="translate(120.11886357063084 266.66685208505976) rotate(-10.5279133558885) scale(1)"><path d="M0 -4.5 Q3.15 0 0 4.5 Q-3.15 0 0 -4.5Z" fill="#d5c69f" stroke="#8e8269" stroke-width="0.75"/><line x1="0" y1="-3.15" x2="0" y2="2.7" stroke="#f1e5c9" stroke-width="0.9" opacity="0.65"/></g><g transform="translate(324.3010412320423 261.8354235861612) rotate(-69.05787542955106) scale(1)"><path d="M0 -4.5 Q3.15 0 0 4.5 Q-3.15 0 0 -4.5Z" fill="#d5c69f" stroke="#8e8269" stroke-width="0.75"/><line x1="0" y1="-3.15" x2="0" y2="2.7" stroke="#f1e5c9" stroke-width="0.9" opacity="0.65"/></g><g transform="translate(142.51959393409487 281.21507780847094) rotate(-83.7067313306728) scale(1)"><path d="M0 -4.5 Q3.15 0 0 4.5 Q-3.15 0 0 -4.5Z" fill="#d5c69f" stroke="#8e8269" stroke-width="0.75"/><line x1="0" y1="-3.15" x2="0" y2="2.7" stroke="#f1e5c9" stroke-width="0.9" opacity="0.65"/></g><g transform="translate(301.8600422543476 267.87892613921883) rotate(-25.56592598205941) scale(1)"><path d="M0 -4.5 Q3.15 0 0 4.5 Q-3.15 0 0 -4.5Z" fill="#d5c69f" stroke="#8e8269" stroke-width="0.75"/><line x1="0" y1="-3.15" x2="0" y2="2.7" stroke="#f1e5c9" stroke-width="0.9" opacity="0.65"/></g><g transform="translate(214.96653656273645 296.5265421434317) rotate(-167.5704551860548) scale(1)"><path d="M0 -4.5 Q3.15 0 0 4.5 Q-3.15 0 0 -4.5Z" fill="#d5c69f" stroke="#8e8269" stroke-width="0.75"/><line x1="0" y1="-3.15" x2="0" y2="2.7" stroke="#f1e5c9" stroke-width="0.9" opacity="0.65"/></g><g transform="translate(131.2413438406866 269.5807293453461) rotate(-171.59777041047136) scale(1)"><path d="M0 -4.5 Q3.15 0 0 4.5 Q-3.15 0 0 -4.5Z" fill="#d5c69f" stroke="#8e8269" stroke-width="0.75"/><line x1="0" y1="-3.15" x2="0" y2="2.7" stroke="#f1e5c9" stroke-width="0.9" opacity="0.65"/></g><g transform="translate(214.0631398347086 303.19496643915755) rotate(-11.653085806262908) scale(1)"><path d="M0 -4.5 Q3.15 0 0 4.5 Q-3.15 0 0 -4.5Z" fill="#d5c69f" stroke="#8e8269" stroke-width="0.75"/><line x1="0" y1="-3.15" x2="0" y2="2.7" stroke="#f1e5c9" stroke-width="0.9" opacity="0.65"/></g></g><rect width="480" height="480" fill="#968265" filter="url(#paper)" opacity=".023" pointer-events="none"/>
</svg>