<svg xmlns="http://www.w3.org/2000/svg" width="480" height="480" viewBox="0 0 480 480" role="img" aria-labelledby="title desc">
<title id="title">北极覆盆子 · 风格化食材插画</title><desc id="desc">原创本地矢量插画。以目录食材名称选择形态，图片不代表原书照片、实测成分或精确品种鉴定。</desc>
<metadata>{&quot;id&quot;:&quot;ing-eb784d0c225b&quot;,&quot;rawName&quot;:&quot;北極覆盆子&quot;,&quot;displayName&quot;:&quot;北极覆盆子&quot;,&quot;status&quot;:&quot;illustrated&quot;,&quot;motif&quot;:&quot;bramble&quot;,&quot;style&quot;:&quot;original_native_svg_editorial_botanical_v1&quot;,&quot;source&quot;:&quot;Original procedural SVG drawing, created locally; no external images.&quot;,&quot;identityBasis&quot;:&quot;catalog displayName; nameNeedsReview gates identifiable food depictions&quot;,&quot;isPhotograph&quot;:false,&quot;isSensoryMeasurement&quot;:false,&quot;cultivarExactness&quot;:&quot;stylized representation; not verified botanical reference&quot;,&quot;preparationHints&quot;:[]}</metadata><defs>
<radialGradient id="red" cx="30%" cy="21%" r="83%"><stop stop-color="#f68667"/><stop offset=".39" stop-color="#d84937"/><stop offset=".83" stop-color="#ae2d2b"/><stop offset="1" stop-color="#7c272c"/></radialGradient>
<radialGradient id="berry" cx="30%" cy="23%" r="80%"><stop stop-color="#a4abc5"/><stop offset=".4" stop-color="#68738f"/><stop offset=".82" stop-color="#42475e"/><stop offset="1" stop-color="#282e45"/></radialGradient>
<radialGradient id="purple" cx="25%" cy="20%" r="87%"><stop stop-color="#b690ad"/><stop offset=".45" stop-color="#755273"/><stop offset="1" stop-color="#3e334c"/></radialGradient>
<linearGradient id="leaf" x1="0" y1="0" x2="1" y2=".65"><stop stop-color="#9aaa66"/><stop offset=".43" stop-color="#6f864e"/><stop offset="1" stop-color="#3f6449"/></linearGradient>
<radialGradient id="green" cx="28%" cy="25%" r="84%"><stop stop-color="#c6cb6d"/><stop offset=".42" stop-color="#94ad58"/><stop offset="1" stop-color="#527846"/></radialGradient>
<radialGradient id="gold" cx="26%" cy="20%" r="89%"><stop stop-color="#f9d991"/><stop offset=".52" stop-color="#dea94e"/><stop offset="1" stop-color="#a86632"/></radialGradient>
<radialGradient id="orange" cx="29%" cy="20%" r="87%"><stop stop-color="#ffd795"/><stop offset=".4" stop-color="#edab55"/><stop offset="1" stop-color="#ce7341"/></radialGradient>
<radialGradient id="brown" cx="26%" cy="23%" r="80%"><stop stop-color="#c6976c"/><stop offset=".45" stop-color="#946948"/><stop offset="1" stop-color="#624633"/></radialGradient>
<radialGradient id="cream" cx="26%" cy="18%" r="87%"><stop stop-color="#fffdf1"/><stop offset=".5" stop-color="#ece3c5"/><stop offset="1" stop-color="#c4b28d"/></radialGradient>
<linearGradient id="milk" x1="0" y1="0" x2="1" y2=".3"><stop stop-color="#e2dbca"/><stop offset=".3" stop-color="#fffdf2"/><stop offset=".74" stop-color="#f7f2e4"/><stop offset="1" stop-color="#d9d1bf"/></linearGradient>
<linearGradient id="glass" x1="0" y1="0" x2="1" y2="0"><stop stop-color="#bfd0c8" stop-opacity=".45"/><stop offset=".2" stop-color="#fffef6" stop-opacity=".8"/><stop offset=".5" stop-color="#e5eadb" stop-opacity=".1"/><stop offset=".83" stop-color="#cad5c6" stop-opacity=".35"/><stop offset="1" stop-color="#9dafa4" stop-opacity=".5"/></linearGradient>
<linearGradient id="fish" x1="0" y1="0" x2="0" y2="1"><stop stop-color="#536f75"/><stop offset=".4" stop-color="#9caea7"/><stop offset=".69" stop-color="#e6e1c8"/><stop offset="1" stop-color="#b0afa0"/></linearGradient>
<linearGradient id="salmon" x1="0" y1="0" x2="1" y2="1"><stop stop-color="#f6b091"/><stop offset=".5" stop-color="#dc826b"/><stop offset="1" stop-color="#b85d4f"/></linearGradient>
<linearGradient id="meat" x1="0" y1="0" x2="1" y2="1"><stop stop-color="#cc8b7e"/><stop offset=".4" stop-color="#a64f4c"/><stop offset="1" stop-color="#70393a"/></linearGradient>
<radialGradient id="roast" cx="26%" cy="20%" r="80%"><stop stop-color="#d49a60"/><stop offset=".4" stop-color="#a66c3e"/><stop offset="1" stop-color="#6c4331"/></radialGradient>
<radialGradient id="oil" cx="29%" cy="20%" r="84%"><stop stop-color="#ecd78b"/><stop offset=".57" stop-color="#b3a150"/><stop offset="1" stop-color="#74703b"/></radialGradient>
<filter id="ground" x="-60%" y="-200%" width="220%" height="500%"><feGaussianBlur stdDeviation="9"/></filter>
<filter id="soft" x="-20%" y="-20%" width="140%" height="150%"><feDropShadow dx="0" dy="5" stdDeviation="4" flood-color="#685438" flood-opacity=".13"/></filter>
<filter id="paper"><feTurbulence type="fractalNoise" baseFrequency=".69" numOctaves="2" stitchTiles="stitch"/><feColorMatrix type="saturate" values="0"/><feComponentTransfer><feFuncA type="linear" slope=".042"/></feComponentTransfer><feBlend in="SourceGraphic" mode="multiply"/></filter>
</defs>
<rect width="480" height="480" fill="#f5f1e8"/><ellipse cx="237" cy="267" rx="175" ry="163" fill="#faf6ed" opacity=".75"/><ellipse cx="239" cy="362" rx="119" ry="15" fill="#8c7b59" opacity="0.13" filter="url(#ground)"/>
<g><g transform="translate(200 206) rotate(-28) scale(1)"><path d="M0 0 C-28-19-31-58 1-91 C29-61 29-26 0 0Z" fill="url(#leaf)"/><path d="M0-3 Q4-47 1-83" fill="none" stroke="#bdc589" stroke-width="1.2" opacity="0.6"/><path d="M2 -22 Q-8 -26 -15 -36 M2 -22 Q12 -28 17 -38" fill="none" stroke="#c7ce96" stroke-width="0.75" opacity="0.33"/><path d="M2 -37 Q-8 -41 -15 -51 M2 -37 Q12 -43 17 -53" fill="none" stroke="#c7ce96" stroke-width="0.75" opacity="0.33"/><path d="M2 -52 Q-8 -56 -15 -66 M2 -52 Q12 -58 17 -68" fill="none" stroke="#c7ce96" stroke-width="0.75" opacity="0.33"/><path d="M2 -65 Q-8 -69 -15 -79 M2 -65 Q12 -71 17 -81" fill="none" stroke="#c7ce96" stroke-width="0.75" opacity="0.33"/></g><g transform="translate(296 175) rotate(47) scale(0.7)"><path d="M0 0 C-28-19-31-58 1-91 C29-61 29-26 0 0Z" fill="url(#leaf)"/><path d="M0-3 Q4-47 1-83" fill="none" stroke="#bdc589" stroke-width="1.2" opacity="0.6"/><path d="M2 -22 Q-8 -26 -15 -36 M2 -22 Q12 -28 17 -38" fill="none" stroke="#c7ce96" stroke-width="0.75" opacity="0.33"/><path d="M2 -37 Q-8 -41 -15 -51 M2 -37 Q12 -43 17 -53" fill="none" stroke="#c7ce96" stroke-width="0.75" opacity="0.33"/><path d="M2 -52 Q-8 -56 -15 -66 M2 -52 Q12 -58 17 -68" fill="none" stroke="#c7ce96" stroke-width="0.75" opacity="0.33"/><path d="M2 -65 Q-8 -69 -15 -79 M2 -65 Q12 -71 17 -81" fill="none" stroke="#c7ce96" stroke-width="0.75" opacity="0.33"/></g><g transform="translate(166 244) rotate(-13) scale(0.93)"><circle cx="-43.61" cy="-44" r="13" fill="url(#red)" stroke="#9f3b3c" stroke-width="0.6"/><ellipse cx="-46.61" cy="-49" rx="3" ry="1.7" fill="#f8c6bb" opacity="0.27"/><circle cx="-26.52" cy="-44" r="13" fill="url(#red)" stroke="#9f3b3c" stroke-width="0.6"/><ellipse cx="-29.52" cy="-49" rx="3" ry="1.7" fill="#f8c6bb" opacity="0.27"/><circle cx="-10.18" cy="-44" r="13" fill="url(#red)" stroke="#9f3b3c" stroke-width="0.6"/><ellipse cx="-13.18" cy="-49" rx="3" ry="1.7" fill="#f8c6bb" opacity="0.27"/><circle cx="10.17" cy="-44" r="13" fill="url(#red)" stroke="#9f3b3c" stroke-width="0.6"/><ellipse cx="7.17" cy="-49" rx="3" ry="1.7" fill="#f8c6bb" opacity="0.27"/><circle cx="28.18" cy="-44" r="13" fill="url(#red)" stroke="#9f3b3c" stroke-width="0.6"/><ellipse cx="25.18" cy="-49" rx="3" ry="1.7" fill="#f8c6bb" opacity="0.27"/><circle cx="46.68" cy="-44" r="13" fill="url(#red)" stroke="#9f3b3c" stroke-width="0.6"/><ellipse cx="43.68" cy="-49" rx="3" ry="1.7" fill="#f8c6bb" opacity="0.27"/><circle cx="-45.65" cy="-26" r="13" fill="url(#red)" stroke="#9f3b3c" stroke-width="0.6"/><ellipse cx="-48.65" cy="-31" rx="3" ry="1.7" fill="#f8c6bb" opacity="0.27"/><circle cx="-25.49" cy="-26" r="13" fill="url(#red)" stroke="#9f3b3c" stroke-width="0.6"/><ellipse cx="-28.49" cy="-31" rx="3" ry="1.7" fill="#f8c6bb" opacity="0.27"/><circle cx="-8.95" cy="-26" r="13" fill="url(#red)" stroke="#9f3b3c" stroke-width="0.6"/><ellipse cx="-11.95" cy="-31" rx="3" ry="1.7" fill="#f8c6bb" opacity="0.27"/><circle cx="9.74" cy="-26" r="13" fill="url(#red)" stroke="#9f3b3c" stroke-width="0.6"/><ellipse cx="6.74" cy="-31" rx="3" ry="1.7" fill="#f8c6bb" opacity="0.27"/><circle cx="28.21" cy="-26" r="13" fill="url(#red)" stroke="#9f3b3c" stroke-width="0.6"/><ellipse cx="25.21" cy="-31" rx="3" ry="1.7" fill="#f8c6bb" opacity="0.27"/><circle cx="45.62" cy="-26" r="13" fill="url(#red)" stroke="#9f3b3c" stroke-width="0.6"/><ellipse cx="42.62" cy="-31" rx="3" ry="1.7" fill="#f8c6bb" opacity="0.27"/><circle cx="-34.45" cy="-8" r="13" fill="url(#red)" stroke="#9f3b3c" stroke-width="0.6"/><ellipse cx="-37.45" cy="-13" rx="3" ry="1.7" fill="#f8c6bb" opacity="0.27"/><circle cx="-18.49" cy="-8" r="13" fill="url(#red)" stroke="#9f3b3c" stroke-width="0.6"/><ellipse cx="-21.49" cy="-13" rx="3" ry="1.7" fill="#f8c6bb" opacity="0.27"/><circle cx="-1.22" cy="-8" r="13" fill="url(#red)" stroke="#9f3b3c" stroke-width="0.6"/><ellipse cx="-4.22" cy="-13" rx="3" ry="1.7" fill="#f8c6bb" opacity="0.27"/><circle cx="18.12" cy="-8" r="13" fill="url(#red)" stroke="#9f3b3c" stroke-width="0.6"/><ellipse cx="15.12" cy="-13" rx="3" ry="1.7" fill="#f8c6bb" opacity="0.27"/><circle cx="34.35" cy="-8" r="13" fill="url(#red)" stroke="#9f3b3c" stroke-width="0.6"/><ellipse cx="31.35" cy="-13" rx="3" ry="1.7" fill="#f8c6bb" opacity="0.27"/><circle cx="-37.01" cy="10" r="13" fill="url(#red)" stroke="#9f3b3c" stroke-width="0.6"/><ellipse cx="-40.01" cy="5" rx="3" ry="1.7" fill="#f8c6bb" opacity="0.27"/><circle cx="-16.7" cy="10" r="13" fill="url(#red)" stroke="#9f3b3c" stroke-width="0.6"/><ellipse cx="-19.7" cy="5" rx="3" ry="1.7" fill="#f8c6bb" opacity="0.27"/><circle cx="0.15" cy="10" r="13" fill="url(#red)" stroke="#9f3b3c" stroke-width="0.6"/><ellipse cx="-2.85" cy="5" rx="3" ry="1.7" fill="#f8c6bb" opacity="0.27"/><circle cx="17.02" cy="10" r="13" fill="url(#red)" stroke="#9f3b3c" stroke-width="0.6"/><ellipse cx="14.02" cy="5" rx="3" ry="1.7" fill="#f8c6bb" opacity="0.27"/><circle cx="36.98" cy="10" r="13" fill="url(#red)" stroke="#9f3b3c" stroke-width="0.6"/><ellipse cx="33.98" cy="5" rx="3" ry="1.7" fill="#f8c6bb" opacity="0.27"/><circle cx="-27.67" cy="28" r="13" fill="url(#red)" stroke="#9f3b3c" stroke-width="0.6"/><ellipse cx="-30.67" cy="23" rx="3" ry="1.7" fill="#f8c6bb" opacity="0.27"/><circle cx="-7.94" cy="28" r="13" fill="url(#red)" stroke="#9f3b3c" stroke-width="0.6"/><ellipse cx="-10.94" cy="23" rx="3" ry="1.7" fill="#f8c6bb" opacity="0.27"/><circle cx="7.87" cy="28" r="13" fill="url(#red)" stroke="#9f3b3c" stroke-width="0.6"/><ellipse cx="4.87" cy="23" rx="3" ry="1.7" fill="#f8c6bb" opacity="0.27"/><circle cx="26.44" cy="28" r="13" fill="url(#red)" stroke="#9f3b3c" stroke-width="0.6"/><ellipse cx="23.44" cy="23" rx="3" ry="1.7" fill="#f8c6bb" opacity="0.27"/><circle cx="-16.91" cy="46" r="13" fill="url(#red)" stroke="#9f3b3c" stroke-width="0.6"/><ellipse cx="-19.91" cy="41" rx="3" ry="1.7" fill="#f8c6bb" opacity="0.27"/><circle cx="0.01" cy="46" r="13" fill="url(#red)" stroke="#9f3b3c" stroke-width="0.6"/><ellipse cx="-2.99" cy="41" rx="3" ry="1.7" fill="#f8c6bb" opacity="0.27"/><circle cx="17.37" cy="46" r="13" fill="url(#red)" stroke="#9f3b3c" stroke-width="0.6"/><ellipse cx="14.37" cy="41" rx="3" ry="1.7" fill="#f8c6bb" opacity="0.27"/><polygon points="0,-90 6.47,-67.9 29.48,-68.58 10.46,-55.6 18.22,-33.92 0,-48 -18.22,-33.92 -10.46,-55.6 -29.48,-68.58 -6.47,-67.9" fill="url(#leaf)"/></g><g transform="translate(284 258) rotate(16) scale(1.05)"><circle cx="-45.18" cy="-44" r="13" fill="url(#red)" stroke="#9f3b3c" stroke-width="0.6"/><ellipse cx="-48.18" cy="-49" rx="3" ry="1.7" fill="#f8c6bb" opacity="0.27"/><circle cx="-27.92" cy="-44" r="13" fill="url(#red)" stroke="#9f3b3c" stroke-width="0.6"/><ellipse cx="-30.92" cy="-49" rx="3" ry="1.7" fill="#f8c6bb" opacity="0.27"/><circle cx="-7.22" cy="-44" r="13" fill="url(#red)" stroke="#9f3b3c" stroke-width="0.6"/><ellipse cx="-10.22" cy="-49" rx="3" ry="1.7" fill="#f8c6bb" opacity="0.27"/><circle cx="10.34" cy="-44" r="13" fill="url(#red)" stroke="#9f3b3c" stroke-width="0.6"/><ellipse cx="7.34" cy="-49" rx="3" ry="1.7" fill="#f8c6bb" opacity="0.27"/><circle cx="28.53" cy="-44" r="13" fill="url(#red)" stroke="#9f3b3c" stroke-width="0.6"/><ellipse cx="25.53" cy="-49" rx="3" ry="1.7" fill="#f8c6bb" opacity="0.27"/><circle cx="46.06" cy="-44" r="13" fill="url(#red)" stroke="#9f3b3c" stroke-width="0.6"/><ellipse cx="43.06" cy="-49" rx="3" ry="1.7" fill="#f8c6bb" opacity="0.27"/><circle cx="-46.14" cy="-26" r="13" fill="url(#red)" stroke="#9f3b3c" stroke-width="0.6"/><ellipse cx="-49.14" cy="-31" rx="3" ry="1.7" fill="#f8c6bb" opacity="0.27"/><circle cx="-28.92" cy="-26" r="13" fill="url(#red)" stroke="#9f3b3c" stroke-width="0.6"/><ellipse cx="-31.92" cy="-31" rx="3" ry="1.7" fill="#f8c6bb" opacity="0.27"/><circle cx="-10.69" cy="-26" r="13" fill="url(#red)" stroke="#9f3b3c" stroke-width="0.6"/><ellipse cx="-13.69" cy="-31" rx="3" ry="1.7" fill="#f8c6bb" opacity="0.27"/><circle cx="9.37" cy="-26" r="13" fill="url(#red)" stroke="#9f3b3c" stroke-width="0.6"/><ellipse cx="6.37" cy="-31" rx="3" ry="1.7" fill="#f8c6bb" opacity="0.27"/><circle cx="25.98" cy="-26" r="13" fill="url(#red)" stroke="#9f3b3c" stroke-width="0.6"/><ellipse cx="22.98" cy="-31" rx="3" ry="1.7" fill="#f8c6bb" opacity="0.27"/><circle cx="45.12" cy="-26" r="13" fill="url(#red)" stroke="#9f3b3c" stroke-width="0.6"/><ellipse cx="42.12" cy="-31" rx="3" ry="1.7" fill="#f8c6bb" opacity="0.27"/><circle cx="-36.87" cy="-8" r="13" fill="url(#red)" stroke="#9f3b3c" stroke-width="0.6"/><ellipse cx="-39.87" cy="-13" rx="3" ry="1.7" fill="#f8c6bb" opacity="0.27"/><circle cx="-17.93" cy="-8" r="13" fill="url(#red)" stroke="#9f3b3c" stroke-width="0.6"/><ellipse cx="-20.93" cy="-13" rx="3" ry="1.7" fill="#f8c6bb" opacity="0.27"/><circle cx="0.81" cy="-8" r="13" fill="url(#red)" stroke="#9f3b3c" stroke-width="0.6"/><ellipse cx="-2.19" cy="-13" rx="3" ry="1.7" fill="#f8c6bb" opacity="0.27"/><circle cx="16.15" cy="-8" r="13" fill="url(#red)" stroke="#9f3b3c" stroke-width="0.6"/><ellipse cx="13.15" cy="-13" rx="3" ry="1.7" fill="#f8c6bb" opacity="0.27"/><circle cx="37.22" cy="-8" r="13" fill="url(#red)" stroke="#9f3b3c" stroke-width="0.6"/><ellipse cx="34.22" cy="-13" rx="3" ry="1.7" fill="#f8c6bb" opacity="0.27"/><circle cx="-34.59" cy="10" r="13" fill="url(#red)" stroke="#9f3b3c" stroke-width="0.6"/><ellipse cx="-37.59" cy="5" rx="3" ry="1.7" fill="#f8c6bb" opacity="0.27"/><circle cx="-16.6" cy="10" r="13" fill="url(#red)" stroke="#9f3b3c" stroke-width="0.6"/><ellipse cx="-19.6" cy="5" rx="3" ry="1.7" fill="#f8c6bb" opacity="0.27"/><circle cx="-0.3" cy="10" r="13" fill="url(#red)" stroke="#9f3b3c" stroke-width="0.6"/><ellipse cx="-3.3" cy="5" rx="3" ry="1.7" fill="#f8c6bb" opacity="0.27"/><circle cx="16.08" cy="10" r="13" fill="url(#red)" stroke="#9f3b3c" stroke-width="0.6"/><ellipse cx="13.08" cy="5" rx="3" ry="1.7" fill="#f8c6bb" opacity="0.27"/><circle cx="34.73" cy="10" r="13" fill="url(#red)" stroke="#9f3b3c" stroke-width="0.6"/><ellipse cx="31.73" cy="5" rx="3" ry="1.7" fill="#f8c6bb" opacity="0.27"/><circle cx="-26.54" cy="28" r="13" fill="url(#red)" stroke="#9f3b3c" stroke-width="0.6"/><ellipse cx="-29.54" cy="23" rx="3" ry="1.7" fill="#f8c6bb" opacity="0.27"/><circle cx="-8.34" cy="28" r="13" fill="url(#red)" stroke="#9f3b3c" stroke-width="0.6"/><ellipse cx="-11.34" cy="23" rx="3" ry="1.7" fill="#f8c6bb" opacity="0.27"/><circle cx="8.58" cy="28" r="13" fill="url(#red)" stroke="#9f3b3c" stroke-width="0.6"/><ellipse cx="5.58" cy="23" rx="3" ry="1.7" fill="#f8c6bb" opacity="0.27"/><circle cx="27.55" cy="28" r="13" fill="url(#red)" stroke="#9f3b3c" stroke-width="0.6"/><ellipse cx="24.55" cy="23" rx="3" ry="1.7" fill="#f8c6bb" opacity="0.27"/><circle cx="-18.56" cy="46" r="13" fill="url(#red)" stroke="#9f3b3c" stroke-width="0.6"/><ellipse cx="-21.56" cy="41" rx="3" ry="1.7" fill="#f8c6bb" opacity="0.27"/><circle cx="1.04" cy="46" r="13" fill="url(#red)" stroke="#9f3b3c" stroke-width="0.6"/><ellipse cx="-1.96" cy="41" rx="3" ry="1.7" fill="#f8c6bb" opacity="0.27"/><circle cx="18.89" cy="46" r="13" fill="url(#red)" stroke="#9f3b3c" stroke-width="0.6"/><ellipse cx="15.89" cy="41" rx="3" ry="1.7" fill="#f8c6bb" opacity="0.27"/><polygon points="0,-90 6.47,-67.9 29.48,-68.58 10.46,-55.6 18.22,-33.92 0,-48 -18.22,-33.92 -10.46,-55.6 -29.48,-68.58 -6.47,-67.9" fill="url(#leaf)"/></g><g transform="translate(249 335) rotate(16) scale(0.65)"><circle cx="-46.18" cy="-44" r="13" fill="url(#red)" stroke="#9f3b3c" stroke-width="0.6"/><ellipse cx="-49.18" cy="-49" rx="3" ry="1.7" fill="#f8c6bb" opacity="0.27"/><circle cx="-26.71" cy="-44" r="13" fill="url(#red)" stroke="#9f3b3c" stroke-width="0.6"/><ellipse cx="-29.71" cy="-49" rx="3" ry="1.7" fill="#f8c6bb" opacity="0.27"/><circle cx="-10.79" cy="-44" r="13" fill="url(#red)" stroke="#9f3b3c" stroke-width="0.6"/><ellipse cx="-13.79" cy="-49" rx="3" ry="1.7" fill="#f8c6bb" opacity="0.27"/><circle cx="7.86" cy="-44" r="13" fill="url(#red)" stroke="#9f3b3c" stroke-width="0.6"/><ellipse cx="4.86" cy="-49" rx="3" ry="1.7" fill="#f8c6bb" opacity="0.27"/><circle cx="25.83" cy="-44" r="13" fill="url(#red)" stroke="#9f3b3c" stroke-width="0.6"/><ellipse cx="22.83" cy="-49" rx="3" ry="1.7" fill="#f8c6bb" opacity="0.27"/><circle cx="43.66" cy="-44" r="13" fill="url(#red)" stroke="#9f3b3c" stroke-width="0.6"/><ellipse cx="40.66" cy="-49" rx="3" ry="1.7" fill="#f8c6bb" opacity="0.27"/><circle cx="-44.66" cy="-26" r="13" fill="url(#red)" stroke="#9f3b3c" stroke-width="0.6"/><ellipse cx="-47.66" cy="-31" rx="3" ry="1.7" fill="#f8c6bb" opacity="0.27"/><circle cx="-25.13" cy="-26" r="13" fill="url(#red)" stroke="#9f3b3c" stroke-width="0.6"/><ellipse cx="-28.13" cy="-31" rx="3" ry="1.7" fill="#f8c6bb" opacity="0.27"/><circle cx="-10.63" cy="-26" r="13" fill="url(#red)" stroke="#9f3b3c" stroke-width="0.6"/><ellipse cx="-13.63" cy="-31" rx="3" ry="1.7" fill="#f8c6bb" opacity="0.27"/><circle cx="9.24" cy="-26" r="13" fill="url(#red)" stroke="#9f3b3c" stroke-width="0.6"/><ellipse cx="6.24" cy="-31" rx="3" ry="1.7" fill="#f8c6bb" opacity="0.27"/><circle cx="28.34" cy="-26" r="13" fill="url(#red)" stroke="#9f3b3c" stroke-width="0.6"/><ellipse cx="25.34" cy="-31" rx="3" ry="1.7" fill="#f8c6bb" opacity="0.27"/><circle cx="45.51" cy="-26" r="13" fill="url(#red)" stroke="#9f3b3c" stroke-width="0.6"/><ellipse cx="42.51" cy="-31" rx="3" ry="1.7" fill="#f8c6bb" opacity="0.27"/><circle cx="-34.92" cy="-8" r="13" fill="url(#red)" stroke="#9f3b3c" stroke-width="0.6"/><ellipse cx="-37.92" cy="-13" rx="3" ry="1.7" fill="#f8c6bb" opacity="0.27"/><circle cx="-19.49" cy="-8" r="13" fill="url(#red)" stroke="#9f3b3c" stroke-width="0.6"/><ellipse cx="-22.49" cy="-13" rx="3" ry="1.7" fill="#f8c6bb" opacity="0.27"/><circle cx="1.93" cy="-8" r="13" fill="url(#red)" stroke="#9f3b3c" stroke-width="0.6"/><ellipse cx="-1.07" cy="-13" rx="3" ry="1.7" fill="#f8c6bb" opacity="0.27"/><circle cx="19.48" cy="-8" r="13" fill="url(#red)" stroke="#9f3b3c" stroke-width="0.6"/><ellipse cx="16.48" cy="-13" rx="3" ry="1.7" fill="#f8c6bb" opacity="0.27"/><circle cx="36.75" cy="-8" r="13" fill="url(#red)" stroke="#9f3b3c" stroke-width="0.6"/><ellipse cx="33.75" cy="-13" rx="3" ry="1.7" fill="#f8c6bb" opacity="0.27"/><circle cx="-34.55" cy="10" r="13" fill="url(#red)" stroke="#9f3b3c" stroke-width="0.6"/><ellipse cx="-37.55" cy="5" rx="3" ry="1.7" fill="#f8c6bb" opacity="0.27"/><circle cx="-16.01" cy="10" r="13" fill="url(#red)" stroke="#9f3b3c" stroke-width="0.6"/><ellipse cx="-19.01" cy="5" rx="3" ry="1.7" fill="#f8c6bb" opacity="0.27"/><circle cx="0.43" cy="10" r="13" fill="url(#red)" stroke="#9f3b3c" stroke-width="0.6"/><ellipse cx="-2.57" cy="5" rx="3" ry="1.7" fill="#f8c6bb" opacity="0.27"/><circle cx="17.01" cy="10" r="13" fill="url(#red)" stroke="#9f3b3c" stroke-width="0.6"/><ellipse cx="14.01" cy="5" rx="3" ry="1.7" fill="#f8c6bb" opacity="0.27"/><circle cx="34.77" cy="10" r="13" fill="url(#red)" stroke="#9f3b3c" stroke-width="0.6"/><ellipse cx="31.77" cy="5" rx="3" ry="1.7" fill="#f8c6bb" opacity="0.27"/><circle cx="-27.52" cy="28" r="13" fill="url(#red)" stroke="#9f3b3c" stroke-width="0.6"/><ellipse cx="-30.52" cy="23" rx="3" ry="1.7" fill="#f8c6bb" opacity="0.27"/><circle cx="-7.3" cy="28" r="13" fill="url(#red)" stroke="#9f3b3c" stroke-width="0.6"/><ellipse cx="-10.3" cy="23" rx="3" ry="1.7" fill="#f8c6bb" opacity="0.27"/><circle cx="10.66" cy="28" r="13" fill="url(#red)" stroke="#9f3b3c" stroke-width="0.6"/><ellipse cx="7.66" cy="23" rx="3" ry="1.7" fill="#f8c6bb" opacity="0.27"/><circle cx="28.74" cy="28" r="13" fill="url(#red)" stroke="#9f3b3c" stroke-width="0.6"/><ellipse cx="25.74" cy="23" rx="3" ry="1.7" fill="#f8c6bb" opacity="0.27"/><circle cx="-16.81" cy="46" r="13" fill="url(#red)" stroke="#9f3b3c" stroke-width="0.6"/><ellipse cx="-19.81" cy="41" rx="3" ry="1.7" fill="#f8c6bb" opacity="0.27"/><circle cx="1.88" cy="46" r="13" fill="url(#red)" stroke="#9f3b3c" stroke-width="0.6"/><ellipse cx="-1.12" cy="41" rx="3" ry="1.7" fill="#f8c6bb" opacity="0.27"/><circle cx="19" cy="46" r="13" fill="url(#red)" stroke="#9f3b3c" stroke-width="0.6"/><ellipse cx="16" cy="41" rx="3" ry="1.7" fill="#f8c6bb" opacity="0.27"/><polygon points="0,-90 6.47,-67.9 29.48,-68.58 10.46,-55.6 18.22,-33.92 0,-48 -18.22,-33.92 -10.46,-55.6 -29.48,-68.58 -6.47,-67.9" fill="url(#leaf)"/></g></g><rect width="480" height="480" fill="#968265" filter="url(#paper)" opacity=".023" pointer-events="none"/>
</svg>