<svg xmlns="http://www.w3.org/2000/svg" width="480" height="480" viewBox="0 0 480 480" role="img" aria-labelledby="title desc">
<title id="title">小麦面包 · 风格化食材插画</title><desc id="desc">原创本地矢量插画。以目录食材名称选择形态，图片不代表原书照片、实测成分或精确品种鉴定。</desc>
<metadata>{&quot;id&quot;:&quot;ing-6be20383c540&quot;,&quot;rawName&quot;:&quot;小麥麵包&quot;,&quot;displayName&quot;:&quot;小麦面包&quot;,&quot;status&quot;:&quot;illustrated&quot;,&quot;motif&quot;:&quot;bread&quot;,&quot;style&quot;:&quot;original_native_svg_editorial_botanical_v1&quot;,&quot;source&quot;:&quot;Original procedural SVG drawing, created locally; no external images.&quot;,&quot;identityBasis&quot;:&quot;catalog displayName; nameNeedsReview gates identifiable food depictions&quot;,&quot;isPhotograph&quot;:false,&quot;isSensoryMeasurement&quot;:false,&quot;cultivarExactness&quot;:&quot;stylized representation; not verified botanical reference&quot;,&quot;preparationHints&quot;:[]}</metadata><defs>
<radialGradient id="red" cx="30%" cy="21%" r="83%"><stop stop-color="#f68667"/><stop offset=".39" stop-color="#d84937"/><stop offset=".83" stop-color="#ae2d2b"/><stop offset="1" stop-color="#7c272c"/></radialGradient>
<radialGradient id="berry" cx="30%" cy="23%" r="80%"><stop stop-color="#a4abc5"/><stop offset=".4" stop-color="#68738f"/><stop offset=".82" stop-color="#42475e"/><stop offset="1" stop-color="#282e45"/></radialGradient>
<radialGradient id="purple" cx="25%" cy="20%" r="87%"><stop stop-color="#b690ad"/><stop offset=".45" stop-color="#755273"/><stop offset="1" stop-color="#3e334c"/></radialGradient>
<linearGradient id="leaf" x1="0" y1="0" x2="1" y2=".65"><stop stop-color="#9aaa66"/><stop offset=".43" stop-color="#6f864e"/><stop offset="1" stop-color="#3f6449"/></linearGradient>
<radialGradient id="green" cx="28%" cy="25%" r="84%"><stop stop-color="#c6cb6d"/><stop offset=".42" stop-color="#94ad58"/><stop offset="1" stop-color="#527846"/></radialGradient>
<radialGradient id="gold" cx="26%" cy="20%" r="89%"><stop stop-color="#f9d991"/><stop offset=".52" stop-color="#dea94e"/><stop offset="1" stop-color="#a86632"/></radialGradient>
<radialGradient id="orange" cx="29%" cy="20%" r="87%"><stop stop-color="#ffd795"/><stop offset=".4" stop-color="#edab55"/><stop offset="1" stop-color="#ce7341"/></radialGradient>
<radialGradient id="brown" cx="26%" cy="23%" r="80%"><stop stop-color="#c6976c"/><stop offset=".45" stop-color="#946948"/><stop offset="1" stop-color="#624633"/></radialGradient>
<radialGradient id="cream" cx="26%" cy="18%" r="87%"><stop stop-color="#fffdf1"/><stop offset=".5" stop-color="#ece3c5"/><stop offset="1" stop-color="#c4b28d"/></radialGradient>
<linearGradient id="milk" x1="0" y1="0" x2="1" y2=".3"><stop stop-color="#e2dbca"/><stop offset=".3" stop-color="#fffdf2"/><stop offset=".74" stop-color="#f7f2e4"/><stop offset="1" stop-color="#d9d1bf"/></linearGradient>
<linearGradient id="glass" x1="0" y1="0" x2="1" y2="0"><stop stop-color="#bfd0c8" stop-opacity=".45"/><stop offset=".2" stop-color="#fffef6" stop-opacity=".8"/><stop offset=".5" stop-color="#e5eadb" stop-opacity=".1"/><stop offset=".83" stop-color="#cad5c6" stop-opacity=".35"/><stop offset="1" stop-color="#9dafa4" stop-opacity=".5"/></linearGradient>
<linearGradient id="fish" x1="0" y1="0" x2="0" y2="1"><stop stop-color="#536f75"/><stop offset=".4" stop-color="#9caea7"/><stop offset=".69" stop-color="#e6e1c8"/><stop offset="1" stop-color="#b0afa0"/></linearGradient>
<linearGradient id="salmon" x1="0" y1="0" x2="1" y2="1"><stop stop-color="#f6b091"/><stop offset=".5" stop-color="#dc826b"/><stop offset="1" stop-color="#b85d4f"/></linearGradient>
<linearGradient id="meat" x1="0" y1="0" x2="1" y2="1"><stop stop-color="#cc8b7e"/><stop offset=".4" stop-color="#a64f4c"/><stop offset="1" stop-color="#70393a"/></linearGradient>
<radialGradient id="roast" cx="26%" cy="20%" r="80%"><stop stop-color="#d49a60"/><stop offset=".4" stop-color="#a66c3e"/><stop offset="1" stop-color="#6c4331"/></radialGradient>
<radialGradient id="oil" cx="29%" cy="20%" r="84%"><stop stop-color="#ecd78b"/><stop offset=".57" stop-color="#b3a150"/><stop offset="1" stop-color="#74703b"/></radialGradient>
<filter id="ground" x="-60%" y="-200%" width="220%" height="500%"><feGaussianBlur stdDeviation="9"/></filter>
<filter id="soft" x="-20%" y="-20%" width="140%" height="150%"><feDropShadow dx="0" dy="5" stdDeviation="4" flood-color="#685438" flood-opacity=".13"/></filter>
<filter id="paper"><feTurbulence type="fractalNoise" baseFrequency=".69" numOctaves="2" stitchTiles="stitch"/><feColorMatrix type="saturate" values="0"/><feComponentTransfer><feFuncA type="linear" slope=".042"/></feComponentTransfer><feBlend in="SourceGraphic" mode="multiply"/></filter>
</defs>
<rect width="480" height="480" fill="#f5f1e8"/><ellipse cx="237" cy="267" rx="175" ry="163" fill="#faf6ed" opacity=".75"/><ellipse cx="239" cy="362" rx="119" ry="15" fill="#8c7b59" opacity="0.13" filter="url(#ground)"/>
<g><path d="M108 257 C110 158 321 136 371 245 L366 317 Q240 359 115 315Z" fill="url(#gold)" stroke="#a87543" stroke-width="2"/><path d="M157 214 q-20 26-17 57" fill="none" stroke="#f3dca4" stroke-width="10" stroke-linecap="round"/><path d="M154 215 q-21 27-17 53" fill="none" stroke="#b38550" stroke-width="2"/><path d="M207 214 q-20 26-17 57" fill="none" stroke="#f3dca4" stroke-width="10" stroke-linecap="round"/><path d="M204 215 q-21 27-17 53" fill="none" stroke="#b38550" stroke-width="2"/><path d="M257 214 q-20 26-17 57" fill="none" stroke="#f3dca4" stroke-width="10" stroke-linecap="round"/><path d="M254 215 q-21 27-17 53" fill="none" stroke="#b38550" stroke-width="2"/><path d="M307 214 q-20 26-17 57" fill="none" stroke="#f3dca4" stroke-width="10" stroke-linecap="round"/><path d="M304 215 q-21 27-17 53" fill="none" stroke="#b38550" stroke-width="2"/><ellipse cx="268.87" cy="297.98" rx="1.17" ry="0.91" fill="#f5dfb0" opacity="0.53"/><ellipse cx="243.36" cy="311.75" rx="1.21" ry="1.07" fill="#f5dfb0" opacity="0.53"/><ellipse cx="273.54" cy="254.27" rx="0.73" ry="0.86" fill="#f5dfb0" opacity="0.53"/><ellipse cx="255.09" cy="310.9" rx="1.18" ry="0.89" fill="#f5dfb0" opacity="0.53"/><ellipse cx="206.98" cy="307.52" rx="1.43" ry="0.93" fill="#f5dfb0" opacity="0.53"/><ellipse cx="231.83" cy="267.82" rx="1.09" ry="0.9" fill="#f5dfb0" opacity="0.53"/><ellipse cx="303.55" cy="291.7" rx="0.87" ry="0.53" fill="#f5dfb0" opacity="0.53"/><ellipse cx="323.35" cy="256.73" rx="1.08" ry="0.44" fill="#f5dfb0" opacity="0.53"/><ellipse cx="248.23" cy="275.53" rx="1.14" ry="0.46" fill="#f5dfb0" opacity="0.53"/><ellipse cx="269.11" cy="305.99" rx="1.24" ry="0.64" fill="#f5dfb0" opacity="0.53"/><ellipse cx="227.93" cy="302.49" rx="0.76" ry="0.43" fill="#f5dfb0" opacity="0.53"/><ellipse cx="163.15" cy="271.6" rx="0.91" ry="0.56" fill="#f5dfb0" opacity="0.53"/><ellipse cx="206.8" cy="244.57" rx="0.64" ry="0.64" fill="#f5dfb0" opacity="0.53"/><ellipse cx="311.02" cy="302.29" rx="1.23" ry="0.68" fill="#f5dfb0" opacity="0.53"/><ellipse cx="176.46" cy="278.32" rx="0.69" ry="1" fill="#f5dfb0" opacity="0.53"/><ellipse cx="302.14" cy="278.1" rx="0.96" ry="0.64" fill="#f5dfb0" opacity="0.53"/><ellipse cx="197.92" cy="243.54" rx="1.08" ry="1" fill="#f5dfb0" opacity="0.53"/><ellipse cx="141.19" cy="278.04" rx="1.03" ry="0.72" fill="#f5dfb0" opacity="0.53"/><ellipse cx="137.86" cy="261.28" rx="0.79" ry="0.57" fill="#f5dfb0" opacity="0.53"/><ellipse cx="293.38" cy="246.13" rx="0.97" ry="1.04" fill="#f5dfb0" opacity="0.53"/><ellipse cx="323.51" cy="268.63" rx="0.66" ry="0.61" fill="#f5dfb0" opacity="0.53"/><ellipse cx="329.22" cy="264.73" rx="0.75" ry="0.85" fill="#f5dfb0" opacity="0.53"/><ellipse cx="278.46" cy="248.56" rx="0.88" ry="0.5" fill="#f5dfb0" opacity="0.53"/><ellipse cx="213.69" cy="309.41" rx="1.03" ry="1.06" fill="#f5dfb0" opacity="0.53"/><ellipse cx="191.27" cy="283.52" rx="1.02" ry="0.44" fill="#f5dfb0" opacity="0.53"/><ellipse cx="295.94" cy="259.23" rx="0.66" ry="0.86" fill="#f5dfb0" opacity="0.53"/><ellipse cx="290.63" cy="280.14" rx="0.99" ry="0.47" fill="#f5dfb0" opacity="0.53"/><ellipse cx="305.36" cy="261.41" rx="1.54" ry="1.06" fill="#f5dfb0" opacity="0.53"/><ellipse cx="285.28" cy="250.84" rx="1.51" ry="0.81" fill="#f5dfb0" opacity="0.53"/><ellipse cx="232.77" cy="242.87" rx="1.43" ry="1" fill="#f5dfb0" opacity="0.53"/><ellipse cx="274.93" cy="299.74" rx="0.71" ry="0.47" fill="#f5dfb0" opacity="0.53"/><ellipse cx="178.79" cy="298.5" rx="0.61" ry="0.8" fill="#f5dfb0" opacity="0.53"/><ellipse cx="202.73" cy="248.69" rx="1.09" ry="0.97" fill="#f5dfb0" opacity="0.53"/><ellipse cx="313.37" cy="255.04" rx="1.56" ry="0.52" fill="#f5dfb0" opacity="0.53"/><ellipse cx="299.84" cy="307.57" rx="0.87" ry="0.7" fill="#f5dfb0" opacity="0.53"/><ellipse cx="218.18" cy="296.65" rx="0.86" ry="0.41" fill="#f5dfb0" opacity="0.53"/><ellipse cx="185.41" cy="260.61" rx="0.88" ry="1.02" fill="#f5dfb0" opacity="0.53"/><ellipse cx="163.89" cy="253.91" rx="1.42" ry="0.58" fill="#f5dfb0" opacity="0.53"/><ellipse cx="246.99" cy="287.76" rx="0.99" ry="0.53" fill="#f5dfb0" opacity="0.53"/><ellipse cx="290.15" cy="259.39" rx="1.06" ry="0.95" fill="#f5dfb0" opacity="0.53"/><ellipse cx="215.17" cy="244.08" rx="1.16" ry="0.74" fill="#f5dfb0" opacity="0.53"/><ellipse cx="195.94" cy="257.2" rx="1.45" ry="0.52" fill="#f5dfb0" opacity="0.53"/><ellipse cx="251.59" cy="299.83" rx="0.89" ry="0.43" fill="#f5dfb0" opacity="0.53"/><ellipse cx="218.4" cy="293.48" rx="1.29" ry="0.56" fill="#f5dfb0" opacity="0.53"/><ellipse cx="338.36" cy="268.17" rx="0.75" ry="0.78" fill="#f5dfb0" opacity="0.53"/><ellipse cx="280.89" cy="291.85" rx="0.8" ry="0.9" fill="#f5dfb0" opacity="0.53"/><ellipse cx="142.1" cy="276.4" rx="0.76" ry="0.91" fill="#f5dfb0" opacity="0.53"/><ellipse cx="174.79" cy="271.49" rx="0.98" ry="0.47" fill="#f5dfb0" opacity="0.53"/><ellipse cx="326.19" cy="283.43" rx="0.76" ry="0.99" fill="#f5dfb0" opacity="0.53"/><ellipse cx="275.98" cy="240.48" rx="1" ry="0.83" fill="#f5dfb0" opacity="0.53"/><ellipse cx="222.51" cy="304.47" rx="1.26" ry="0.49" fill="#f5dfb0" opacity="0.53"/><ellipse cx="265.73" cy="276.28" rx="0.88" ry="1.04" fill="#f5dfb0" opacity="0.53"/><ellipse cx="224.92" cy="311.57" rx="0.75" ry="0.44" fill="#f5dfb0" opacity="0.53"/><ellipse cx="146.77" cy="262.17" rx="1.47" ry="1.02" fill="#f5dfb0" opacity="0.53"/><ellipse cx="200.55" cy="285.36" rx="1.54" ry="0.92" fill="#f5dfb0" opacity="0.53"/><ellipse cx="304.31" cy="268.54" rx="0.72" ry="0.55" fill="#f5dfb0" opacity="0.53"/><ellipse cx="294.57" cy="280.02" rx="1.38" ry="0.8" fill="#f5dfb0" opacity="0.53"/><ellipse cx="332.19" cy="279.73" rx="0.67" ry="0.83" fill="#f5dfb0" opacity="0.53"/><ellipse cx="284.22" cy="297.64" rx="1.11" ry="1.08" fill="#f5dfb0" opacity="0.53"/><ellipse cx="157.56" cy="263.65" rx="0.81" ry="0.7" fill="#f5dfb0" opacity="0.53"/><ellipse cx="285.13" cy="270.83" rx="0.97" ry="0.79" fill="#f5dfb0" opacity="0.53"/><ellipse cx="324.57" cy="292.44" rx="0.95" ry="0.63" fill="#f5dfb0" opacity="0.53"/><ellipse cx="257.88" cy="271.38" rx="1.13" ry="0.7" fill="#f5dfb0" opacity="0.53"/><ellipse cx="144.67" cy="294.68" rx="1.31" ry="0.83" fill="#f5dfb0" opacity="0.53"/><ellipse cx="180.36" cy="260.71" rx="1.21" ry="0.86" fill="#f5dfb0" opacity="0.53"/><ellipse cx="278.82" cy="240.47" rx="1.54" ry="0.53" fill="#f5dfb0" opacity="0.53"/><ellipse cx="206.25" cy="268.13" rx="0.98" ry="0.86" fill="#f5dfb0" opacity="0.53"/><ellipse cx="135.21" cy="277.78" rx="0.62" ry="1.07" fill="#f5dfb0" opacity="0.53"/><ellipse cx="204.86" cy="247.74" rx="1.02" ry="0.51" fill="#f5dfb0" opacity="0.53"/><ellipse cx="276.29" cy="243.69" rx="1.51" ry="0.93" fill="#f5dfb0" opacity="0.53"/><ellipse cx="241.47" cy="264.03" rx="1.52" ry="0.44" fill="#f5dfb0" opacity="0.53"/><ellipse cx="335.84" cy="259.2" rx="1.18" ry="0.99" fill="#f5dfb0" opacity="0.53"/><ellipse cx="132.62" cy="266.3" rx="1.16" ry="0.66" fill="#f5dfb0" opacity="0.53"/><ellipse cx="180.12" cy="253.02" rx="1.45" ry="0.61" fill="#f5dfb0" opacity="0.53"/><ellipse cx="326.24" cy="261.52" rx="1.46" ry="0.59" fill="#f5dfb0" opacity="0.53"/><ellipse cx="241.83" cy="267.01" rx="0.86" ry="0.86" fill="#f5dfb0" opacity="0.53"/><ellipse cx="201.19" cy="261.47" rx="1.39" ry="0.62" fill="#f5dfb0" opacity="0.53"/><ellipse cx="240.59" cy="289.51" rx="0.74" ry="0.55" fill="#f5dfb0" opacity="0.53"/><ellipse cx="200.09" cy="261.09" rx="1.45" ry="1" fill="#f5dfb0" opacity="0.53"/><ellipse cx="251.3" cy="306.79" rx="1.32" ry="1.01" fill="#f5dfb0" opacity="0.53"/><ellipse cx="158.47" cy="283.66" rx="1.06" ry="0.88" fill="#f5dfb0" opacity="0.53"/><ellipse cx="338.77" cy="283.06" rx="0.61" ry="0.85" fill="#f5dfb0" opacity="0.53"/><ellipse cx="282.14" cy="272.55" rx="0.96" ry="0.9" fill="#f5dfb0" opacity="0.53"/><ellipse cx="223.24" cy="270.14" rx="0.65" ry="0.54" fill="#f5dfb0" opacity="0.53"/><ellipse cx="334.72" cy="264.43" rx="1.36" ry="0.63" fill="#f5dfb0" opacity="0.53"/><ellipse cx="286.25" cy="244.06" rx="0.63" ry="0.77" fill="#f5dfb0" opacity="0.53"/><ellipse cx="300.75" cy="290.85" rx="0.99" ry="0.91" fill="#f5dfb0" opacity="0.53"/><ellipse cx="185.67" cy="281.25" rx="1.01" ry="0.72" fill="#f5dfb0" opacity="0.53"/><ellipse cx="342.55" cy="274.04" rx="1" ry="0.44" fill="#f5dfb0" opacity="0.53"/><ellipse cx="219.37" cy="299.13" rx="1.01" ry="0.8" fill="#f5dfb0" opacity="0.53"/><ellipse cx="300.82" cy="265.58" rx="0.63" ry="0.74" fill="#f5dfb0" opacity="0.53"/><ellipse cx="177.76" cy="243.37" rx="0.76" ry="0.71" fill="#f5dfb0" opacity="0.53"/><ellipse cx="271.66" cy="291.63" rx="1.39" ry="0.68" fill="#f5dfb0" opacity="0.53"/><ellipse cx="237.28" cy="276.76" rx="0.97" ry="0.42" fill="#f5dfb0" opacity="0.53"/><ellipse cx="181.65" cy="273.94" rx="1.12" ry="0.53" fill="#f5dfb0" opacity="0.53"/><ellipse cx="171.95" cy="256.14" rx="1.49" ry="0.97" fill="#f5dfb0" opacity="0.53"/><ellipse cx="280.56" cy="305.26" rx="1.31" ry="0.87" fill="#f5dfb0" opacity="0.53"/><ellipse cx="191.95" cy="268.37" rx="1.2" ry="0.64" fill="#f5dfb0" opacity="0.53"/><ellipse cx="305.95" cy="251.85" rx="1.21" ry="0.66" fill="#f5dfb0" opacity="0.53"/><ellipse cx="201.69" cy="287.23" rx="1" ry="0.48" fill="#f5dfb0" opacity="0.53"/><ellipse cx="192.93" cy="282.51" rx="1.02" ry="0.96" fill="#f5dfb0" opacity="0.53"/><ellipse cx="222.58" cy="260.45" rx="1.06" ry="0.89" fill="#f5dfb0" opacity="0.53"/><ellipse cx="300" cy="245.25" rx="0.96" ry="0.5" fill="#f5dfb0" opacity="0.53"/><ellipse cx="252.58" cy="282.96" rx="0.72" ry="0.53" fill="#f5dfb0" opacity="0.53"/><ellipse cx="185.92" cy="270.43" rx="1.55" ry="0.6" fill="#f5dfb0" opacity="0.53"/><ellipse cx="303.67" cy="281.85" rx="0.98" ry="0.52" fill="#f5dfb0" opacity="0.53"/><ellipse cx="242.02" cy="236.3" rx="0.8" ry="1.04" fill="#f5dfb0" opacity="0.53"/><ellipse cx="222.07" cy="257.06" rx="1.26" ry="0.93" fill="#f5dfb0" opacity="0.53"/><ellipse cx="172.22" cy="256.79" rx="1.01" ry="0.53" fill="#f5dfb0" opacity="0.53"/><ellipse cx="202.16" cy="285.89" rx="0.87" ry="0.67" fill="#f5dfb0" opacity="0.53"/><ellipse cx="147.8" cy="276.62" rx="0.93" ry="0.47" fill="#f5dfb0" opacity="0.53"/><ellipse cx="269.9" cy="297.61" rx="1.19" ry="0.6" fill="#f5dfb0" opacity="0.53"/><ellipse cx="325.5" cy="290.13" rx="1.54" ry="0.51" fill="#f5dfb0" opacity="0.53"/><ellipse cx="210.18" cy="249.11" rx="1.48" ry="0.49" fill="#f5dfb0" opacity="0.53"/><ellipse cx="232.78" cy="271.48" rx="1.15" ry="0.78" fill="#f5dfb0" opacity="0.53"/><ellipse cx="314.64" cy="258.44" rx="1.47" ry="1.05" fill="#f5dfb0" opacity="0.53"/><ellipse cx="203.48" cy="294.17" rx="0.7" ry="0.7" fill="#f5dfb0" opacity="0.53"/><ellipse cx="180.71" cy="256.09" rx="0.65" ry="0.93" fill="#f5dfb0" opacity="0.53"/><ellipse cx="268.2" cy="281.36" rx="1.03" ry="0.52" fill="#f5dfb0" opacity="0.53"/><ellipse cx="191.81" cy="284.36" rx="1.41" ry="0.99" fill="#f5dfb0" opacity="0.53"/><ellipse cx="325.71" cy="255.74" rx="1.53" ry="0.79" fill="#f5dfb0" opacity="0.53"/><ellipse cx="183.32" cy="276.07" rx="1.12" ry="0.64" fill="#f5dfb0" opacity="0.53"/><ellipse cx="163.89" cy="258.25" rx="1.48" ry="0.74" fill="#f5dfb0" opacity="0.53"/><ellipse cx="203.41" cy="295.22" rx="0.67" ry="1.03" fill="#f5dfb0" opacity="0.53"/><ellipse cx="274.36" cy="303.36" rx="0.76" ry="1.02" fill="#f5dfb0" opacity="0.53"/><ellipse cx="269.99" cy="305.45" rx="0.69" ry="0.42" fill="#f5dfb0" opacity="0.53"/><ellipse cx="228.59" cy="293.54" rx="0.81" ry="0.86" fill="#f5dfb0" opacity="0.53"/><ellipse cx="337.36" cy="281.92" rx="0.67" ry="0.89" fill="#f5dfb0" opacity="0.53"/><ellipse cx="227.99" cy="238.85" rx="1.06" ry="0.89" fill="#f5dfb0" opacity="0.53"/><ellipse cx="265.17" cy="307.15" rx="1.45" ry="0.74" fill="#f5dfb0" opacity="0.53"/><ellipse cx="243.36" cy="245.65" rx="1.42" ry="0.81" fill="#f5dfb0" opacity="0.53"/><ellipse cx="260.34" cy="311.2" rx="0.8" ry="0.47" fill="#f5dfb0" opacity="0.53"/><ellipse cx="282.17" cy="269.4" rx="1.02" ry="1.07" fill="#f5dfb0" opacity="0.53"/><ellipse cx="308.34" cy="253.24" rx="0.63" ry="0.99" fill="#f5dfb0" opacity="0.53"/><ellipse cx="214.47" cy="281.18" rx="1.23" ry="1" fill="#f5dfb0" opacity="0.53"/><ellipse cx="236.47" cy="281.78" rx="1.52" ry="0.65" fill="#f5dfb0" opacity="0.53"/><ellipse cx="229.62" cy="273.14" rx="1.02" ry="0.57" fill="#f5dfb0" opacity="0.53"/><ellipse cx="253.11" cy="312.82" rx="1.14" ry="1.03" fill="#f5dfb0" opacity="0.53"/><ellipse cx="246.92" cy="243.9" rx="0.76" ry="0.94" fill="#f5dfb0" opacity="0.53"/><ellipse cx="266.56" cy="244.52" rx="0.76" ry="0.85" fill="#f5dfb0" opacity="0.53"/></g><rect width="480" height="480" fill="#968265" filter="url(#paper)" opacity=".023" pointer-events="none"/>
</svg>