<svg xmlns="http://www.w3.org/2000/svg" width="480" height="480" viewBox="0 0 480 480" role="img" aria-labelledby="title desc">
<title id="title">古布阿苏果酱 · 风格化食材插画</title><desc id="desc">原创本地矢量插画。以目录食材名称选择形态，图片不代表原书照片、实测成分或精确品种鉴定。</desc>
<metadata>{&quot;id&quot;:&quot;ing-a23c816dd3d3&quot;,&quot;rawName&quot;:&quot;古布阿蘇果醬&quot;,&quot;displayName&quot;:&quot;古布阿苏果酱&quot;,&quot;status&quot;:&quot;illustrated&quot;,&quot;motif&quot;:&quot;bowl&quot;,&quot;style&quot;:&quot;original_native_svg_editorial_botanical_v1&quot;,&quot;source&quot;:&quot;Original procedural SVG drawing, created locally; no external images.&quot;,&quot;identityBasis&quot;:&quot;catalog displayName; nameNeedsReview gates identifiable food depictions&quot;,&quot;isPhotograph&quot;:false,&quot;isSensoryMeasurement&quot;:false,&quot;cultivarExactness&quot;:&quot;stylized representation; not verified botanical reference&quot;,&quot;preparationHints&quot;:[]}</metadata><defs>
<radialGradient id="red" cx="30%" cy="21%" r="83%"><stop stop-color="#f68667"/><stop offset=".39" stop-color="#d84937"/><stop offset=".83" stop-color="#ae2d2b"/><stop offset="1" stop-color="#7c272c"/></radialGradient>
<radialGradient id="berry" cx="30%" cy="23%" r="80%"><stop stop-color="#a4abc5"/><stop offset=".4" stop-color="#68738f"/><stop offset=".82" stop-color="#42475e"/><stop offset="1" stop-color="#282e45"/></radialGradient>
<radialGradient id="purple" cx="25%" cy="20%" r="87%"><stop stop-color="#b690ad"/><stop offset=".45" stop-color="#755273"/><stop offset="1" stop-color="#3e334c"/></radialGradient>
<linearGradient id="leaf" x1="0" y1="0" x2="1" y2=".65"><stop stop-color="#9aaa66"/><stop offset=".43" stop-color="#6f864e"/><stop offset="1" stop-color="#3f6449"/></linearGradient>
<radialGradient id="green" cx="28%" cy="25%" r="84%"><stop stop-color="#c6cb6d"/><stop offset=".42" stop-color="#94ad58"/><stop offset="1" stop-color="#527846"/></radialGradient>
<radialGradient id="gold" cx="26%" cy="20%" r="89%"><stop stop-color="#f9d991"/><stop offset=".52" stop-color="#dea94e"/><stop offset="1" stop-color="#a86632"/></radialGradient>
<radialGradient id="orange" cx="29%" cy="20%" r="87%"><stop stop-color="#ffd795"/><stop offset=".4" stop-color="#edab55"/><stop offset="1" stop-color="#ce7341"/></radialGradient>
<radialGradient id="brown" cx="26%" cy="23%" r="80%"><stop stop-color="#c6976c"/><stop offset=".45" stop-color="#946948"/><stop offset="1" stop-color="#624633"/></radialGradient>
<radialGradient id="cream" cx="26%" cy="18%" r="87%"><stop stop-color="#fffdf1"/><stop offset=".5" stop-color="#ece3c5"/><stop offset="1" stop-color="#c4b28d"/></radialGradient>
<linearGradient id="milk" x1="0" y1="0" x2="1" y2=".3"><stop stop-color="#e2dbca"/><stop offset=".3" stop-color="#fffdf2"/><stop offset=".74" stop-color="#f7f2e4"/><stop offset="1" stop-color="#d9d1bf"/></linearGradient>
<linearGradient id="glass" x1="0" y1="0" x2="1" y2="0"><stop stop-color="#bfd0c8" stop-opacity=".45"/><stop offset=".2" stop-color="#fffef6" stop-opacity=".8"/><stop offset=".5" stop-color="#e5eadb" stop-opacity=".1"/><stop offset=".83" stop-color="#cad5c6" stop-opacity=".35"/><stop offset="1" stop-color="#9dafa4" stop-opacity=".5"/></linearGradient>
<linearGradient id="fish" x1="0" y1="0" x2="0" y2="1"><stop stop-color="#536f75"/><stop offset=".4" stop-color="#9caea7"/><stop offset=".69" stop-color="#e6e1c8"/><stop offset="1" stop-color="#b0afa0"/></linearGradient>
<linearGradient id="salmon" x1="0" y1="0" x2="1" y2="1"><stop stop-color="#f6b091"/><stop offset=".5" stop-color="#dc826b"/><stop offset="1" stop-color="#b85d4f"/></linearGradient>
<linearGradient id="meat" x1="0" y1="0" x2="1" y2="1"><stop stop-color="#cc8b7e"/><stop offset=".4" stop-color="#a64f4c"/><stop offset="1" stop-color="#70393a"/></linearGradient>
<radialGradient id="roast" cx="26%" cy="20%" r="80%"><stop stop-color="#d49a60"/><stop offset=".4" stop-color="#a66c3e"/><stop offset="1" stop-color="#6c4331"/></radialGradient>
<radialGradient id="oil" cx="29%" cy="20%" r="84%"><stop stop-color="#ecd78b"/><stop offset=".57" stop-color="#b3a150"/><stop offset="1" stop-color="#74703b"/></radialGradient>
<filter id="ground" x="-60%" y="-200%" width="220%" height="500%"><feGaussianBlur stdDeviation="9"/></filter>
<filter id="soft" x="-20%" y="-20%" width="140%" height="150%"><feDropShadow dx="0" dy="5" stdDeviation="4" flood-color="#685438" flood-opacity=".13"/></filter>
<filter id="paper"><feTurbulence type="fractalNoise" baseFrequency=".69" numOctaves="2" stitchTiles="stitch"/><feColorMatrix type="saturate" values="0"/><feComponentTransfer><feFuncA type="linear" slope=".042"/></feComponentTransfer><feBlend in="SourceGraphic" mode="multiply"/></filter>
</defs>
<rect width="480" height="480" fill="#f5f1e8"/><ellipse cx="237" cy="267" rx="175" ry="163" fill="#faf6ed" opacity=".75"/><ellipse cx="239" cy="362" rx="119" ry="15" fill="#8c7b59" opacity="0.13" filter="url(#ground)"/>
<g><ellipse cx="238" cy="336" rx="113" ry="24" fill="#b8ab92" opacity="0.4"/><path d="M107 234 C115 384 360 386 372 234Z" fill="#ded6c3" stroke="#bdb49d" stroke-width="1"/><ellipse cx="239" cy="235" rx="132" ry="62" fill="#f7efdb" stroke="#c7bca1" stroke-width="2"/><ellipse cx="239" cy="234" rx="117" ry="49" fill="#b08c59"/><path d="M151 231 Q207 190 307 225 Q337 246 255 263" fill="none" stroke="#dcc396" stroke-width="4" stroke-linecap="round" opacity="0.32"/><ellipse cx="278.41" cy="214.79" rx="0.57" ry="0.45" fill="#6d5c3e" opacity="0.2"/><ellipse cx="213.82" cy="251.87" rx="0.91" ry="0.79" fill="#6d5c3e" opacity="0.2"/><ellipse cx="256.89" cy="230.19" rx="1.13" ry="0.67" fill="#6d5c3e" opacity="0.2"/><ellipse cx="250.73" cy="211.68" rx="0.53" ry="0.44" fill="#6d5c3e" opacity="0.2"/><ellipse cx="185.56" cy="219.72" rx="0.94" ry="0.71" fill="#6d5c3e" opacity="0.2"/><ellipse cx="155.75" cy="258.02" rx="1.03" ry="0.86" fill="#6d5c3e" opacity="0.2"/><ellipse cx="230" cy="244.85" rx="0.66" ry="0.7" fill="#6d5c3e" opacity="0.2"/><ellipse cx="213.54" cy="227.08" rx="0.96" ry="0.79" fill="#6d5c3e" opacity="0.2"/><ellipse cx="192.95" cy="268.81" rx="0.87" ry="0.4" fill="#6d5c3e" opacity="0.2"/><ellipse cx="254.4" cy="237.8" rx="1.28" ry="0.77" fill="#6d5c3e" opacity="0.2"/><ellipse cx="320.67" cy="223.21" rx="0.89" ry="0.47" fill="#6d5c3e" opacity="0.2"/><ellipse cx="181.07" cy="266.79" rx="1.03" ry="0.74" fill="#6d5c3e" opacity="0.2"/><ellipse cx="252.42" cy="252.73" rx="1.03" ry="0.86" fill="#6d5c3e" opacity="0.2"/><ellipse cx="273.62" cy="231.13" rx="1.39" ry="0.87" fill="#6d5c3e" opacity="0.2"/><ellipse cx="295.02" cy="259.45" rx="0.85" ry="0.89" fill="#6d5c3e" opacity="0.2"/><ellipse cx="163.13" cy="254.32" rx="0.99" ry="0.81" fill="#6d5c3e" opacity="0.2"/><ellipse cx="190.9" cy="208.86" rx="1" ry="0.49" fill="#6d5c3e" opacity="0.2"/><ellipse cx="198.21" cy="251.88" rx="1.29" ry="0.73" fill="#6d5c3e" opacity="0.2"/><ellipse cx="297.34" cy="236.23" rx="1.23" ry="0.49" fill="#6d5c3e" opacity="0.2"/><ellipse cx="249.49" cy="221.96" rx="1.14" ry="0.75" fill="#6d5c3e" opacity="0.2"/><ellipse cx="206.03" cy="218.6" rx="0.91" ry="0.78" fill="#6d5c3e" opacity="0.2"/><ellipse cx="194.77" cy="227.49" rx="1.1" ry="0.95" fill="#6d5c3e" opacity="0.2"/><ellipse cx="160.49" cy="232.37" rx="0.71" ry="0.61" fill="#6d5c3e" opacity="0.2"/><ellipse cx="196.77" cy="250.5" rx="1.32" ry="0.93" fill="#6d5c3e" opacity="0.2"/><ellipse cx="231.79" cy="251.48" rx="0.93" ry="0.68" fill="#6d5c3e" opacity="0.2"/><ellipse cx="150.87" cy="217.25" rx="1.07" ry="0.34" fill="#6d5c3e" opacity="0.2"/><ellipse cx="253.44" cy="253.85" rx="1.25" ry="0.34" fill="#6d5c3e" opacity="0.2"/><ellipse cx="281.3" cy="263.55" rx="0.98" ry="0.67" fill="#6d5c3e" opacity="0.2"/><ellipse cx="148.17" cy="240" rx="0.88" ry="0.43" fill="#6d5c3e" opacity="0.2"/><ellipse cx="316.64" cy="240.08" rx="1.25" ry="0.65" fill="#6d5c3e" opacity="0.2"/><ellipse cx="235.66" cy="237.87" rx="1.28" ry="0.95" fill="#6d5c3e" opacity="0.2"/><ellipse cx="191.84" cy="239.36" rx="0.69" ry="0.69" fill="#6d5c3e" opacity="0.2"/><ellipse cx="216.55" cy="202.8" rx="0.5" ry="0.62" fill="#6d5c3e" opacity="0.2"/><ellipse cx="178.79" cy="240.92" rx="1.05" ry="0.8" fill="#6d5c3e" opacity="0.2"/><ellipse cx="284.68" cy="210.15" rx="1.31" ry="0.42" fill="#6d5c3e" opacity="0.2"/><ellipse cx="244.5" cy="217.71" rx="1.35" ry="0.76" fill="#6d5c3e" opacity="0.2"/><ellipse cx="169.97" cy="224.17" rx="0.79" ry="0.36" fill="#6d5c3e" opacity="0.2"/><ellipse cx="333.68" cy="224.9" rx="0.67" ry="0.65" fill="#6d5c3e" opacity="0.2"/><ellipse cx="191.62" cy="229.9" rx="1.1" ry="0.58" fill="#6d5c3e" opacity="0.2"/><ellipse cx="188.96" cy="265.86" rx="1.15" ry="0.45" fill="#6d5c3e" opacity="0.2"/><ellipse cx="247" cy="224.22" rx="0.64" ry="0.67" fill="#6d5c3e" opacity="0.2"/><ellipse cx="264.65" cy="241.25" rx="1.2" ry="0.81" fill="#6d5c3e" opacity="0.2"/><ellipse cx="227.82" cy="201.69" rx="0.95" ry="0.81" fill="#6d5c3e" opacity="0.2"/><ellipse cx="269.95" cy="251.65" rx="0.75" ry="0.35" fill="#6d5c3e" opacity="0.2"/><ellipse cx="317.14" cy="231.23" rx="0.57" ry="0.4" fill="#6d5c3e" opacity="0.2"/><ellipse cx="259.9" cy="242.3" rx="1.37" ry="0.65" fill="#6d5c3e" opacity="0.2"/><ellipse cx="188.8" cy="223.5" rx="0.74" ry="0.54" fill="#6d5c3e" opacity="0.2"/><ellipse cx="294.4" cy="218.68" rx="1.24" ry="0.43" fill="#6d5c3e" opacity="0.2"/><ellipse cx="301.08" cy="232.66" rx="0.94" ry="0.68" fill="#6d5c3e" opacity="0.2"/><ellipse cx="284.91" cy="247.98" rx="0.8" ry="0.72" fill="#6d5c3e" opacity="0.2"/><ellipse cx="261.36" cy="223.73" rx="1.36" ry="0.77" fill="#6d5c3e" opacity="0.2"/><ellipse cx="216.45" cy="210.82" rx="0.92" ry="0.68" fill="#6d5c3e" opacity="0.2"/><ellipse cx="173.28" cy="237.09" rx="1.19" ry="0.7" fill="#6d5c3e" opacity="0.2"/><ellipse cx="270.34" cy="242.91" rx="0.72" ry="0.34" fill="#6d5c3e" opacity="0.2"/><ellipse cx="252.15" cy="235.75" rx="1.16" ry="0.9" fill="#6d5c3e" opacity="0.2"/><ellipse cx="134.6" cy="234.51" rx="1.26" ry="0.37" fill="#6d5c3e" opacity="0.2"/><ellipse cx="239.17" cy="228.4" rx="0.52" ry="0.64" fill="#6d5c3e" opacity="0.2"/><ellipse cx="178.23" cy="261.68" rx="0.75" ry="0.72" fill="#6d5c3e" opacity="0.2"/><ellipse cx="218.88" cy="272.45" rx="0.53" ry="0.5" fill="#6d5c3e" opacity="0.2"/><ellipse cx="315.33" cy="246.59" rx="0.63" ry="0.44" fill="#6d5c3e" opacity="0.2"/><ellipse cx="333.31" cy="234.42" rx="0.55" ry="0.61" fill="#6d5c3e" opacity="0.2"/><ellipse cx="242.49" cy="203.88" rx="1.29" ry="0.57" fill="#6d5c3e" opacity="0.2"/><ellipse cx="151.86" cy="227.62" rx="0.91" ry="0.43" fill="#6d5c3e" opacity="0.2"/><ellipse cx="241.77" cy="214.23" rx="0.89" ry="0.5" fill="#6d5c3e" opacity="0.2"/><ellipse cx="182.33" cy="246.98" rx="0.83" ry="0.78" fill="#6d5c3e" opacity="0.2"/><ellipse cx="152.22" cy="224.74" rx="0.57" ry="0.93" fill="#6d5c3e" opacity="0.2"/><ellipse cx="220.73" cy="236.27" rx="0.58" ry="0.59" fill="#6d5c3e" opacity="0.2"/><ellipse cx="253.88" cy="257.62" rx="1.32" ry="0.35" fill="#6d5c3e" opacity="0.2"/><ellipse cx="150.66" cy="239.66" rx="1.13" ry="0.89" fill="#6d5c3e" opacity="0.2"/><ellipse cx="249.69" cy="240" rx="0.63" ry="0.74" fill="#6d5c3e" opacity="0.2"/><ellipse cx="196.61" cy="224.41" rx="0.91" ry="0.61" fill="#6d5c3e" opacity="0.2"/><ellipse cx="323.23" cy="256.8" rx="1.02" ry="0.52" fill="#6d5c3e" opacity="0.2"/><ellipse cx="217.31" cy="263.16" rx="1.33" ry="0.53" fill="#6d5c3e" opacity="0.2"/><ellipse cx="273.74" cy="264.97" rx="1.35" ry="0.46" fill="#6d5c3e" opacity="0.2"/><ellipse cx="247.13" cy="263.43" rx="1.39" ry="0.48" fill="#6d5c3e" opacity="0.2"/></g><rect width="480" height="480" fill="#968265" filter="url(#paper)" opacity=".023" pointer-events="none"/>
</svg>