<svg xmlns="http://www.w3.org/2000/svg" width="480" height="480" viewBox="0 0 480 480" role="img" aria-labelledby="title desc">
<title id="title">熟苦荞 · 风格化食材插画</title><desc id="desc">原创本地矢量插画。以目录食材名称选择形态，图片不代表原书照片、实测成分或精确品种鉴定。</desc>
<metadata>{&quot;id&quot;:&quot;ing-8f4f8e445d2c&quot;,&quot;rawName&quot;:&quot;熟苔豔&quot;,&quot;displayName&quot;:&quot;熟苦荞&quot;,&quot;status&quot;:&quot;illustrated&quot;,&quot;motif&quot;:&quot;bread&quot;,&quot;style&quot;:&quot;original_native_svg_editorial_botanical_v1&quot;,&quot;source&quot;:&quot;Original procedural SVG drawing, created locally; no external images.&quot;,&quot;identityBasis&quot;:&quot;catalog displayName; nameNeedsReview gates identifiable food depictions&quot;,&quot;isPhotograph&quot;:false,&quot;isSensoryMeasurement&quot;:false,&quot;cultivarExactness&quot;:&quot;stylized representation; not verified botanical reference&quot;,&quot;preparationHints&quot;:[&quot;熟&quot;]}</metadata><defs>
<radialGradient id="red" cx="30%" cy="21%" r="83%"><stop stop-color="#f68667"/><stop offset=".39" stop-color="#d84937"/><stop offset=".83" stop-color="#ae2d2b"/><stop offset="1" stop-color="#7c272c"/></radialGradient>
<radialGradient id="berry" cx="30%" cy="23%" r="80%"><stop stop-color="#a4abc5"/><stop offset=".4" stop-color="#68738f"/><stop offset=".82" stop-color="#42475e"/><stop offset="1" stop-color="#282e45"/></radialGradient>
<radialGradient id="purple" cx="25%" cy="20%" r="87%"><stop stop-color="#b690ad"/><stop offset=".45" stop-color="#755273"/><stop offset="1" stop-color="#3e334c"/></radialGradient>
<linearGradient id="leaf" x1="0" y1="0" x2="1" y2=".65"><stop stop-color="#9aaa66"/><stop offset=".43" stop-color="#6f864e"/><stop offset="1" stop-color="#3f6449"/></linearGradient>
<radialGradient id="green" cx="28%" cy="25%" r="84%"><stop stop-color="#c6cb6d"/><stop offset=".42" stop-color="#94ad58"/><stop offset="1" stop-color="#527846"/></radialGradient>
<radialGradient id="gold" cx="26%" cy="20%" r="89%"><stop stop-color="#f9d991"/><stop offset=".52" stop-color="#dea94e"/><stop offset="1" stop-color="#a86632"/></radialGradient>
<radialGradient id="orange" cx="29%" cy="20%" r="87%"><stop stop-color="#ffd795"/><stop offset=".4" stop-color="#edab55"/><stop offset="1" stop-color="#ce7341"/></radialGradient>
<radialGradient id="brown" cx="26%" cy="23%" r="80%"><stop stop-color="#c6976c"/><stop offset=".45" stop-color="#946948"/><stop offset="1" stop-color="#624633"/></radialGradient>
<radialGradient id="cream" cx="26%" cy="18%" r="87%"><stop stop-color="#fffdf1"/><stop offset=".5" stop-color="#ece3c5"/><stop offset="1" stop-color="#c4b28d"/></radialGradient>
<linearGradient id="milk" x1="0" y1="0" x2="1" y2=".3"><stop stop-color="#e2dbca"/><stop offset=".3" stop-color="#fffdf2"/><stop offset=".74" stop-color="#f7f2e4"/><stop offset="1" stop-color="#d9d1bf"/></linearGradient>
<linearGradient id="glass" x1="0" y1="0" x2="1" y2="0"><stop stop-color="#bfd0c8" stop-opacity=".45"/><stop offset=".2" stop-color="#fffef6" stop-opacity=".8"/><stop offset=".5" stop-color="#e5eadb" stop-opacity=".1"/><stop offset=".83" stop-color="#cad5c6" stop-opacity=".35"/><stop offset="1" stop-color="#9dafa4" stop-opacity=".5"/></linearGradient>
<linearGradient id="fish" x1="0" y1="0" x2="0" y2="1"><stop stop-color="#536f75"/><stop offset=".4" stop-color="#9caea7"/><stop offset=".69" stop-color="#e6e1c8"/><stop offset="1" stop-color="#b0afa0"/></linearGradient>
<linearGradient id="salmon" x1="0" y1="0" x2="1" y2="1"><stop stop-color="#f6b091"/><stop offset=".5" stop-color="#dc826b"/><stop offset="1" stop-color="#b85d4f"/></linearGradient>
<linearGradient id="meat" x1="0" y1="0" x2="1" y2="1"><stop stop-color="#cc8b7e"/><stop offset=".4" stop-color="#a64f4c"/><stop offset="1" stop-color="#70393a"/></linearGradient>
<radialGradient id="roast" cx="26%" cy="20%" r="80%"><stop stop-color="#d49a60"/><stop offset=".4" stop-color="#a66c3e"/><stop offset="1" stop-color="#6c4331"/></radialGradient>
<radialGradient id="oil" cx="29%" cy="20%" r="84%"><stop stop-color="#ecd78b"/><stop offset=".57" stop-color="#b3a150"/><stop offset="1" stop-color="#74703b"/></radialGradient>
<filter id="ground" x="-60%" y="-200%" width="220%" height="500%"><feGaussianBlur stdDeviation="9"/></filter>
<filter id="soft" x="-20%" y="-20%" width="140%" height="150%"><feDropShadow dx="0" dy="5" stdDeviation="4" flood-color="#685438" flood-opacity=".13"/></filter>
<filter id="paper"><feTurbulence type="fractalNoise" baseFrequency=".69" numOctaves="2" stitchTiles="stitch"/><feColorMatrix type="saturate" values="0"/><feComponentTransfer><feFuncA type="linear" slope=".042"/></feComponentTransfer><feBlend in="SourceGraphic" mode="multiply"/></filter>
</defs>
<rect width="480" height="480" fill="#f5f1e8"/><ellipse cx="237" cy="267" rx="175" ry="163" fill="#faf6ed" opacity=".75"/><ellipse cx="239" cy="362" rx="119" ry="15" fill="#8c7b59" opacity="0.13" filter="url(#ground)"/>
<g><path d="M108 257 C110 158 321 136 371 245 L366 317 Q240 359 115 315Z" fill="url(#gold)" stroke="#a87543" stroke-width="2"/><path d="M157 214 q-20 26-17 57" fill="none" stroke="#f3dca4" stroke-width="10" stroke-linecap="round"/><path d="M154 215 q-21 27-17 53" fill="none" stroke="#b38550" stroke-width="2"/><path d="M207 214 q-20 26-17 57" fill="none" stroke="#f3dca4" stroke-width="10" stroke-linecap="round"/><path d="M204 215 q-21 27-17 53" fill="none" stroke="#b38550" stroke-width="2"/><path d="M257 214 q-20 26-17 57" fill="none" stroke="#f3dca4" stroke-width="10" stroke-linecap="round"/><path d="M254 215 q-21 27-17 53" fill="none" stroke="#b38550" stroke-width="2"/><path d="M307 214 q-20 26-17 57" fill="none" stroke="#f3dca4" stroke-width="10" stroke-linecap="round"/><path d="M304 215 q-21 27-17 53" fill="none" stroke="#b38550" stroke-width="2"/><ellipse cx="232.14" cy="278.19" rx="1.16" ry="0.89" fill="#f5dfb0" opacity="0.53"/><ellipse cx="233.13" cy="292.87" rx="0.76" ry="0.54" fill="#f5dfb0" opacity="0.53"/><ellipse cx="224.51" cy="314.94" rx="1.04" ry="0.81" fill="#f5dfb0" opacity="0.53"/><ellipse cx="175.48" cy="291.4" rx="0.78" ry="0.53" fill="#f5dfb0" opacity="0.53"/><ellipse cx="289.8" cy="281.76" rx="0.74" ry="0.74" fill="#f5dfb0" opacity="0.53"/><ellipse cx="303.27" cy="300.86" rx="1.45" ry="0.59" fill="#f5dfb0" opacity="0.53"/><ellipse cx="188.56" cy="286.51" rx="1.53" ry="0.97" fill="#f5dfb0" opacity="0.53"/><ellipse cx="302.39" cy="268.31" rx="1.19" ry="0.73" fill="#f5dfb0" opacity="0.53"/><ellipse cx="199.54" cy="279.75" rx="1.08" ry="0.76" fill="#f5dfb0" opacity="0.53"/><ellipse cx="140.09" cy="280.43" rx="0.98" ry="0.86" fill="#f5dfb0" opacity="0.53"/><ellipse cx="314.85" cy="255.09" rx="1" ry="0.84" fill="#f5dfb0" opacity="0.53"/><ellipse cx="277.96" cy="295.77" rx="1.42" ry="0.9" fill="#f5dfb0" opacity="0.53"/><ellipse cx="333.92" cy="274.73" rx="0.61" ry="0.88" fill="#f5dfb0" opacity="0.53"/><ellipse cx="219.48" cy="263.04" rx="0.63" ry="0.89" fill="#f5dfb0" opacity="0.53"/><ellipse cx="325.73" cy="261.81" rx="1.39" ry="0.53" fill="#f5dfb0" opacity="0.53"/><ellipse cx="223.03" cy="307.13" rx="1.1" ry="0.66" fill="#f5dfb0" opacity="0.53"/><ellipse cx="162.03" cy="298.7" rx="1.47" ry="0.98" fill="#f5dfb0" opacity="0.53"/><ellipse cx="177.29" cy="280.57" rx="0.69" ry="0.63" fill="#f5dfb0" opacity="0.53"/><ellipse cx="178.8" cy="276.86" rx="0.71" ry="0.57" fill="#f5dfb0" opacity="0.53"/><ellipse cx="240.6" cy="236.69" rx="1.48" ry="0.88" fill="#f5dfb0" opacity="0.53"/><ellipse cx="233.42" cy="275.01" rx="1.1" ry="0.93" fill="#f5dfb0" opacity="0.53"/><ellipse cx="174.27" cy="266.02" rx="1.55" ry="0.54" fill="#f5dfb0" opacity="0.53"/><ellipse cx="247.73" cy="295.01" rx="1.07" ry="0.59" fill="#f5dfb0" opacity="0.53"/><ellipse cx="180.79" cy="302.82" rx="1.09" ry="0.92" fill="#f5dfb0" opacity="0.53"/><ellipse cx="347.2" cy="273.48" rx="0.85" ry="0.67" fill="#f5dfb0" opacity="0.53"/><ellipse cx="293.91" cy="242.08" rx="0.95" ry="0.72" fill="#f5dfb0" opacity="0.53"/><ellipse cx="133.16" cy="275.2" rx="0.64" ry="0.71" fill="#f5dfb0" opacity="0.53"/><ellipse cx="257.19" cy="241.03" rx="1.14" ry="0.5" fill="#f5dfb0" opacity="0.53"/><ellipse cx="343.53" cy="270.86" rx="1.34" ry="1.04" fill="#f5dfb0" opacity="0.53"/><ellipse cx="192.58" cy="309.77" rx="1.14" ry="0.94" fill="#f5dfb0" opacity="0.53"/><ellipse cx="152.07" cy="256.1" rx="0.69" ry="0.84" fill="#f5dfb0" opacity="0.53"/><ellipse cx="238.28" cy="298.42" rx="0.66" ry="0.74" fill="#f5dfb0" opacity="0.53"/><ellipse cx="261.78" cy="301" rx="0.72" ry="0.85" fill="#f5dfb0" opacity="0.53"/><ellipse cx="229.53" cy="273.78" rx="0.94" ry="0.75" fill="#f5dfb0" opacity="0.53"/><ellipse cx="293.6" cy="293.69" rx="1.59" ry="0.67" fill="#f5dfb0" opacity="0.53"/><ellipse cx="164.12" cy="304.98" rx="0.78" ry="1.03" fill="#f5dfb0" opacity="0.53"/><ellipse cx="222.94" cy="292.23" rx="1.51" ry="0.93" fill="#f5dfb0" opacity="0.53"/><ellipse cx="284.03" cy="274.3" rx="0.78" ry="0.63" fill="#f5dfb0" opacity="0.53"/><ellipse cx="166.25" cy="255.71" rx="0.96" ry="1" fill="#f5dfb0" opacity="0.53"/><ellipse cx="251.58" cy="267.36" rx="1.59" ry="0.48" fill="#f5dfb0" opacity="0.53"/><ellipse cx="348" cy="266.82" rx="0.72" ry="0.61" fill="#f5dfb0" opacity="0.53"/><ellipse cx="169.83" cy="275.52" rx="1.42" ry="0.61" fill="#f5dfb0" opacity="0.53"/><ellipse cx="302.25" cy="296.96" rx="0.6" ry="0.47" fill="#f5dfb0" opacity="0.53"/><ellipse cx="239.38" cy="281.92" rx="0.92" ry="0.63" fill="#f5dfb0" opacity="0.53"/><ellipse cx="223.81" cy="309.47" rx="1.16" ry="0.53" fill="#f5dfb0" opacity="0.53"/><ellipse cx="284.9" cy="265.39" rx="1.07" ry="0.77" fill="#f5dfb0" opacity="0.53"/><ellipse cx="204.81" cy="270.63" rx="0.96" ry="0.52" fill="#f5dfb0" opacity="0.53"/><ellipse cx="287.34" cy="272.4" rx="1.55" ry="0.48" fill="#f5dfb0" opacity="0.53"/><ellipse cx="136.64" cy="285.25" rx="0.89" ry="0.86" fill="#f5dfb0" opacity="0.53"/><ellipse cx="158.31" cy="263.62" rx="1.08" ry="0.87" fill="#f5dfb0" opacity="0.53"/><ellipse cx="273.68" cy="300.43" rx="1.03" ry="0.82" fill="#f5dfb0" opacity="0.53"/><ellipse cx="268.51" cy="290.04" rx="1.27" ry="0.78" fill="#f5dfb0" opacity="0.53"/><ellipse cx="329.75" cy="284.53" rx="0.93" ry="0.82" fill="#f5dfb0" opacity="0.53"/><ellipse cx="218.4" cy="255.09" rx="1.43" ry="0.51" fill="#f5dfb0" opacity="0.53"/><ellipse cx="225.87" cy="243.5" rx="1.03" ry="0.9" fill="#f5dfb0" opacity="0.53"/><ellipse cx="231.81" cy="265.35" rx="0.98" ry="0.46" fill="#f5dfb0" opacity="0.53"/><ellipse cx="196.62" cy="281.07" rx="1.57" ry="0.68" fill="#f5dfb0" opacity="0.53"/><ellipse cx="274.35" cy="292.26" rx="0.66" ry="0.98" fill="#f5dfb0" opacity="0.53"/><ellipse cx="340.67" cy="282.83" rx="0.75" ry="1.04" fill="#f5dfb0" opacity="0.53"/><ellipse cx="304.26" cy="255.11" rx="1.24" ry="0.79" fill="#f5dfb0" opacity="0.53"/><ellipse cx="201.92" cy="312.13" rx="0.67" ry="1.07" fill="#f5dfb0" opacity="0.53"/><ellipse cx="308.26" cy="294.21" rx="0.65" ry="0.84" fill="#f5dfb0" opacity="0.53"/><ellipse cx="203.25" cy="291.25" rx="0.75" ry="0.93" fill="#f5dfb0" opacity="0.53"/><ellipse cx="244.28" cy="305.56" rx="1.48" ry="0.95" fill="#f5dfb0" opacity="0.53"/><ellipse cx="192.34" cy="304.68" rx="0.7" ry="0.74" fill="#f5dfb0" opacity="0.53"/><ellipse cx="271.83" cy="300.8" rx="0.81" ry="0.43" fill="#f5dfb0" opacity="0.53"/><ellipse cx="209.87" cy="275.65" rx="1.46" ry="0.67" fill="#f5dfb0" opacity="0.53"/><ellipse cx="241.56" cy="247.61" rx="1.08" ry="0.59" fill="#f5dfb0" opacity="0.53"/><ellipse cx="225.21" cy="293.2" rx="1.13" ry="1.01" fill="#f5dfb0" opacity="0.53"/><ellipse cx="280.54" cy="256.26" rx="0.92" ry="0.52" fill="#f5dfb0" opacity="0.53"/><ellipse cx="316.46" cy="278.3" rx="0.76" ry="0.49" fill="#f5dfb0" opacity="0.53"/><ellipse cx="279.72" cy="260.55" rx="0.92" ry="0.45" fill="#f5dfb0" opacity="0.53"/><ellipse cx="243.64" cy="236.61" rx="1.05" ry="0.41" fill="#f5dfb0" opacity="0.53"/><ellipse cx="304.66" cy="300.09" rx="0.87" ry="0.93" fill="#f5dfb0" opacity="0.53"/><ellipse cx="160.11" cy="250.43" rx="1.03" ry="0.59" fill="#f5dfb0" opacity="0.53"/><ellipse cx="173.87" cy="244.62" rx="1.44" ry="0.89" fill="#f5dfb0" opacity="0.53"/><ellipse cx="144.67" cy="262.04" rx="1.06" ry="1.06" fill="#f5dfb0" opacity="0.53"/><ellipse cx="167.34" cy="282.7" rx="1.51" ry="0.98" fill="#f5dfb0" opacity="0.53"/><ellipse cx="176.77" cy="279.89" rx="1.06" ry="0.63" fill="#f5dfb0" opacity="0.53"/><ellipse cx="267.98" cy="240.38" rx="1.48" ry="0.63" fill="#f5dfb0" opacity="0.53"/><ellipse cx="228.01" cy="238.92" rx="0.64" ry="0.79" fill="#f5dfb0" opacity="0.53"/><ellipse cx="193.89" cy="285.62" rx="1.04" ry="0.65" fill="#f5dfb0" opacity="0.53"/><ellipse cx="210.58" cy="282.02" rx="0.92" ry="1.01" fill="#f5dfb0" opacity="0.53"/><ellipse cx="341.3" cy="263.32" rx="1.31" ry="0.98" fill="#f5dfb0" opacity="0.53"/><ellipse cx="209.54" cy="248.78" rx="1" ry="0.78" fill="#f5dfb0" opacity="0.53"/><ellipse cx="186.67" cy="294.56" rx="0.96" ry="0.44" fill="#f5dfb0" opacity="0.53"/><ellipse cx="184.36" cy="241.79" rx="0.67" ry="0.7" fill="#f5dfb0" opacity="0.53"/><ellipse cx="243.16" cy="294.78" rx="0.7" ry="0.62" fill="#f5dfb0" opacity="0.53"/><ellipse cx="133.06" cy="280.64" rx="1.05" ry="0.62" fill="#f5dfb0" opacity="0.53"/><ellipse cx="150.3" cy="295.03" rx="0.67" ry="0.62" fill="#f5dfb0" opacity="0.53"/><ellipse cx="271.74" cy="288.5" rx="0.73" ry="0.45" fill="#f5dfb0" opacity="0.53"/><ellipse cx="213.16" cy="263.49" rx="1.55" ry="0.72" fill="#f5dfb0" opacity="0.53"/><ellipse cx="222.41" cy="311.57" rx="1.55" ry="0.93" fill="#f5dfb0" opacity="0.53"/><ellipse cx="304.09" cy="300.42" rx="1.13" ry="0.76" fill="#f5dfb0" opacity="0.53"/><ellipse cx="284.67" cy="276.09" rx="1.21" ry="0.55" fill="#f5dfb0" opacity="0.53"/><ellipse cx="306.11" cy="279.66" rx="1.25" ry="0.52" fill="#f5dfb0" opacity="0.53"/><ellipse cx="138.22" cy="265.49" rx="1.11" ry="0.9" fill="#f5dfb0" opacity="0.53"/><ellipse cx="326.7" cy="279.93" rx="1.45" ry="0.82" fill="#f5dfb0" opacity="0.53"/><ellipse cx="183.11" cy="293.57" rx="0.82" ry="0.54" fill="#f5dfb0" opacity="0.53"/><ellipse cx="133.83" cy="278.94" rx="0.76" ry="0.56" fill="#f5dfb0" opacity="0.53"/><ellipse cx="276.22" cy="278.36" rx="0.83" ry="0.54" fill="#f5dfb0" opacity="0.53"/><ellipse cx="258.54" cy="312.06" rx="0.64" ry="0.63" fill="#f5dfb0" opacity="0.53"/><ellipse cx="297.81" cy="250.82" rx="1.39" ry="0.82" fill="#f5dfb0" opacity="0.53"/><ellipse cx="260.72" cy="299.46" rx="1.23" ry="0.78" fill="#f5dfb0" opacity="0.53"/><ellipse cx="220.34" cy="284.15" rx="0.93" ry="0.59" fill="#f5dfb0" opacity="0.53"/><ellipse cx="263.96" cy="249.08" rx="0.95" ry="0.54" fill="#f5dfb0" opacity="0.53"/><ellipse cx="188.66" cy="252.63" rx="0.98" ry="0.57" fill="#f5dfb0" opacity="0.53"/><ellipse cx="226.97" cy="260.84" rx="1.17" ry="1.01" fill="#f5dfb0" opacity="0.53"/><ellipse cx="197.71" cy="286.22" rx="1.05" ry="0.76" fill="#f5dfb0" opacity="0.53"/><ellipse cx="201.17" cy="267.69" rx="1.1" ry="0.58" fill="#f5dfb0" opacity="0.53"/><ellipse cx="259.45" cy="240.63" rx="1.41" ry="0.6" fill="#f5dfb0" opacity="0.53"/><ellipse cx="335.62" cy="258.95" rx="0.78" ry="0.7" fill="#f5dfb0" opacity="0.53"/><ellipse cx="319.5" cy="260.03" rx="1.46" ry="0.94" fill="#f5dfb0" opacity="0.53"/><ellipse cx="185.06" cy="264.32" rx="1.18" ry="0.57" fill="#f5dfb0" opacity="0.53"/><ellipse cx="272.58" cy="259.67" rx="1.1" ry="1.01" fill="#f5dfb0" opacity="0.53"/><ellipse cx="172.03" cy="297.98" rx="1.4" ry="0.48" fill="#f5dfb0" opacity="0.53"/><ellipse cx="163.81" cy="261.75" rx="0.81" ry="1.02" fill="#f5dfb0" opacity="0.53"/><ellipse cx="173.21" cy="257.44" rx="1.28" ry="0.84" fill="#f5dfb0" opacity="0.53"/><ellipse cx="183.99" cy="305.39" rx="1.28" ry="0.88" fill="#f5dfb0" opacity="0.53"/><ellipse cx="227.44" cy="253.68" rx="0.82" ry="0.61" fill="#f5dfb0" opacity="0.53"/><ellipse cx="218.65" cy="298.81" rx="1.1" ry="0.92" fill="#f5dfb0" opacity="0.53"/><ellipse cx="185.04" cy="310.4" rx="1.31" ry="0.55" fill="#f5dfb0" opacity="0.53"/><ellipse cx="179" cy="305.23" rx="0.66" ry="0.98" fill="#f5dfb0" opacity="0.53"/><ellipse cx="285.3" cy="242.64" rx="0.9" ry="1.05" fill="#f5dfb0" opacity="0.53"/><ellipse cx="309.1" cy="269.95" rx="1.46" ry="0.74" fill="#f5dfb0" opacity="0.53"/><ellipse cx="334.79" cy="294.76" rx="1.44" ry="0.91" fill="#f5dfb0" opacity="0.53"/><ellipse cx="158.47" cy="251.88" rx="0.61" ry="0.5" fill="#f5dfb0" opacity="0.53"/><ellipse cx="265.57" cy="305.56" rx="1.05" ry="0.9" fill="#f5dfb0" opacity="0.53"/><ellipse cx="152.38" cy="257.41" rx="1.23" ry="0.41" fill="#f5dfb0" opacity="0.53"/><ellipse cx="158.65" cy="265.56" rx="0.73" ry="0.94" fill="#f5dfb0" opacity="0.53"/><ellipse cx="267.5" cy="257.59" rx="1.4" ry="0.75" fill="#f5dfb0" opacity="0.53"/><ellipse cx="214.06" cy="262.03" rx="0.74" ry="0.52" fill="#f5dfb0" opacity="0.53"/><ellipse cx="172.23" cy="292.31" rx="0.74" ry="0.86" fill="#f5dfb0" opacity="0.53"/><ellipse cx="148.65" cy="275.21" rx="1.21" ry="0.99" fill="#f5dfb0" opacity="0.53"/><ellipse cx="297.85" cy="255.47" rx="1.29" ry="0.47" fill="#f5dfb0" opacity="0.53"/><ellipse cx="200.82" cy="281.9" rx="0.73" ry="0.45" fill="#f5dfb0" opacity="0.53"/><ellipse cx="163.53" cy="286.4" rx="1.38" ry="0.79" fill="#f5dfb0" opacity="0.53"/><ellipse cx="249.96" cy="271.09" rx="0.75" ry="0.51" fill="#f5dfb0" opacity="0.53"/><ellipse cx="202.49" cy="311.55" rx="1.12" ry="0.62" fill="#f5dfb0" opacity="0.53"/><ellipse cx="171.1" cy="302.6" rx="1.17" ry="0.46" fill="#f5dfb0" opacity="0.53"/></g><rect width="480" height="480" fill="#968265" filter="url(#paper)" opacity=".023" pointer-events="none"/>
</svg>