<svg xmlns="http://www.w3.org/2000/svg" width="480" height="480" viewBox="0 0 480 480" role="img" aria-labelledby="title desc">
<title id="title">野蓝莓果酱 · 风格化食材插画</title><desc id="desc">原创本地矢量插画。以目录食材名称选择形态，图片不代表原书照片、实测成分或精确品种鉴定。</desc>
<metadata>{&quot;id&quot;:&quot;ing-0059646ab7fc&quot;,&quot;rawName&quot;:&quot;野藍莓果醬&quot;,&quot;displayName&quot;:&quot;野蓝莓果酱&quot;,&quot;status&quot;:&quot;illustrated&quot;,&quot;motif&quot;:&quot;bowl&quot;,&quot;style&quot;:&quot;original_native_svg_editorial_botanical_v1&quot;,&quot;source&quot;:&quot;Original procedural SVG drawing, created locally; no external images.&quot;,&quot;identityBasis&quot;:&quot;catalog displayName; nameNeedsReview gates identifiable food depictions&quot;,&quot;isPhotograph&quot;:false,&quot;isSensoryMeasurement&quot;:false,&quot;cultivarExactness&quot;:&quot;stylized representation; not verified botanical reference&quot;,&quot;preparationHints&quot;:[]}</metadata><defs>
<radialGradient id="red" cx="30%" cy="21%" r="83%"><stop stop-color="#f68667"/><stop offset=".39" stop-color="#d84937"/><stop offset=".83" stop-color="#ae2d2b"/><stop offset="1" stop-color="#7c272c"/></radialGradient>
<radialGradient id="berry" cx="30%" cy="23%" r="80%"><stop stop-color="#a4abc5"/><stop offset=".4" stop-color="#68738f"/><stop offset=".82" stop-color="#42475e"/><stop offset="1" stop-color="#282e45"/></radialGradient>
<radialGradient id="purple" cx="25%" cy="20%" r="87%"><stop stop-color="#b690ad"/><stop offset=".45" stop-color="#755273"/><stop offset="1" stop-color="#3e334c"/></radialGradient>
<linearGradient id="leaf" x1="0" y1="0" x2="1" y2=".65"><stop stop-color="#9aaa66"/><stop offset=".43" stop-color="#6f864e"/><stop offset="1" stop-color="#3f6449"/></linearGradient>
<radialGradient id="green" cx="28%" cy="25%" r="84%"><stop stop-color="#c6cb6d"/><stop offset=".42" stop-color="#94ad58"/><stop offset="1" stop-color="#527846"/></radialGradient>
<radialGradient id="gold" cx="26%" cy="20%" r="89%"><stop stop-color="#f9d991"/><stop offset=".52" stop-color="#dea94e"/><stop offset="1" stop-color="#a86632"/></radialGradient>
<radialGradient id="orange" cx="29%" cy="20%" r="87%"><stop stop-color="#ffd795"/><stop offset=".4" stop-color="#edab55"/><stop offset="1" stop-color="#ce7341"/></radialGradient>
<radialGradient id="brown" cx="26%" cy="23%" r="80%"><stop stop-color="#c6976c"/><stop offset=".45" stop-color="#946948"/><stop offset="1" stop-color="#624633"/></radialGradient>
<radialGradient id="cream" cx="26%" cy="18%" r="87%"><stop stop-color="#fffdf1"/><stop offset=".5" stop-color="#ece3c5"/><stop offset="1" stop-color="#c4b28d"/></radialGradient>
<linearGradient id="milk" x1="0" y1="0" x2="1" y2=".3"><stop stop-color="#e2dbca"/><stop offset=".3" stop-color="#fffdf2"/><stop offset=".74" stop-color="#f7f2e4"/><stop offset="1" stop-color="#d9d1bf"/></linearGradient>
<linearGradient id="glass" x1="0" y1="0" x2="1" y2="0"><stop stop-color="#bfd0c8" stop-opacity=".45"/><stop offset=".2" stop-color="#fffef6" stop-opacity=".8"/><stop offset=".5" stop-color="#e5eadb" stop-opacity=".1"/><stop offset=".83" stop-color="#cad5c6" stop-opacity=".35"/><stop offset="1" stop-color="#9dafa4" stop-opacity=".5"/></linearGradient>
<linearGradient id="fish" x1="0" y1="0" x2="0" y2="1"><stop stop-color="#536f75"/><stop offset=".4" stop-color="#9caea7"/><stop offset=".69" stop-color="#e6e1c8"/><stop offset="1" stop-color="#b0afa0"/></linearGradient>
<linearGradient id="salmon" x1="0" y1="0" x2="1" y2="1"><stop stop-color="#f6b091"/><stop offset=".5" stop-color="#dc826b"/><stop offset="1" stop-color="#b85d4f"/></linearGradient>
<linearGradient id="meat" x1="0" y1="0" x2="1" y2="1"><stop stop-color="#cc8b7e"/><stop offset=".4" stop-color="#a64f4c"/><stop offset="1" stop-color="#70393a"/></linearGradient>
<radialGradient id="roast" cx="26%" cy="20%" r="80%"><stop stop-color="#d49a60"/><stop offset=".4" stop-color="#a66c3e"/><stop offset="1" stop-color="#6c4331"/></radialGradient>
<radialGradient id="oil" cx="29%" cy="20%" r="84%"><stop stop-color="#ecd78b"/><stop offset=".57" stop-color="#b3a150"/><stop offset="1" stop-color="#74703b"/></radialGradient>
<filter id="ground" x="-60%" y="-200%" width="220%" height="500%"><feGaussianBlur stdDeviation="9"/></filter>
<filter id="soft" x="-20%" y="-20%" width="140%" height="150%"><feDropShadow dx="0" dy="5" stdDeviation="4" flood-color="#685438" flood-opacity=".13"/></filter>
<filter id="paper"><feTurbulence type="fractalNoise" baseFrequency=".69" numOctaves="2" stitchTiles="stitch"/><feColorMatrix type="saturate" values="0"/><feComponentTransfer><feFuncA type="linear" slope=".042"/></feComponentTransfer><feBlend in="SourceGraphic" mode="multiply"/></filter>
</defs>
<rect width="480" height="480" fill="#f5f1e8"/><ellipse cx="237" cy="267" rx="175" ry="163" fill="#faf6ed" opacity=".75"/><ellipse cx="239" cy="362" rx="119" ry="15" fill="#8c7b59" opacity="0.13" filter="url(#ground)"/>
<g><ellipse cx="238" cy="336" rx="113" ry="24" fill="#b8ab92" opacity="0.4"/><path d="M107 234 C115 384 360 386 372 234Z" fill="#ded6c3" stroke="#bdb49d" stroke-width="1"/><ellipse cx="239" cy="235" rx="132" ry="62" fill="#f7efdb" stroke="#c7bca1" stroke-width="2"/><ellipse cx="239" cy="234" rx="117" ry="49" fill="#b08c59"/><path d="M151 231 Q207 190 307 225 Q337 246 255 263" fill="none" stroke="#dcc396" stroke-width="4" stroke-linecap="round" opacity="0.32"/><ellipse cx="228.49" cy="200.49" rx="0.64" ry="0.35" fill="#6d5c3e" opacity="0.2"/><ellipse cx="274.07" cy="262.15" rx="1.4" ry="0.43" fill="#6d5c3e" opacity="0.2"/><ellipse cx="202.93" cy="231.56" rx="1.24" ry="0.39" fill="#6d5c3e" opacity="0.2"/><ellipse cx="179.02" cy="252.45" rx="0.89" ry="0.86" fill="#6d5c3e" opacity="0.2"/><ellipse cx="262.19" cy="268.95" rx="1.22" ry="0.77" fill="#6d5c3e" opacity="0.2"/><ellipse cx="272.06" cy="258.74" rx="0.88" ry="0.49" fill="#6d5c3e" opacity="0.2"/><ellipse cx="219.46" cy="212.82" rx="0.76" ry="0.46" fill="#6d5c3e" opacity="0.2"/><ellipse cx="160.89" cy="213.9" rx="0.65" ry="0.75" fill="#6d5c3e" opacity="0.2"/><ellipse cx="283.05" cy="203.09" rx="1.18" ry="0.7" fill="#6d5c3e" opacity="0.2"/><ellipse cx="200.66" cy="236.89" rx="1.26" ry="0.35" fill="#6d5c3e" opacity="0.2"/><ellipse cx="260.55" cy="223.15" rx="0.95" ry="0.75" fill="#6d5c3e" opacity="0.2"/><ellipse cx="317.78" cy="247.87" rx="1.36" ry="0.53" fill="#6d5c3e" opacity="0.2"/><ellipse cx="265.83" cy="230.66" rx="0.94" ry="0.38" fill="#6d5c3e" opacity="0.2"/><ellipse cx="269.42" cy="219.23" rx="1.2" ry="0.54" fill="#6d5c3e" opacity="0.2"/><ellipse cx="241.03" cy="236.58" rx="1.11" ry="0.6" fill="#6d5c3e" opacity="0.2"/><ellipse cx="233.34" cy="210.99" rx="0.75" ry="0.89" fill="#6d5c3e" opacity="0.2"/><ellipse cx="293.68" cy="214.66" rx="0.76" ry="0.74" fill="#6d5c3e" opacity="0.2"/><ellipse cx="268.28" cy="265.35" rx="1.19" ry="0.65" fill="#6d5c3e" opacity="0.2"/><ellipse cx="210.2" cy="213.32" rx="1.28" ry="0.95" fill="#6d5c3e" opacity="0.2"/><ellipse cx="202.15" cy="251.07" rx="1.29" ry="0.48" fill="#6d5c3e" opacity="0.2"/><ellipse cx="136.12" cy="227.57" rx="1.02" ry="0.75" fill="#6d5c3e" opacity="0.2"/><ellipse cx="175.39" cy="235.99" rx="0.85" ry="0.69" fill="#6d5c3e" opacity="0.2"/><ellipse cx="193" cy="220.2" rx="0.51" ry="0.45" fill="#6d5c3e" opacity="0.2"/><ellipse cx="227.11" cy="264.52" rx="0.56" ry="0.7" fill="#6d5c3e" opacity="0.2"/><ellipse cx="225.08" cy="225.63" rx="1.1" ry="0.93" fill="#6d5c3e" opacity="0.2"/><ellipse cx="209.66" cy="268.5" rx="1" ry="0.62" fill="#6d5c3e" opacity="0.2"/><ellipse cx="284.03" cy="223.63" rx="1.1" ry="0.52" fill="#6d5c3e" opacity="0.2"/><ellipse cx="252.1" cy="241" rx="1.03" ry="0.74" fill="#6d5c3e" opacity="0.2"/><ellipse cx="270.06" cy="220.95" rx="1.32" ry="0.66" fill="#6d5c3e" opacity="0.2"/><ellipse cx="171.97" cy="223.55" rx="0.91" ry="0.38" fill="#6d5c3e" opacity="0.2"/><ellipse cx="283" cy="207.94" rx="0.6" ry="0.73" fill="#6d5c3e" opacity="0.2"/><ellipse cx="218.14" cy="237.8" rx="0.86" ry="0.48" fill="#6d5c3e" opacity="0.2"/><ellipse cx="283.77" cy="203.21" rx="1.39" ry="0.58" fill="#6d5c3e" opacity="0.2"/><ellipse cx="284.91" cy="213.68" rx="0.81" ry="0.59" fill="#6d5c3e" opacity="0.2"/><ellipse cx="310.53" cy="223.97" rx="1.01" ry="0.6" fill="#6d5c3e" opacity="0.2"/><ellipse cx="199.65" cy="214.1" rx="0.67" ry="0.74" fill="#6d5c3e" opacity="0.2"/><ellipse cx="222.56" cy="238.25" rx="0.51" ry="0.63" fill="#6d5c3e" opacity="0.2"/><ellipse cx="205.78" cy="214.53" rx="0.79" ry="0.86" fill="#6d5c3e" opacity="0.2"/><ellipse cx="136.11" cy="232.69" rx="0.96" ry="0.76" fill="#6d5c3e" opacity="0.2"/><ellipse cx="261.89" cy="219.12" rx="0.86" ry="0.79" fill="#6d5c3e" opacity="0.2"/><ellipse cx="297.02" cy="255.08" rx="1.31" ry="0.68" fill="#6d5c3e" opacity="0.2"/><ellipse cx="228.91" cy="264.78" rx="0.95" ry="0.37" fill="#6d5c3e" opacity="0.2"/><ellipse cx="320.94" cy="236.62" rx="0.83" ry="0.49" fill="#6d5c3e" opacity="0.2"/><ellipse cx="280.03" cy="212.75" rx="1.32" ry="0.72" fill="#6d5c3e" opacity="0.2"/><ellipse cx="247.64" cy="209.15" rx="1.19" ry="0.77" fill="#6d5c3e" opacity="0.2"/><ellipse cx="204.41" cy="207.92" rx="0.55" ry="0.56" fill="#6d5c3e" opacity="0.2"/><ellipse cx="206.46" cy="248.69" rx="1.33" ry="0.5" fill="#6d5c3e" opacity="0.2"/><ellipse cx="219.79" cy="204.05" rx="1.09" ry="0.71" fill="#6d5c3e" opacity="0.2"/><ellipse cx="278.38" cy="223.08" rx="1.31" ry="0.62" fill="#6d5c3e" opacity="0.2"/><ellipse cx="195.34" cy="270.31" rx="1.03" ry="0.66" fill="#6d5c3e" opacity="0.2"/><ellipse cx="218.46" cy="242.11" rx="1.33" ry="0.86" fill="#6d5c3e" opacity="0.2"/><ellipse cx="178.06" cy="207.38" rx="0.6" ry="0.57" fill="#6d5c3e" opacity="0.2"/><ellipse cx="266.26" cy="229.85" rx="1.12" ry="0.47" fill="#6d5c3e" opacity="0.2"/><ellipse cx="210.13" cy="251.99" rx="0.69" ry="0.72" fill="#6d5c3e" opacity="0.2"/><ellipse cx="233.7" cy="218.76" rx="0.87" ry="0.76" fill="#6d5c3e" opacity="0.2"/><ellipse cx="205.38" cy="208.24" rx="0.51" ry="0.83" fill="#6d5c3e" opacity="0.2"/><ellipse cx="239.39" cy="246.98" rx="1.37" ry="0.85" fill="#6d5c3e" opacity="0.2"/><ellipse cx="145.43" cy="236.22" rx="1.2" ry="0.51" fill="#6d5c3e" opacity="0.2"/><ellipse cx="233.65" cy="220.84" rx="1.05" ry="0.95" fill="#6d5c3e" opacity="0.2"/><ellipse cx="235.25" cy="232.49" rx="0.63" ry="0.43" fill="#6d5c3e" opacity="0.2"/><ellipse cx="161.9" cy="251.43" rx="0.76" ry="0.91" fill="#6d5c3e" opacity="0.2"/><ellipse cx="307" cy="211.93" rx="0.87" ry="0.53" fill="#6d5c3e" opacity="0.2"/><ellipse cx="253.1" cy="256.03" rx="0.96" ry="0.89" fill="#6d5c3e" opacity="0.2"/><ellipse cx="319.67" cy="216.68" rx="1.32" ry="0.39" fill="#6d5c3e" opacity="0.2"/><ellipse cx="288.92" cy="265.89" rx="1.15" ry="0.63" fill="#6d5c3e" opacity="0.2"/><ellipse cx="162.26" cy="217.95" rx="1.37" ry="0.58" fill="#6d5c3e" opacity="0.2"/><ellipse cx="319.05" cy="210.93" rx="0.95" ry="0.46" fill="#6d5c3e" opacity="0.2"/><ellipse cx="215.32" cy="271.77" rx="0.92" ry="0.89" fill="#6d5c3e" opacity="0.2"/><ellipse cx="206" cy="213.98" rx="0.55" ry="0.55" fill="#6d5c3e" opacity="0.2"/><ellipse cx="200.6" cy="267.65" rx="1.13" ry="0.51" fill="#6d5c3e" opacity="0.2"/><ellipse cx="210.9" cy="264.78" rx="1.06" ry="0.5" fill="#6d5c3e" opacity="0.2"/><ellipse cx="317.13" cy="245.67" rx="1.13" ry="0.79" fill="#6d5c3e" opacity="0.2"/><ellipse cx="267.6" cy="256.38" rx="0.54" ry="0.88" fill="#6d5c3e" opacity="0.2"/><ellipse cx="311.02" cy="218.55" rx="0.87" ry="0.83" fill="#6d5c3e" opacity="0.2"/><ellipse cx="216.26" cy="219.92" rx="0.7" ry="0.45" fill="#6d5c3e" opacity="0.2"/></g><rect width="480" height="480" fill="#968265" filter="url(#paper)" opacity=".023" pointer-events="none"/>
</svg>