<svg xmlns="http://www.w3.org/2000/svg" width="480" height="480" viewBox="0 0 480 480" role="img" aria-labelledby="title desc">
<title id="title">印度长胡椒 · 风格化食材插画</title><desc id="desc">原创本地矢量插画。以目录食材名称选择形态，图片不代表原书照片、实测成分或精确品种鉴定。</desc>
<metadata>{&quot;id&quot;:&quot;ing-89a49c1c2287&quot;,&quot;rawName&quot;:&quot;印度長胡椒&quot;,&quot;displayName&quot;:&quot;印度长胡椒&quot;,&quot;status&quot;:&quot;illustrated&quot;,&quot;motif&quot;:&quot;spice&quot;,&quot;style&quot;:&quot;original_native_svg_editorial_botanical_v1&quot;,&quot;source&quot;:&quot;Original procedural SVG drawing, created locally; no external images.&quot;,&quot;identityBasis&quot;:&quot;catalog displayName; nameNeedsReview gates identifiable food depictions&quot;,&quot;isPhotograph&quot;:false,&quot;isSensoryMeasurement&quot;:false,&quot;cultivarExactness&quot;:&quot;stylized representation; not verified botanical reference&quot;,&quot;preparationHints&quot;:[]}</metadata><defs>
<radialGradient id="red" cx="30%" cy="21%" r="83%"><stop stop-color="#f68667"/><stop offset=".39" stop-color="#d84937"/><stop offset=".83" stop-color="#ae2d2b"/><stop offset="1" stop-color="#7c272c"/></radialGradient>
<radialGradient id="berry" cx="30%" cy="23%" r="80%"><stop stop-color="#a4abc5"/><stop offset=".4" stop-color="#68738f"/><stop offset=".82" stop-color="#42475e"/><stop offset="1" stop-color="#282e45"/></radialGradient>
<radialGradient id="purple" cx="25%" cy="20%" r="87%"><stop stop-color="#b690ad"/><stop offset=".45" stop-color="#755273"/><stop offset="1" stop-color="#3e334c"/></radialGradient>
<linearGradient id="leaf" x1="0" y1="0" x2="1" y2=".65"><stop stop-color="#9aaa66"/><stop offset=".43" stop-color="#6f864e"/><stop offset="1" stop-color="#3f6449"/></linearGradient>
<radialGradient id="green" cx="28%" cy="25%" r="84%"><stop stop-color="#c6cb6d"/><stop offset=".42" stop-color="#94ad58"/><stop offset="1" stop-color="#527846"/></radialGradient>
<radialGradient id="gold" cx="26%" cy="20%" r="89%"><stop stop-color="#f9d991"/><stop offset=".52" stop-color="#dea94e"/><stop offset="1" stop-color="#a86632"/></radialGradient>
<radialGradient id="orange" cx="29%" cy="20%" r="87%"><stop stop-color="#ffd795"/><stop offset=".4" stop-color="#edab55"/><stop offset="1" stop-color="#ce7341"/></radialGradient>
<radialGradient id="brown" cx="26%" cy="23%" r="80%"><stop stop-color="#c6976c"/><stop offset=".45" stop-color="#946948"/><stop offset="1" stop-color="#624633"/></radialGradient>
<radialGradient id="cream" cx="26%" cy="18%" r="87%"><stop stop-color="#fffdf1"/><stop offset=".5" stop-color="#ece3c5"/><stop offset="1" stop-color="#c4b28d"/></radialGradient>
<linearGradient id="milk" x1="0" y1="0" x2="1" y2=".3"><stop stop-color="#e2dbca"/><stop offset=".3" stop-color="#fffdf2"/><stop offset=".74" stop-color="#f7f2e4"/><stop offset="1" stop-color="#d9d1bf"/></linearGradient>
<linearGradient id="glass" x1="0" y1="0" x2="1" y2="0"><stop stop-color="#bfd0c8" stop-opacity=".45"/><stop offset=".2" stop-color="#fffef6" stop-opacity=".8"/><stop offset=".5" stop-color="#e5eadb" stop-opacity=".1"/><stop offset=".83" stop-color="#cad5c6" stop-opacity=".35"/><stop offset="1" stop-color="#9dafa4" stop-opacity=".5"/></linearGradient>
<linearGradient id="fish" x1="0" y1="0" x2="0" y2="1"><stop stop-color="#536f75"/><stop offset=".4" stop-color="#9caea7"/><stop offset=".69" stop-color="#e6e1c8"/><stop offset="1" stop-color="#b0afa0"/></linearGradient>
<linearGradient id="salmon" x1="0" y1="0" x2="1" y2="1"><stop stop-color="#f6b091"/><stop offset=".5" stop-color="#dc826b"/><stop offset="1" stop-color="#b85d4f"/></linearGradient>
<linearGradient id="meat" x1="0" y1="0" x2="1" y2="1"><stop stop-color="#cc8b7e"/><stop offset=".4" stop-color="#a64f4c"/><stop offset="1" stop-color="#70393a"/></linearGradient>
<radialGradient id="roast" cx="26%" cy="20%" r="80%"><stop stop-color="#d49a60"/><stop offset=".4" stop-color="#a66c3e"/><stop offset="1" stop-color="#6c4331"/></radialGradient>
<radialGradient id="oil" cx="29%" cy="20%" r="84%"><stop stop-color="#ecd78b"/><stop offset=".57" stop-color="#b3a150"/><stop offset="1" stop-color="#74703b"/></radialGradient>
<filter id="ground" x="-60%" y="-200%" width="220%" height="500%"><feGaussianBlur stdDeviation="9"/></filter>
<filter id="soft" x="-20%" y="-20%" width="140%" height="150%"><feDropShadow dx="0" dy="5" stdDeviation="4" flood-color="#685438" flood-opacity=".13"/></filter>
<filter id="paper"><feTurbulence type="fractalNoise" baseFrequency=".69" numOctaves="2" stitchTiles="stitch"/><feColorMatrix type="saturate" values="0"/><feComponentTransfer><feFuncA type="linear" slope=".042"/></feComponentTransfer><feBlend in="SourceGraphic" mode="multiply"/></filter>
</defs>
<rect width="480" height="480" fill="#f5f1e8"/><ellipse cx="237" cy="267" rx="175" ry="163" fill="#faf6ed" opacity=".75"/><ellipse cx="239" cy="362" rx="119" ry="15" fill="#8c7b59" opacity="0.13" filter="url(#ground)"/>
<g><circle cx="280.85" cy="235.85" r="9.71" fill="#565044" stroke="#8c7c60" stroke-width="0.7"/><path d="M276.4819886569213 231.47948340419677 q4.852781739881971 -3.882225391905577 9.705563479763942 0" fill="none" stroke="#c4b69a" stroke-width="1" opacity="0.3"/><circle cx="196.96" cy="281.25" r="10.92" fill="#565044" stroke="#8c7c60" stroke-width="0.7"/><path d="M192.0495345276798 276.3366846794239 q5.458366470451814 -4.366693176361451 10.916732940903628 0" fill="none" stroke="#c4b69a" stroke-width="1" opacity="0.3"/><circle cx="277.78" cy="201.91" r="6.95" fill="#565044" stroke="#8c7c60" stroke-width="0.7"/><path d="M274.6572146854719 198.78200987306437 q3.473915850988415 -2.7791326807907324 6.94783170197683 0" fill="none" stroke="#c4b69a" stroke-width="1" opacity="0.3"/><circle cx="177.78" cy="323.51" r="7.67" fill="#565044" stroke="#8c7c60" stroke-width="0.7"/><path d="M174.32686047407398 320.0562828357211 q3.8346868763822615 -3.0677495011058094 7.669373752764523 0" fill="none" stroke="#c4b69a" stroke-width="1" opacity="0.3"/><circle cx="197.66" cy="266.56" r="8.5" fill="#565044" stroke="#8c7c60" stroke-width="0.7"/><path d="M193.83343654872715 262.73430931416834 q4.251609567896583 -3.401287654317267 8.503219135793167 0" fill="none" stroke="#c4b69a" stroke-width="1" opacity="0.3"/><circle cx="228.16" cy="274.25" r="6.47" fill="#565044" stroke="#8c7c60" stroke-width="0.7"/><path d="M225.25100945918862 271.337614540356 q3.232960526961592 -2.586368421569274 6.465921053923184 0" fill="none" stroke="#c4b69a" stroke-width="1" opacity="0.3"/><circle cx="205.31" cy="195.12" r="9.51" fill="#565044" stroke="#8c7c60" stroke-width="0.7"/><path d="M201.0300894808525 190.83800081813382 q4.75624175889103 -3.8049934071128244 9.51248351778206 0" fill="none" stroke="#c4b69a" stroke-width="1" opacity="0.3"/><circle cx="151.98" cy="309.75" r="9.51" fill="#565044" stroke="#8c7c60" stroke-width="0.7"/><path d="M147.70262536620046 305.46832963676826 q4.755223487706007 -3.804178790164806 9.510446975412014 0" fill="none" stroke="#c4b69a" stroke-width="1" opacity="0.3"/><circle cx="192.09" cy="229.45" r="10.27" fill="#565044" stroke="#8c7c60" stroke-width="0.7"/><path d="M187.46528617241086 224.83031135987844 q5.134478109905535 -4.107582487924428 10.26895621981107 0" fill="none" stroke="#c4b69a" stroke-width="1" opacity="0.3"/><circle cx="339.89" cy="246.38" r="7.86" fill="#565044" stroke="#8c7c60" stroke-width="0.7"/><path d="M336.3523171103643 242.84069604660874 q3.930124581477405 -3.1440996651819244 7.86024916295481 0" fill="none" stroke="#c4b69a" stroke-width="1" opacity="0.3"/><circle cx="163.3" cy="312.24" r="6.93" fill="#565044" stroke="#8c7c60" stroke-width="0.7"/><path d="M160.1791711078091 309.1239648544207 q3.4654019711578323 -2.772321576926266 6.930803942315665 0" fill="none" stroke="#c4b69a" stroke-width="1" opacity="0.3"/><circle cx="150.28" cy="214.62" r="6.81" fill="#565044" stroke="#8c7c60" stroke-width="0.7"/><path d="M147.21239690270508 211.55712993044762 q3.4029941239784325 -2.7223952991827463 6.805988247956865 0" fill="none" stroke="#c4b69a" stroke-width="1" opacity="0.3"/><circle cx="134.47" cy="289.58" r="8.07" fill="#565044" stroke="#8c7c60" stroke-width="0.7"/><path d="M130.83251255542498 285.94583703268955 q4.037049652348256 -3.229639721878605 8.074099304696512 0" fill="none" stroke="#c4b69a" stroke-width="1" opacity="0.3"/><circle cx="219.41" cy="217.6" r="6.21" fill="#565044" stroke="#8c7c60" stroke-width="0.7"/><path d="M216.61421788319512 214.80853458910244 q3.105934496164672 -2.484747596931738 6.211868992329344 0" fill="none" stroke="#c4b69a" stroke-width="1" opacity="0.3"/><circle cx="219.59" cy="300.91" r="9.93" fill="#565044" stroke="#8c7c60" stroke-width="0.7"/><path d="M215.1264411304807 296.44677509549285 q4.963303813376918 -3.9706430507015344 9.926607626753835 0" fill="none" stroke="#c4b69a" stroke-width="1" opacity="0.3"/><circle cx="281.18" cy="195.09" r="7.38" fill="#565044" stroke="#8c7c60" stroke-width="0.7"/><path d="M277.8624989693397 191.77306643107738 q3.6893684256187242 -2.9514947404949794 7.3787368512374485 0" fill="none" stroke="#c4b69a" stroke-width="1" opacity="0.3"/><circle cx="291.47" cy="289.24" r="8.39" fill="#565044" stroke="#8c7c60" stroke-width="0.7"/><path d="M287.69805279987844 285.46722737256346 q4.196390501707333 -3.357112401365866 8.392781003414665 0" fill="none" stroke="#c4b69a" stroke-width="1" opacity="0.3"/><circle cx="159.09" cy="238.58" r="6.75" fill="#565044" stroke="#8c7c60" stroke-width="0.7"/><path d="M156.0479752539118 235.53824090748955 q3.3750713281896907 -2.700057062551753 6.750142656379381 0" fill="none" stroke="#c4b69a" stroke-width="1" opacity="0.3"/><circle cx="273.63" cy="202.66" r="7.81" fill="#565044" stroke="#8c7c60" stroke-width="0.7"/><path d="M270.11426856406996 199.1449264958209 q3.9072105603986937 -3.125768448318955 7.8144211207973875 0" fill="none" stroke="#c4b69a" stroke-width="1" opacity="0.3"/><circle cx="190.03" cy="249.81" r="10.48" fill="#565044" stroke="#8c7c60" stroke-width="0.7"/><path d="M185.312253667815 245.0911969490926 q5.23999785471257 -4.191998283770056 10.47999570942514 0" fill="none" stroke="#c4b69a" stroke-width="1" opacity="0.3"/><circle cx="242.65" cy="293.31" r="6.85" fill="#565044" stroke="#8c7c60" stroke-width="0.7"/><path d="M239.56735813162462 290.22815938747175 q3.426852796836385 -2.7414822374691084 6.85370559367277 0" fill="none" stroke="#c4b69a" stroke-width="1" opacity="0.3"/><circle cx="246.85" cy="291.48" r="8.82" fill="#565044" stroke="#8c7c60" stroke-width="0.7"/><path d="M242.87639869366885 287.5089725210664 q4.40985231765918 -3.527881854127344 8.81970463531836 0" fill="none" stroke="#c4b69a" stroke-width="1" opacity="0.3"/><circle cx="180.64" cy="209.96" r="7.79" fill="#565044" stroke="#8c7c60" stroke-width="0.7"/><path d="M177.1339202762379 206.460521380054 q3.8929728370310204 -3.1143782696248166 7.785945674062041 0" fill="none" stroke="#c4b69a" stroke-width="1" opacity="0.3"/><circle cx="216.14" cy="210.68" r="9.07" fill="#565044" stroke="#8c7c60" stroke-width="0.7"/><path d="M212.05310805764645 206.601849540272 q4.536557184757058 -3.6292457478056463 9.073114369514116 0" fill="none" stroke="#c4b69a" stroke-width="1" opacity="0.3"/><circle cx="153.1" cy="227.23" r="9.8" fill="#565044" stroke="#8c7c60" stroke-width="0.7"/><path d="M148.69497861320298 222.818552993975 q4.89779260467699 -3.9182340837415923 9.79558520935398 0" fill="none" stroke="#c4b69a" stroke-width="1" opacity="0.3"/><circle cx="311.97" cy="283.19" r="7.56" fill="#565044" stroke="#8c7c60" stroke-width="0.7"/><path d="M308.56170135784765 279.78465375914556 q3.782063375322622 -3.0256507002580975 7.564126750645244 0" fill="none" stroke="#c4b69a" stroke-width="1" opacity="0.3"/><circle cx="267.12" cy="326.27" r="6.01" fill="#565044" stroke="#8c7c60" stroke-width="0.7"/><path d="M264.41473558374594 323.56857616089763 q3.005250764478328 -2.4042006115826626 6.010501528956656 0" fill="none" stroke="#c4b69a" stroke-width="1" opacity="0.3"/><circle cx="276.72" cy="192.94" r="10.04" fill="#565044" stroke="#8c7c60" stroke-width="0.7"/><path d="M272.19931974916693 188.42001049663043 q5.020115329203481 -4.016092263362785 10.040230658406962 0" fill="none" stroke="#c4b69a" stroke-width="1" opacity="0.3"/><circle cx="255.79" cy="251.76" r="10.83" fill="#565044" stroke="#8c7c60" stroke-width="0.7"/><path d="M250.9162425144468 246.8835615684749 q5.414715584562629 -4.3317724676501035 10.829431169125257 0" fill="none" stroke="#c4b69a" stroke-width="1" opacity="0.3"/><circle cx="285.75" cy="317.4" r="10.76" fill="#565044" stroke="#8c7c60" stroke-width="0.7"/><path d="M280.90816282182027 312.5621837710092 q5.377630380897838 -4.30210430471827 10.755260761795675 0" fill="none" stroke="#c4b69a" stroke-width="1" opacity="0.3"/><circle cx="241.44" cy="279.14" r="9.06" fill="#565044" stroke="#8c7c60" stroke-width="0.7"/><path d="M237.35714830654635 275.06546337432053 q4.532224181809033 -3.6257793454472265 9.064448363618066 0" fill="none" stroke="#c4b69a" stroke-width="1" opacity="0.3"/><circle cx="269.24" cy="343.64" r="7.64" fill="#565044" stroke="#8c7c60" stroke-width="0.7"/><path d="M265.8022730696887 340.20758302253313 q3.818150507786891 -3.054520406229513 7.636301015573782 0" fill="none" stroke="#c4b69a" stroke-width="1" opacity="0.3"/><circle cx="259.99" cy="293.08" r="9.69" fill="#565044" stroke="#8c7c60" stroke-width="0.7"/><path d="M255.63300206755596 288.7197607045228 q4.843582720144046 -3.874866176115237 9.687165440288092 0" fill="none" stroke="#c4b69a" stroke-width="1" opacity="0.3"/><circle cx="182.58" cy="249.77" r="10.36" fill="#565044" stroke="#8c7c60" stroke-width="0.7"/><path d="M177.91686487294484 245.1038212223985 q5.1792658073377424 -4.143412645870194 10.358531614675485 0" fill="none" stroke="#c4b69a" stroke-width="1" opacity="0.3"/><circle cx="194.12" cy="203.08" r="10.9" fill="#565044" stroke="#8c7c60" stroke-width="0.7"/><path d="M189.21182419293544 198.17470674658782 q5.449574466436844 -4.359659573149475 10.899148932873688 0" fill="none" stroke="#c4b69a" stroke-width="1" opacity="0.3"/><circle cx="229.47" cy="263.56" r="8.84" fill="#565044" stroke="#8c7c60" stroke-width="0.7"/><path d="M225.4963092108732 259.57888954391734 q4.41851997789068 -3.5348159823125442 8.83703995578136 0" fill="none" stroke="#c4b69a" stroke-width="1" opacity="0.3"/><circle cx="170.23" cy="194.05" r="9.57" fill="#565044" stroke="#8c7c60" stroke-width="0.7"/><path d="M165.9249394666789 189.74377948093195 q4.7853084821531295 -3.828246785722504 9.570616964306259 0" fill="none" stroke="#c4b69a" stroke-width="1" opacity="0.3"/><circle cx="180.15" cy="331.71" r="7.58" fill="#565044" stroke="#8c7c60" stroke-width="0.7"/><path d="M176.73678170268127 328.30135112866554 q3.79087534633092 -3.032700277064736 7.58175069266184 0" fill="none" stroke="#c4b69a" stroke-width="1" opacity="0.3"/><circle cx="132.2" cy="285.33" r="10.55" fill="#565044" stroke="#8c7c60" stroke-width="0.7"/><path d="M127.45784780909425 280.5831336612208 q5.27287634872941 -4.2183010789835285 10.54575269745882 0" fill="none" stroke="#c4b69a" stroke-width="1" opacity="0.3"/><circle cx="212.9" cy="188.25" r="6.35" fill="#565044" stroke="#8c7c60" stroke-width="0.7"/><path d="M210.0417256934971 185.3935256662226 q3.175930106357046 -2.540744085085637 6.351860212714092 0" fill="none" stroke="#c4b69a" stroke-width="1" opacity="0.3"/><circle cx="294.53" cy="305.15" r="7.82" fill="#565044" stroke="#8c7c60" stroke-width="0.7"/><path d="M291.0171104023618 301.63547866436477 q3.9077644096625743 -3.1262115277300597 7.815528819325149 0" fill="none" stroke="#c4b69a" stroke-width="1" opacity="0.3"/><circle cx="284.79" cy="261.31" r="9.06" fill="#565044" stroke="#8c7c60" stroke-width="0.7"/><path d="M280.7117778575698 257.2276562201943 q4.531079046871723 -3.624863237497378 9.062158093743445 0" fill="none" stroke="#c4b69a" stroke-width="1" opacity="0.3"/><circle cx="208.19" cy="239.39" r="6.06" fill="#565044" stroke="#8c7c60" stroke-width="0.7"/><path d="M205.4660630347157 236.65839620464305 q3.03175989822241 -2.4254079185779283 6.06351979644482 0" fill="none" stroke="#c4b69a" stroke-width="1" opacity="0.3"/><circle cx="257.33" cy="230.43" r="9.37" fill="#565044" stroke="#8c7c60" stroke-width="0.7"/><path d="M253.1129600320569 226.21300488737506 q4.683925462138366 -3.747140369710693 9.367850924276732 0" fill="none" stroke="#c4b69a" stroke-width="1" opacity="0.3"/><circle cx="323.62" cy="245.44" r="6.65" fill="#565044" stroke="#8c7c60" stroke-width="0.7"/><path d="M320.62235674549015 242.4481669677535 q3.327145165212995 -2.661716132170396 6.65429033042599 0" fill="none" stroke="#c4b69a" stroke-width="1" opacity="0.3"/><circle cx="176.77" cy="257.84" r="7.4" fill="#565044" stroke="#8c7c60" stroke-width="0.7"/><path d="M173.44216077471395 254.5124456678567 q3.700476694355455 -2.960381355484364 7.40095338871091 0" fill="none" stroke="#c4b69a" stroke-width="1" opacity="0.3"/><circle cx="197.2" cy="213.37" r="8.3" fill="#565044" stroke="#8c7c60" stroke-width="0.7"/><path d="M193.4666901664131 209.63079308964913 q4.14962836596947 -3.319702692775576 8.29925673193894 0" fill="none" stroke="#c4b69a" stroke-width="1" opacity="0.3"/><circle cx="162.64" cy="263.58" r="6.39" fill="#565044" stroke="#8c7c60" stroke-width="0.7"/><path d="M159.75981430044195 260.70417925234636 q3.196469502785262 -2.5571756022282095 6.392939005570524 0" fill="none" stroke="#c4b69a" stroke-width="1" opacity="0.3"/><circle cx="286.44" cy="192.38" r="7.1" fill="#565044" stroke="#8c7c60" stroke-width="0.7"/><path d="M283.240999223105 189.1837829274833 q3.549546316796204 -2.839637053436963 7.099092633592408 0" fill="none" stroke="#c4b69a" stroke-width="1" opacity="0.3"/><circle cx="143.62" cy="222.93" r="10.23" fill="#565044" stroke="#8c7c60" stroke-width="0.7"/><path d="M139.01374368286278 218.3316641230498 q5.114258941504657 -4.0914071532037255 10.228517883009314 0" fill="none" stroke="#c4b69a" stroke-width="1" opacity="0.3"/><circle cx="240.24" cy="326.3" r="8.64" fill="#565044" stroke="#8c7c60" stroke-width="0.7"/><path d="M236.3481133158341 322.4089030707172 q4.319730047662903 -3.4557840381303224 8.639460095325806 0" fill="none" stroke="#c4b69a" stroke-width="1" opacity="0.3"/><circle cx="207.44" cy="190.9" r="6.99" fill="#565044" stroke="#8c7c60" stroke-width="0.7"/><path d="M204.29733795091514 187.7580567363949 q3.493617250315419 -2.7948938002523356 6.987234500630838 0" fill="none" stroke="#c4b69a" stroke-width="1" opacity="0.3"/><circle cx="289.82" cy="253.21" r="8.62" fill="#565044" stroke="#8c7c60" stroke-width="0.7"/><path d="M285.94024148891504 249.33288465042347 q4.311949638950802 -3.4495597111606418 8.623899277901604 0" fill="none" stroke="#c4b69a" stroke-width="1" opacity="0.3"/><circle cx="247.52" cy="299.38" r="6.82" fill="#565044" stroke="#8c7c60" stroke-width="0.7"/><path d="M244.4512935893989 296.3139738213007 q3.4075272594921286 -2.7260218075937033 6.815054518984257 0" fill="none" stroke="#c4b69a" stroke-width="1" opacity="0.3"/><circle cx="285.95" cy="228.1" r="6.06" fill="#565044" stroke="#8c7c60" stroke-width="0.7"/><path d="M283.2234766492528 225.37524520173736 q3.0316459619611926 -2.4253167695689544 6.063291923922385 0" fill="none" stroke="#c4b69a" stroke-width="1" opacity="0.3"/><circle cx="202.81" cy="325.07" r="8.1" fill="#565044" stroke="#8c7c60" stroke-width="0.7"/><path d="M199.16188484683198 321.41987829795903 q4.051511488898054 -3.2412091911184433 8.103022977796108 0" fill="none" stroke="#c4b69a" stroke-width="1" opacity="0.3"/><circle cx="269" cy="247.45" r="10.91" fill="#565044" stroke="#8c7c60" stroke-width="0.7"/><path d="M264.0911867751363 242.5423562354566 q5.456877821794558 -4.365502257435646 10.913755643589116 0" fill="none" stroke="#c4b69a" stroke-width="1" opacity="0.3"/><circle cx="154.9" cy="297.94" r="7.49" fill="#565044" stroke="#8c7c60" stroke-width="0.7"/><path d="M151.52940353013972 294.57224960259185 q3.7427572043972 -2.99420576351776 7.4855144087944 0" fill="none" stroke="#c4b69a" stroke-width="1" opacity="0.3"/><circle cx="257.55" cy="175.51" r="8.4" fill="#565044" stroke="#8c7c60" stroke-width="0.7"/><path d="M253.77058107190774 171.73302060922688 q4.198389140928148 -3.3587113127425186 8.396778281856296 0" fill="none" stroke="#c4b69a" stroke-width="1" opacity="0.3"/><circle cx="269.39" cy="244.8" r="9.61" fill="#565044" stroke="#8c7c60" stroke-width="0.7"/><path d="M265.0611219893051 240.47139216543238 q4.805105922713073 -3.8440847381704586 9.610211845426146 0" fill="none" stroke="#c4b69a" stroke-width="1" opacity="0.3"/><circle cx="269.18" cy="285.96" r="10.98" fill="#565044" stroke="#8c7c60" stroke-width="0.7"/><path d="M264.23458441959554 281.02110801822397 q5.490458032886154 -4.392366426308923 10.980916065772307 0" fill="none" stroke="#c4b69a" stroke-width="1" opacity="0.3"/><circle cx="320.38" cy="247" r="7.3" fill="#565044" stroke="#8c7c60" stroke-width="0.7"/><path d="M317.09839830017523 243.7163783076489 q3.6498026303145457 -2.9198421042516367 7.299605260629091 0" fill="none" stroke="#c4b69a" stroke-width="1" opacity="0.3"/><circle cx="327.69" cy="232.56" r="10.76" fill="#565044" stroke="#8c7c60" stroke-width="0.7"/><path d="M322.8451714421141 227.71775858556992 q5.381979115186544 -4.305583292149236 10.763958230373088 0" fill="none" stroke="#c4b69a" stroke-width="1" opacity="0.3"/><circle cx="254.43" cy="265.61" r="10.55" fill="#565044" stroke="#8c7c60" stroke-width="0.7"/><path d="M249.68713711707377 260.8684547409586 q5.272599631945127 -4.218079705556102 10.545199263890254 0" fill="none" stroke="#c4b69a" stroke-width="1" opacity="0.3"/><circle cx="305.87" cy="265.53" r="7.46" fill="#565044" stroke="#8c7c60" stroke-width="0.7"/><path d="M302.51617627721566 262.174597180863 q3.7276004865636816 -2.9820803892509455 7.455200973127363 0" fill="none" stroke="#c4b69a" stroke-width="1" opacity="0.3"/><circle cx="234.04" cy="183.08" r="9.78" fill="#565044" stroke="#8c7c60" stroke-width="0.7"/><path d="M229.64277465480586 178.68350381707353 q4.889854110349855 -3.9118832882798844 9.77970822069971 0" fill="none" stroke="#c4b69a" stroke-width="1" opacity="0.3"/><circle cx="244.54" cy="347.61" r="7.79" fill="#565044" stroke="#8c7c60" stroke-width="0.7"/><path d="M241.0359707951211 344.1022158216656 q3.8959904719461758 -3.1167923775569406 7.7919809438923515 0" fill="none" stroke="#c4b69a" stroke-width="1" opacity="0.3"/><circle cx="304" cy="299.55" r="8.02" fill="#565044" stroke="#8c7c60" stroke-width="0.7"/><path d="M300.38930785205054 295.93687407378445 q4.011860374950505 -3.209488299960404 8.02372074990101 0" fill="none" stroke="#c4b69a" stroke-width="1" opacity="0.3"/></g><rect width="480" height="480" fill="#968265" filter="url(#paper)" opacity=".023" pointer-events="none"/>
</svg>