<svg xmlns="http://www.w3.org/2000/svg" width="480" height="480" viewBox="0 0 480 480" role="img" aria-labelledby="title desc">
<title id="title">奇异果 · 风格化食材插画</title><desc id="desc">原创本地矢量插画。以目录食材名称选择形态，图片不代表原书照片、实测成分或精确品种鉴定。</desc>
<metadata>{&quot;id&quot;:&quot;ing-f9bfb14ffe98&quot;,&quot;rawName&quot;:&quot;奇異果&quot;,&quot;displayName&quot;:&quot;奇异果&quot;,&quot;status&quot;:&quot;illustrated&quot;,&quot;motif&quot;:&quot;kiwi&quot;,&quot;style&quot;:&quot;original_native_svg_editorial_botanical_v1&quot;,&quot;source&quot;:&quot;Original procedural SVG drawing, created locally; no external images.&quot;,&quot;identityBasis&quot;:&quot;catalog displayName; nameNeedsReview gates identifiable food depictions&quot;,&quot;isPhotograph&quot;:false,&quot;isSensoryMeasurement&quot;:false,&quot;cultivarExactness&quot;:&quot;stylized representation; not verified botanical reference&quot;,&quot;preparationHints&quot;:[]}</metadata><defs>
<radialGradient id="red" cx="30%" cy="21%" r="83%"><stop stop-color="#f68667"/><stop offset=".39" stop-color="#d84937"/><stop offset=".83" stop-color="#ae2d2b"/><stop offset="1" stop-color="#7c272c"/></radialGradient>
<radialGradient id="berry" cx="30%" cy="23%" r="80%"><stop stop-color="#a4abc5"/><stop offset=".4" stop-color="#68738f"/><stop offset=".82" stop-color="#42475e"/><stop offset="1" stop-color="#282e45"/></radialGradient>
<radialGradient id="purple" cx="25%" cy="20%" r="87%"><stop stop-color="#b690ad"/><stop offset=".45" stop-color="#755273"/><stop offset="1" stop-color="#3e334c"/></radialGradient>
<linearGradient id="leaf" x1="0" y1="0" x2="1" y2=".65"><stop stop-color="#9aaa66"/><stop offset=".43" stop-color="#6f864e"/><stop offset="1" stop-color="#3f6449"/></linearGradient>
<radialGradient id="green" cx="28%" cy="25%" r="84%"><stop stop-color="#c6cb6d"/><stop offset=".42" stop-color="#94ad58"/><stop offset="1" stop-color="#527846"/></radialGradient>
<radialGradient id="gold" cx="26%" cy="20%" r="89%"><stop stop-color="#f9d991"/><stop offset=".52" stop-color="#dea94e"/><stop offset="1" stop-color="#a86632"/></radialGradient>
<radialGradient id="orange" cx="29%" cy="20%" r="87%"><stop stop-color="#ffd795"/><stop offset=".4" stop-color="#edab55"/><stop offset="1" stop-color="#ce7341"/></radialGradient>
<radialGradient id="brown" cx="26%" cy="23%" r="80%"><stop stop-color="#c6976c"/><stop offset=".45" stop-color="#946948"/><stop offset="1" stop-color="#624633"/></radialGradient>
<radialGradient id="cream" cx="26%" cy="18%" r="87%"><stop stop-color="#fffdf1"/><stop offset=".5" stop-color="#ece3c5"/><stop offset="1" stop-color="#c4b28d"/></radialGradient>
<linearGradient id="milk" x1="0" y1="0" x2="1" y2=".3"><stop stop-color="#e2dbca"/><stop offset=".3" stop-color="#fffdf2"/><stop offset=".74" stop-color="#f7f2e4"/><stop offset="1" stop-color="#d9d1bf"/></linearGradient>
<linearGradient id="glass" x1="0" y1="0" x2="1" y2="0"><stop stop-color="#bfd0c8" stop-opacity=".45"/><stop offset=".2" stop-color="#fffef6" stop-opacity=".8"/><stop offset=".5" stop-color="#e5eadb" stop-opacity=".1"/><stop offset=".83" stop-color="#cad5c6" stop-opacity=".35"/><stop offset="1" stop-color="#9dafa4" stop-opacity=".5"/></linearGradient>
<linearGradient id="fish" x1="0" y1="0" x2="0" y2="1"><stop stop-color="#536f75"/><stop offset=".4" stop-color="#9caea7"/><stop offset=".69" stop-color="#e6e1c8"/><stop offset="1" stop-color="#b0afa0"/></linearGradient>
<linearGradient id="salmon" x1="0" y1="0" x2="1" y2="1"><stop stop-color="#f6b091"/><stop offset=".5" stop-color="#dc826b"/><stop offset="1" stop-color="#b85d4f"/></linearGradient>
<linearGradient id="meat" x1="0" y1="0" x2="1" y2="1"><stop stop-color="#cc8b7e"/><stop offset=".4" stop-color="#a64f4c"/><stop offset="1" stop-color="#70393a"/></linearGradient>
<radialGradient id="roast" cx="26%" cy="20%" r="80%"><stop stop-color="#d49a60"/><stop offset=".4" stop-color="#a66c3e"/><stop offset="1" stop-color="#6c4331"/></radialGradient>
<radialGradient id="oil" cx="29%" cy="20%" r="84%"><stop stop-color="#ecd78b"/><stop offset=".57" stop-color="#b3a150"/><stop offset="1" stop-color="#74703b"/></radialGradient>
<filter id="ground" x="-60%" y="-200%" width="220%" height="500%"><feGaussianBlur stdDeviation="9"/></filter>
<filter id="soft" x="-20%" y="-20%" width="140%" height="150%"><feDropShadow dx="0" dy="5" stdDeviation="4" flood-color="#685438" flood-opacity=".13"/></filter>
<filter id="paper"><feTurbulence type="fractalNoise" baseFrequency=".69" numOctaves="2" stitchTiles="stitch"/><feColorMatrix type="saturate" values="0"/><feComponentTransfer><feFuncA type="linear" slope=".042"/></feComponentTransfer><feBlend in="SourceGraphic" mode="multiply"/></filter>
</defs>
<rect width="480" height="480" fill="#f5f1e8"/><ellipse cx="237" cy="267" rx="175" ry="163" fill="#faf6ed" opacity=".75"/><ellipse cx="239" cy="362" rx="119" ry="15" fill="#8c7b59" opacity="0.13" filter="url(#ground)"/>
<g><ellipse cx="182" cy="218" rx="84" ry="100" fill="url(#brown)" transform="rotate(-32 182 218)" stroke="#896d4c" stroke-width="2"/><line x1="207.65" y1="236.9" x2="210.65" y2="231.9" stroke="#d4b181" stroke-width="0.7" opacity="0.55"/><line x1="174.14" y1="166.27" x2="177.14" y2="161.27" stroke="#d4b181" stroke-width="0.7" opacity="0.55"/><line x1="144.04" y1="226.86" x2="147.04" y2="221.86" stroke="#d4b181" stroke-width="0.7" opacity="0.55"/><line x1="130.76" y1="188.46" x2="133.76" y2="183.46" stroke="#d4b181" stroke-width="0.7" opacity="0.55"/><line x1="179.66" y1="230.24" x2="182.66" y2="225.24" stroke="#d4b181" stroke-width="0.7" opacity="0.55"/><line x1="181.82" y1="273.85" x2="184.82" y2="268.85" stroke="#d4b181" stroke-width="0.7" opacity="0.55"/><line x1="174.57" y1="199.37" x2="177.57" y2="194.37" stroke="#d4b181" stroke-width="0.7" opacity="0.55"/><line x1="202.55" y1="228.07" x2="205.55" y2="223.07" stroke="#d4b181" stroke-width="0.7" opacity="0.55"/><line x1="141.39" y1="218.63" x2="144.39" y2="213.63" stroke="#d4b181" stroke-width="0.7" opacity="0.55"/><line x1="206.51" y1="199.23" x2="209.51" y2="194.23" stroke="#d4b181" stroke-width="0.7" opacity="0.55"/><line x1="150.47" y1="165.6" x2="153.47" y2="160.6" stroke="#d4b181" stroke-width="0.7" opacity="0.55"/><line x1="215.85" y1="151.41" x2="218.85" y2="146.41" stroke="#d4b181" stroke-width="0.7" opacity="0.55"/><line x1="166.33" y1="139.66" x2="169.33" y2="134.66" stroke="#d4b181" stroke-width="0.7" opacity="0.55"/><line x1="212.72" y1="186.44" x2="215.72" y2="181.44" stroke="#d4b181" stroke-width="0.7" opacity="0.55"/><line x1="236.17" y1="211.34" x2="239.17" y2="206.34" stroke="#d4b181" stroke-width="0.7" opacity="0.55"/><line x1="110.51" y1="224.48" x2="113.51" y2="219.48" stroke="#d4b181" stroke-width="0.7" opacity="0.55"/><line x1="166.05" y1="155.99" x2="169.05" y2="150.99" stroke="#d4b181" stroke-width="0.7" opacity="0.55"/><line x1="112.7" y1="239.31" x2="115.7" y2="234.31" stroke="#d4b181" stroke-width="0.7" opacity="0.55"/><line x1="208.78" y1="180.03" x2="211.78" y2="175.03" stroke="#d4b181" stroke-width="0.7" opacity="0.55"/><line x1="155.13" y1="278.62" x2="158.13" y2="273.62" stroke="#d4b181" stroke-width="0.7" opacity="0.55"/><line x1="176.19" y1="217.87" x2="179.19" y2="212.87" stroke="#d4b181" stroke-width="0.7" opacity="0.55"/><line x1="144.47" y1="252.13" x2="147.47" y2="247.13" stroke="#d4b181" stroke-width="0.7" opacity="0.55"/><line x1="161.94" y1="151.78" x2="164.94" y2="146.78" stroke="#d4b181" stroke-width="0.7" opacity="0.55"/><line x1="230.47" y1="273.92" x2="233.47" y2="268.92" stroke="#d4b181" stroke-width="0.7" opacity="0.55"/><line x1="136.66" y1="239.69" x2="139.66" y2="234.69" stroke="#d4b181" stroke-width="0.7" opacity="0.55"/><line x1="113.17" y1="193.51" x2="116.17" y2="188.51" stroke="#d4b181" stroke-width="0.7" opacity="0.55"/><line x1="249.1" y1="229.53" x2="252.1" y2="224.53" stroke="#d4b181" stroke-width="0.7" opacity="0.55"/><line x1="131.75" y1="232.76" x2="134.75" y2="227.76" stroke="#d4b181" stroke-width="0.7" opacity="0.55"/><line x1="156.52" y1="250.1" x2="159.52" y2="245.1" stroke="#d4b181" stroke-width="0.7" opacity="0.55"/><line x1="199.39" y1="295.8" x2="202.39" y2="290.8" stroke="#d4b181" stroke-width="0.7" opacity="0.55"/><line x1="135.13" y1="232.15" x2="138.13" y2="227.15" stroke="#d4b181" stroke-width="0.7" opacity="0.55"/><line x1="189.08" y1="218.94" x2="192.08" y2="213.94" stroke="#d4b181" stroke-width="0.7" opacity="0.55"/><line x1="249.79" y1="240.09" x2="252.79" y2="235.09" stroke="#d4b181" stroke-width="0.7" opacity="0.55"/><line x1="234.48" y1="274.68" x2="237.48" y2="269.68" stroke="#d4b181" stroke-width="0.7" opacity="0.55"/><line x1="230.57" y1="178.56" x2="233.57" y2="173.56" stroke="#d4b181" stroke-width="0.7" opacity="0.55"/><line x1="217.72" y1="270.62" x2="220.72" y2="265.62" stroke="#d4b181" stroke-width="0.7" opacity="0.55"/><line x1="248.11" y1="256.94" x2="251.11" y2="251.94" stroke="#d4b181" stroke-width="0.7" opacity="0.55"/><line x1="169.96" y1="253.72" x2="172.96" y2="248.72" stroke="#d4b181" stroke-width="0.7" opacity="0.55"/><line x1="114.49" y1="261.2" x2="117.49" y2="256.2" stroke="#d4b181" stroke-width="0.7" opacity="0.55"/><line x1="226.45" y1="181.58" x2="229.45" y2="176.58" stroke="#d4b181" stroke-width="0.7" opacity="0.55"/><line x1="147.12" y1="219.87" x2="150.12" y2="214.87" stroke="#d4b181" stroke-width="0.7" opacity="0.55"/><line x1="201.56" y1="146.57" x2="204.56" y2="141.57" stroke="#d4b181" stroke-width="0.7" opacity="0.55"/><line x1="202.74" y1="171.04" x2="205.74" y2="166.04" stroke="#d4b181" stroke-width="0.7" opacity="0.55"/><line x1="204.3" y1="147.62" x2="207.3" y2="142.62" stroke="#d4b181" stroke-width="0.7" opacity="0.55"/><line x1="122.85" y1="178.62" x2="125.85" y2="173.62" stroke="#d4b181" stroke-width="0.7" opacity="0.55"/><line x1="196.26" y1="224.52" x2="199.26" y2="219.52" stroke="#d4b181" stroke-width="0.7" opacity="0.55"/><line x1="216.79" y1="285.81" x2="219.79" y2="280.81" stroke="#d4b181" stroke-width="0.7" opacity="0.55"/><line x1="195.53" y1="236.94" x2="198.53" y2="231.94" stroke="#d4b181" stroke-width="0.7" opacity="0.55"/><line x1="201.69" y1="153.47" x2="204.69" y2="148.47" stroke="#d4b181" stroke-width="0.7" opacity="0.55"/><line x1="238.54" y1="251.53" x2="241.54" y2="246.53" stroke="#d4b181" stroke-width="0.7" opacity="0.55"/><line x1="164.82" y1="292.47" x2="167.82" y2="287.47" stroke="#d4b181" stroke-width="0.7" opacity="0.55"/><line x1="125.76" y1="169.88" x2="128.76" y2="164.88" stroke="#d4b181" stroke-width="0.7" opacity="0.55"/><line x1="153.63" y1="267.51" x2="156.63" y2="262.51" stroke="#d4b181" stroke-width="0.7" opacity="0.55"/><line x1="239.83" y1="207.02" x2="242.83" y2="202.02" stroke="#d4b181" stroke-width="0.7" opacity="0.55"/><line x1="135.79" y1="155.74" x2="138.79" y2="150.74" stroke="#d4b181" stroke-width="0.7" opacity="0.55"/><line x1="212.98" y1="153.2" x2="215.98" y2="148.2" stroke="#d4b181" stroke-width="0.7" opacity="0.55"/><line x1="110.66" y1="246.11" x2="113.66" y2="241.11" stroke="#d4b181" stroke-width="0.7" opacity="0.55"/><line x1="148.73" y1="249.56" x2="151.73" y2="244.56" stroke="#d4b181" stroke-width="0.7" opacity="0.55"/><line x1="239.06" y1="225.29" x2="242.06" y2="220.29" stroke="#d4b181" stroke-width="0.7" opacity="0.55"/><line x1="201.85" y1="147.98" x2="204.85" y2="142.98" stroke="#d4b181" stroke-width="0.7" opacity="0.55"/><line x1="131.84" y1="227.55" x2="134.84" y2="222.55" stroke="#d4b181" stroke-width="0.7" opacity="0.55"/><line x1="152.35" y1="168.17" x2="155.35" y2="163.17" stroke="#d4b181" stroke-width="0.7" opacity="0.55"/><line x1="229.9" y1="219.17" x2="232.9" y2="214.17" stroke="#d4b181" stroke-width="0.7" opacity="0.55"/><line x1="175.04" y1="244.57" x2="178.04" y2="239.57" stroke="#d4b181" stroke-width="0.7" opacity="0.55"/><line x1="165.39" y1="192.01" x2="168.39" y2="187.01" stroke="#d4b181" stroke-width="0.7" opacity="0.55"/><line x1="199.13" y1="143.26" x2="202.13" y2="138.26" stroke="#d4b181" stroke-width="0.7" opacity="0.55"/><line x1="218.31" y1="286.65" x2="221.31" y2="281.65" stroke="#d4b181" stroke-width="0.7" opacity="0.55"/><line x1="204.24" y1="208.93" x2="207.24" y2="203.93" stroke="#d4b181" stroke-width="0.7" opacity="0.55"/><line x1="124.24" y1="210.05" x2="127.24" y2="205.05" stroke="#d4b181" stroke-width="0.7" opacity="0.55"/><line x1="190.63" y1="202.32" x2="193.63" y2="197.32" stroke="#d4b181" stroke-width="0.7" opacity="0.55"/><line x1="150.12" y1="294.1" x2="153.12" y2="289.1" stroke="#d4b181" stroke-width="0.7" opacity="0.55"/><line x1="232.03" y1="210.27" x2="235.03" y2="205.27" stroke="#d4b181" stroke-width="0.7" opacity="0.55"/><line x1="175.13" y1="172.85" x2="178.13" y2="167.85" stroke="#d4b181" stroke-width="0.7" opacity="0.55"/><line x1="159.03" y1="272.75" x2="162.03" y2="267.75" stroke="#d4b181" stroke-width="0.7" opacity="0.55"/><line x1="220.74" y1="151.82" x2="223.74" y2="146.82" stroke="#d4b181" stroke-width="0.7" opacity="0.55"/><line x1="204.03" y1="249.16" x2="207.03" y2="244.16" stroke="#d4b181" stroke-width="0.7" opacity="0.55"/><line x1="135.79" y1="205.73" x2="138.79" y2="200.73" stroke="#d4b181" stroke-width="0.7" opacity="0.55"/><line x1="166.27" y1="294.16" x2="169.27" y2="289.16" stroke="#d4b181" stroke-width="0.7" opacity="0.55"/><line x1="163.17" y1="152.7" x2="166.17" y2="147.7" stroke="#d4b181" stroke-width="0.7" opacity="0.55"/><line x1="139.45" y1="208.2" x2="142.45" y2="203.2" stroke="#d4b181" stroke-width="0.7" opacity="0.55"/><line x1="235.74" y1="246.9" x2="238.74" y2="241.9" stroke="#d4b181" stroke-width="0.7" opacity="0.55"/><line x1="184.41" y1="200.67" x2="187.41" y2="195.67" stroke="#d4b181" stroke-width="0.7" opacity="0.55"/><line x1="237.45" y1="164.1" x2="240.45" y2="159.1" stroke="#d4b181" stroke-width="0.7" opacity="0.55"/><line x1="224.44" y1="190.5" x2="227.44" y2="185.5" stroke="#d4b181" stroke-width="0.7" opacity="0.55"/><line x1="187.02" y1="301.9" x2="190.02" y2="296.9" stroke="#d4b181" stroke-width="0.7" opacity="0.55"/><line x1="158.59" y1="197.77" x2="161.59" y2="192.77" stroke="#d4b181" stroke-width="0.7" opacity="0.55"/><line x1="182.92" y1="302.86" x2="185.92" y2="297.86" stroke="#d4b181" stroke-width="0.7" opacity="0.55"/><line x1="168.16" y1="302.37" x2="171.16" y2="297.37" stroke="#d4b181" stroke-width="0.7" opacity="0.55"/><line x1="153.87" y1="150.26" x2="156.87" y2="145.26" stroke="#d4b181" stroke-width="0.7" opacity="0.55"/><line x1="176.77" y1="168.46" x2="179.77" y2="163.46" stroke="#d4b181" stroke-width="0.7" opacity="0.55"/><line x1="197.4" y1="274.11" x2="200.4" y2="269.11" stroke="#d4b181" stroke-width="0.7" opacity="0.55"/><line x1="141.16" y1="179.48" x2="144.16" y2="174.48" stroke="#d4b181" stroke-width="0.7" opacity="0.55"/><line x1="132.64" y1="262.35" x2="135.64" y2="257.35" stroke="#d4b181" stroke-width="0.7" opacity="0.55"/><line x1="136.57" y1="280.18" x2="139.57" y2="275.18" stroke="#d4b181" stroke-width="0.7" opacity="0.55"/><line x1="232.65" y1="203.11" x2="235.65" y2="198.11" stroke="#d4b181" stroke-width="0.7" opacity="0.55"/><line x1="151.86" y1="197.89" x2="154.86" y2="192.89" stroke="#d4b181" stroke-width="0.7" opacity="0.55"/><line x1="166.15" y1="149.78" x2="169.15" y2="144.78" stroke="#d4b181" stroke-width="0.7" opacity="0.55"/><line x1="238.37" y1="201.07" x2="241.37" y2="196.07" stroke="#d4b181" stroke-width="0.7" opacity="0.55"/><line x1="243.41" y1="235.98" x2="246.41" y2="230.98" stroke="#d4b181" stroke-width="0.7" opacity="0.55"/><line x1="153.83" y1="153.63" x2="156.83" y2="148.63" stroke="#d4b181" stroke-width="0.7" opacity="0.55"/><line x1="219.65" y1="173.7" x2="222.65" y2="168.7" stroke="#d4b181" stroke-width="0.7" opacity="0.55"/><line x1="155.42" y1="161.61" x2="158.42" y2="156.61" stroke="#d4b181" stroke-width="0.7" opacity="0.55"/><line x1="122.25" y1="206.78" x2="125.25" y2="201.78" stroke="#d4b181" stroke-width="0.7" opacity="0.55"/><line x1="128.68" y1="277.13" x2="131.68" y2="272.13" stroke="#d4b181" stroke-width="0.7" opacity="0.55"/><line x1="186.18" y1="190.27" x2="189.18" y2="185.27" stroke="#d4b181" stroke-width="0.7" opacity="0.55"/><line x1="106.84" y1="236.69" x2="109.84" y2="231.69" stroke="#d4b181" stroke-width="0.7" opacity="0.55"/><line x1="191.5" y1="248.56" x2="194.5" y2="243.56" stroke="#d4b181" stroke-width="0.7" opacity="0.55"/><line x1="192.14" y1="143.58" x2="195.14" y2="138.58" stroke="#d4b181" stroke-width="0.7" opacity="0.55"/><line x1="249.69" y1="181.44" x2="252.69" y2="176.44" stroke="#d4b181" stroke-width="0.7" opacity="0.55"/><line x1="115.87" y1="224.35" x2="118.87" y2="219.35" stroke="#d4b181" stroke-width="0.7" opacity="0.55"/><line x1="208.75" y1="210.2" x2="211.75" y2="205.2" stroke="#d4b181" stroke-width="0.7" opacity="0.55"/><line x1="212.01" y1="247.22" x2="215.01" y2="242.22" stroke="#d4b181" stroke-width="0.7" opacity="0.55"/><line x1="128.39" y1="170.09" x2="131.39" y2="165.09" stroke="#d4b181" stroke-width="0.7" opacity="0.55"/><line x1="142.28" y1="285.87" x2="145.28" y2="280.87" stroke="#d4b181" stroke-width="0.7" opacity="0.55"/><line x1="201.76" y1="227.64" x2="204.76" y2="222.64" stroke="#d4b181" stroke-width="0.7" opacity="0.55"/><line x1="150.19" y1="225.22" x2="153.19" y2="220.22" stroke="#d4b181" stroke-width="0.7" opacity="0.55"/><line x1="170.18" y1="148.94" x2="173.18" y2="143.94" stroke="#d4b181" stroke-width="0.7" opacity="0.55"/><line x1="197.68" y1="249.45" x2="200.68" y2="244.45" stroke="#d4b181" stroke-width="0.7" opacity="0.55"/><line x1="157.26" y1="265.66" x2="160.26" y2="260.66" stroke="#d4b181" stroke-width="0.7" opacity="0.55"/><line x1="119.03" y1="230.5" x2="122.03" y2="225.5" stroke="#d4b181" stroke-width="0.7" opacity="0.55"/><line x1="201.52" y1="143.23" x2="204.52" y2="138.23" stroke="#d4b181" stroke-width="0.7" opacity="0.55"/><line x1="137.41" y1="221.17" x2="140.41" y2="216.17" stroke="#d4b181" stroke-width="0.7" opacity="0.55"/><line x1="208.78" y1="273.85" x2="211.78" y2="268.85" stroke="#d4b181" stroke-width="0.7" opacity="0.55"/><line x1="157.89" y1="246.21" x2="160.89" y2="241.21" stroke="#d4b181" stroke-width="0.7" opacity="0.55"/><line x1="204.14" y1="257.84" x2="207.14" y2="252.84" stroke="#d4b181" stroke-width="0.7" opacity="0.55"/><line x1="153.56" y1="141.61" x2="156.56" y2="136.61" stroke="#d4b181" stroke-width="0.7" opacity="0.55"/><line x1="232.79" y1="170.04" x2="235.79" y2="165.04" stroke="#d4b181" stroke-width="0.7" opacity="0.55"/><line x1="249.41" y1="248.95" x2="252.41" y2="243.95" stroke="#d4b181" stroke-width="0.7" opacity="0.55"/><line x1="217.65" y1="277.35" x2="220.65" y2="272.35" stroke="#d4b181" stroke-width="0.7" opacity="0.55"/><line x1="161.16" y1="165.71" x2="164.16" y2="160.71" stroke="#d4b181" stroke-width="0.7" opacity="0.55"/><line x1="126.79" y1="163.72" x2="129.79" y2="158.72" stroke="#d4b181" stroke-width="0.7" opacity="0.55"/><line x1="155.68" y1="165.72" x2="158.68" y2="160.72" stroke="#d4b181" stroke-width="0.7" opacity="0.55"/><line x1="122.32" y1="181.69" x2="125.32" y2="176.69" stroke="#d4b181" stroke-width="0.7" opacity="0.55"/><line x1="154.61" y1="291.54" x2="157.61" y2="286.54" stroke="#d4b181" stroke-width="0.7" opacity="0.55"/><line x1="151.39" y1="237.85" x2="154.39" y2="232.85" stroke="#d4b181" stroke-width="0.7" opacity="0.55"/><line x1="125.18" y1="264.24" x2="128.18" y2="259.24" stroke="#d4b181" stroke-width="0.7" opacity="0.55"/><line x1="221.67" y1="273.03" x2="224.67" y2="268.03" stroke="#d4b181" stroke-width="0.7" opacity="0.55"/><line x1="234.66" y1="171.33" x2="237.66" y2="166.33" stroke="#d4b181" stroke-width="0.7" opacity="0.55"/><line x1="188.22" y1="166.66" x2="191.22" y2="161.66" stroke="#d4b181" stroke-width="0.7" opacity="0.55"/><line x1="234.85" y1="273.94" x2="237.85" y2="268.94" stroke="#d4b181" stroke-width="0.7" opacity="0.55"/><line x1="218.5" y1="224.42" x2="221.5" y2="219.42" stroke="#d4b181" stroke-width="0.7" opacity="0.55"/><line x1="235.21" y1="176.96" x2="238.21" y2="171.96" stroke="#d4b181" stroke-width="0.7" opacity="0.55"/><line x1="228.21" y1="226.7" x2="231.21" y2="221.7" stroke="#d4b181" stroke-width="0.7" opacity="0.55"/><line x1="214.66" y1="219.85" x2="217.66" y2="214.85" stroke="#d4b181" stroke-width="0.7" opacity="0.55"/><line x1="148.39" y1="271.3" x2="151.39" y2="266.3" stroke="#d4b181" stroke-width="0.7" opacity="0.55"/><line x1="156.21" y1="197.32" x2="159.21" y2="192.32" stroke="#d4b181" stroke-width="0.7" opacity="0.55"/><line x1="214.15" y1="179.08" x2="217.15" y2="174.08" stroke="#d4b181" stroke-width="0.7" opacity="0.55"/><line x1="236.98" y1="256.67" x2="239.98" y2="251.67" stroke="#d4b181" stroke-width="0.7" opacity="0.55"/><line x1="229.61" y1="200.55" x2="232.61" y2="195.55" stroke="#d4b181" stroke-width="0.7" opacity="0.55"/><line x1="216.31" y1="281.54" x2="219.31" y2="276.54" stroke="#d4b181" stroke-width="0.7" opacity="0.55"/><line x1="226.9" y1="188.83" x2="229.9" y2="183.83" stroke="#d4b181" stroke-width="0.7" opacity="0.55"/><line x1="158.31" y1="257.49" x2="161.31" y2="252.49" stroke="#d4b181" stroke-width="0.7" opacity="0.55"/><line x1="228.72" y1="273.11" x2="231.72" y2="268.11" stroke="#d4b181" stroke-width="0.7" opacity="0.55"/><line x1="214.61" y1="255.82" x2="217.61" y2="250.82" stroke="#d4b181" stroke-width="0.7" opacity="0.55"/><line x1="109.84" y1="198.94" x2="112.84" y2="193.94" stroke="#d4b181" stroke-width="0.7" opacity="0.55"/><line x1="220.53" y1="183.05" x2="223.53" y2="178.05" stroke="#d4b181" stroke-width="0.7" opacity="0.55"/><line x1="160.98" y1="225.55" x2="163.98" y2="220.55" stroke="#d4b181" stroke-width="0.7" opacity="0.55"/><line x1="237.15" y1="206.54" x2="240.15" y2="201.54" stroke="#d4b181" stroke-width="0.7" opacity="0.55"/><line x1="203.01" y1="266.75" x2="206.01" y2="261.75" stroke="#d4b181" stroke-width="0.7" opacity="0.55"/><line x1="178.51" y1="138.2" x2="181.51" y2="133.2" stroke="#d4b181" stroke-width="0.7" opacity="0.55"/><line x1="180.43" y1="273.51" x2="183.43" y2="268.51" stroke="#d4b181" stroke-width="0.7" opacity="0.55"/><line x1="212.28" y1="260.31" x2="215.28" y2="255.31" stroke="#d4b181" stroke-width="0.7" opacity="0.55"/><line x1="114.21" y1="179.98" x2="117.21" y2="174.98" stroke="#d4b181" stroke-width="0.7" opacity="0.55"/><line x1="109.32" y1="206.55" x2="112.32" y2="201.55" stroke="#d4b181" stroke-width="0.7" opacity="0.55"/><line x1="138.9" y1="269.17" x2="141.9" y2="264.17" stroke="#d4b181" stroke-width="0.7" opacity="0.55"/><line x1="217.17" y1="196.21" x2="220.17" y2="191.21" stroke="#d4b181" stroke-width="0.7" opacity="0.55"/><line x1="208.69" y1="262.98" x2="211.69" y2="257.98" stroke="#d4b181" stroke-width="0.7" opacity="0.55"/><line x1="211.99" y1="151.02" x2="214.99" y2="146.02" stroke="#d4b181" stroke-width="0.7" opacity="0.55"/><line x1="199.97" y1="231.93" x2="202.97" y2="226.93" stroke="#d4b181" stroke-width="0.7" opacity="0.55"/><line x1="193.89" y1="153.77" x2="196.89" y2="148.77" stroke="#d4b181" stroke-width="0.7" opacity="0.55"/><line x1="176.46" y1="218.46" x2="179.46" y2="213.46" stroke="#d4b181" stroke-width="0.7" opacity="0.55"/><line x1="227" y1="223.54" x2="230" y2="218.54" stroke="#d4b181" stroke-width="0.7" opacity="0.55"/><line x1="211.58" y1="188.54" x2="214.58" y2="183.54" stroke="#d4b181" stroke-width="0.7" opacity="0.55"/><line x1="194.11" y1="168.82" x2="197.11" y2="163.82" stroke="#d4b181" stroke-width="0.7" opacity="0.55"/><line x1="146.77" y1="162.52" x2="149.77" y2="157.52" stroke="#d4b181" stroke-width="0.7" opacity="0.55"/><line x1="133.97" y1="222.43" x2="136.97" y2="217.43" stroke="#d4b181" stroke-width="0.7" opacity="0.55"/><line x1="237.36" y1="240" x2="240.36" y2="235" stroke="#d4b181" stroke-width="0.7" opacity="0.55"/><line x1="166.97" y1="302.3" x2="169.97" y2="297.3" stroke="#d4b181" stroke-width="0.7" opacity="0.55"/><line x1="149" y1="183.27" x2="152" y2="178.27" stroke="#d4b181" stroke-width="0.7" opacity="0.55"/><line x1="205.68" y1="158.65" x2="208.68" y2="153.65" stroke="#d4b181" stroke-width="0.7" opacity="0.55"/><ellipse cx="292" cy="294" rx="88" ry="82" fill="#987544"/><ellipse cx="292" cy="294" rx="82" ry="76" fill="#b1bc60"/><ellipse cx="292" cy="294" rx="73" ry="67" fill="#a8c373"/><line x1="292" y1="294" x2="355" y2="294" stroke="#e1e6aa" stroke-width="1" opacity="0.7"/><g transform="translate(334.0 294.0) rotate(-90.0) scale(1)"><ellipse cx="0" cy="0" rx="2.1" ry="4" fill="#333d29"/></g><line x1="292" y1="294" x2="354.36" y2="302.25" stroke="#e1e6aa" stroke-width="1" opacity="0.7"/><line x1="292" y1="294" x2="352.45" y2="310.34" stroke="#e1e6aa" stroke-width="1" opacity="0.7"/><g transform="translate(332.2987048918089 304.70583715997435) rotate(-73.63636363636364) scale(1)"><ellipse cx="0" cy="0" rx="2.1" ry="4" fill="#333d29"/></g><line x1="292" y1="294" x2="349.31" y2="318.09" stroke="#e1e6aa" stroke-width="1" opacity="0.7"/><line x1="292" y1="294" x2="345" y2="325.36" stroke="#e1e6aa" stroke-width="1" opacity="0.7"/><g transform="translate(327.3326483789096 314.5443510633127) rotate(-57.27272727272727) scale(1)"><ellipse cx="0" cy="0" rx="2.1" ry="4" fill="#333d29"/></g><line x1="292" y1="294" x2="339.61" y2="331.98" stroke="#e1e6aa" stroke-width="1" opacity="0.7"/><line x1="292" y1="294" x2="333.26" y2="337.83" stroke="#e1e6aa" stroke-width="1" opacity="0.7"/><g transform="translate(319.50415082570197 322.7184838254618) rotate(-40.909090909090914) scale(1)"><ellipse cx="0" cy="0" rx="2.1" ry="4" fill="#333d29"/></g><line x1="292" y1="294" x2="326.06" y2="342.79" stroke="#e1e6aa" stroke-width="1" opacity="0.7"/><line x1="292" y1="294" x2="318.17" y2="346.76" stroke="#e1e6aa" stroke-width="1" opacity="0.7"/><g transform="translate(309.4474305460792 328.5660158234717) rotate(-24.545454545454547) scale(1)"><ellipse cx="0" cy="0" rx="2.1" ry="4" fill="#333d29"/></g><line x1="292" y1="294" x2="309.75" y2="349.65" stroke="#e1e6aa" stroke-width="1" opacity="0.7"/><line x1="292" y1="294" x2="300.97" y2="351.41" stroke="#e1e6aa" stroke-width="1" opacity="0.7"/><g transform="translate(297.97722320747795 331.61321479147546) rotate(-8.181818181818173) scale(1)"><ellipse cx="0" cy="0" rx="2.1" ry="4" fill="#333d29"/></g><line x1="292" y1="294" x2="292" y2="352" stroke="#e1e6aa" stroke-width="1" opacity="0.7"/><line x1="292" y1="294" x2="283.03" y2="351.41" stroke="#e1e6aa" stroke-width="1" opacity="0.7"/><g transform="translate(286.02277679252205 331.61321479147546) rotate(8.181818181818173) scale(1)"><ellipse cx="0" cy="0" rx="2.1" ry="4" fill="#333d29"/></g><line x1="292" y1="294" x2="274.25" y2="349.65" stroke="#e1e6aa" stroke-width="1" opacity="0.7"/><line x1="292" y1="294" x2="265.83" y2="346.76" stroke="#e1e6aa" stroke-width="1" opacity="0.7"/><g transform="translate(274.5525694539208 328.56601582347173) rotate(24.545454545454547) scale(1)"><ellipse cx="0" cy="0" rx="2.1" ry="4" fill="#333d29"/></g><line x1="292" y1="294" x2="257.94" y2="342.79" stroke="#e1e6aa" stroke-width="1" opacity="0.7"/><line x1="292" y1="294" x2="250.74" y2="337.83" stroke="#e1e6aa" stroke-width="1" opacity="0.7"/><g transform="translate(264.49584917429803 322.7184838254618) rotate(40.90909090909091) scale(1)"><ellipse cx="0" cy="0" rx="2.1" ry="4" fill="#333d29"/></g><line x1="292" y1="294" x2="244.39" y2="331.98" stroke="#e1e6aa" stroke-width="1" opacity="0.7"/><line x1="292" y1="294" x2="239" y2="325.36" stroke="#e1e6aa" stroke-width="1" opacity="0.7"/><g transform="translate(256.6673516210904 314.5443510633127) rotate(57.27272727272728) scale(1)"><ellipse cx="0" cy="0" rx="2.1" ry="4" fill="#333d29"/></g><line x1="292" y1="294" x2="234.69" y2="318.09" stroke="#e1e6aa" stroke-width="1" opacity="0.7"/><line x1="292" y1="294" x2="231.55" y2="310.34" stroke="#e1e6aa" stroke-width="1" opacity="0.7"/><g transform="translate(251.70129510819112 304.70583715997435) rotate(73.63636363636365) scale(1)"><ellipse cx="0" cy="0" rx="2.1" ry="4" fill="#333d29"/></g><line x1="292" y1="294" x2="229.64" y2="302.25" stroke="#e1e6aa" stroke-width="1" opacity="0.7"/><line x1="292" y1="294" x2="229" y2="294" stroke="#e1e6aa" stroke-width="1" opacity="0.7"/><g transform="translate(250.0 294.0) rotate(89.99999999999997) scale(1)"><ellipse cx="0" cy="0" rx="2.1" ry="4" fill="#333d29"/></g><line x1="292" y1="294" x2="229.64" y2="285.75" stroke="#e1e6aa" stroke-width="1" opacity="0.7"/><line x1="292" y1="294" x2="231.55" y2="277.66" stroke="#e1e6aa" stroke-width="1" opacity="0.7"/><g transform="translate(251.70129510819112 283.2941628400257) rotate(106.36363636363635) scale(1)"><ellipse cx="0" cy="0" rx="2.1" ry="4" fill="#333d29"/></g><line x1="292" y1="294" x2="234.69" y2="269.91" stroke="#e1e6aa" stroke-width="1" opacity="0.7"/><line x1="292" y1="294" x2="239" y2="262.64" stroke="#e1e6aa" stroke-width="1" opacity="0.7"/><g transform="translate(256.6673516210904 273.4556489366873) rotate(122.72727272727275) scale(1)"><ellipse cx="0" cy="0" rx="2.1" ry="4" fill="#333d29"/></g><line x1="292" y1="294" x2="244.39" y2="256.02" stroke="#e1e6aa" stroke-width="1" opacity="0.7"/><line x1="292" y1="294" x2="250.74" y2="250.17" stroke="#e1e6aa" stroke-width="1" opacity="0.7"/><g transform="translate(264.49584917429803 265.2815161745382) rotate(139.0909090909091) scale(1)"><ellipse cx="0" cy="0" rx="2.1" ry="4" fill="#333d29"/></g><line x1="292" y1="294" x2="257.94" y2="245.21" stroke="#e1e6aa" stroke-width="1" opacity="0.7"/><line x1="292" y1="294" x2="265.83" y2="241.24" stroke="#e1e6aa" stroke-width="1" opacity="0.7"/><g transform="translate(274.55256945392074 259.4339841765283) rotate(155.45454545454544) scale(1)"><ellipse cx="0" cy="0" rx="2.1" ry="4" fill="#333d29"/></g><line x1="292" y1="294" x2="274.25" y2="238.35" stroke="#e1e6aa" stroke-width="1" opacity="0.7"/><line x1="292" y1="294" x2="283.03" y2="236.59" stroke="#e1e6aa" stroke-width="1" opacity="0.7"/><g transform="translate(286.022776792522 256.38678520852454) rotate(171.8181818181818) scale(1)"><ellipse cx="0" cy="0" rx="2.1" ry="4" fill="#333d29"/></g><line x1="292" y1="294" x2="292" y2="236" stroke="#e1e6aa" stroke-width="1" opacity="0.7"/><line x1="292" y1="294" x2="300.97" y2="236.59" stroke="#e1e6aa" stroke-width="1" opacity="0.7"/><g transform="translate(297.97722320747795 256.38678520852454) rotate(188.1818181818182) scale(1)"><ellipse cx="0" cy="0" rx="2.1" ry="4" fill="#333d29"/></g><line x1="292" y1="294" x2="309.75" y2="238.35" stroke="#e1e6aa" stroke-width="1" opacity="0.7"/><line x1="292" y1="294" x2="318.17" y2="241.24" stroke="#e1e6aa" stroke-width="1" opacity="0.7"/><g transform="translate(309.4474305460792 259.43398417652827) rotate(204.54545454545456) scale(1)"><ellipse cx="0" cy="0" rx="2.1" ry="4" fill="#333d29"/></g><line x1="292" y1="294" x2="326.06" y2="245.21" stroke="#e1e6aa" stroke-width="1" opacity="0.7"/><line x1="292" y1="294" x2="333.26" y2="250.17" stroke="#e1e6aa" stroke-width="1" opacity="0.7"/><g transform="translate(319.50415082570197 265.2815161745382) rotate(220.90909090909088) scale(1)"><ellipse cx="0" cy="0" rx="2.1" ry="4" fill="#333d29"/></g><line x1="292" y1="294" x2="339.61" y2="256.02" stroke="#e1e6aa" stroke-width="1" opacity="0.7"/><line x1="292" y1="294" x2="345" y2="262.64" stroke="#e1e6aa" stroke-width="1" opacity="0.7"/><g transform="translate(327.3326483789096 273.4556489366873) rotate(237.2727272727273) scale(1)"><ellipse cx="0" cy="0" rx="2.1" ry="4" fill="#333d29"/></g><line x1="292" y1="294" x2="349.31" y2="269.91" stroke="#e1e6aa" stroke-width="1" opacity="0.7"/><line x1="292" y1="294" x2="352.45" y2="277.66" stroke="#e1e6aa" stroke-width="1" opacity="0.7"/><g transform="translate(332.2987048918089 283.29416284002565) rotate(253.63636363636368) scale(1)"><ellipse cx="0" cy="0" rx="2.1" ry="4" fill="#333d29"/></g><line x1="292" y1="294" x2="354.36" y2="285.75" stroke="#e1e6aa" stroke-width="1" opacity="0.7"/><ellipse cx="292" cy="294" rx="21" ry="30" fill="#e7e5b6" transform="rotate(18 292 294)"/></g><rect width="480" height="480" fill="#968265" filter="url(#paper)" opacity=".023" pointer-events="none"/>
</svg>