<svg xmlns="http://www.w3.org/2000/svg" width="480" height="480" viewBox="0 0 480 480" role="img" aria-labelledby="title desc">
<title id="title">香蕉片 · 风格化食材插画</title><desc id="desc">原创本地矢量插画。以目录食材名称选择形态，图片不代表原书照片、实测成分或精确品种鉴定。</desc>
<metadata>{&quot;id&quot;:&quot;ing-eeaac3921285&quot;,&quot;rawName&quot;:&quot;香蕉片&quot;,&quot;displayName&quot;:&quot;香蕉片&quot;,&quot;status&quot;:&quot;illustrated&quot;,&quot;motif&quot;:&quot;banana&quot;,&quot;style&quot;:&quot;original_native_svg_editorial_botanical_v1&quot;,&quot;source&quot;:&quot;Original procedural SVG drawing, created locally; no external images.&quot;,&quot;identityBasis&quot;:&quot;catalog displayName; nameNeedsReview gates identifiable food depictions&quot;,&quot;isPhotograph&quot;:false,&quot;isSensoryMeasurement&quot;:false,&quot;cultivarExactness&quot;:&quot;stylized representation; not verified botanical reference&quot;,&quot;preparationHints&quot;:[]}</metadata><defs>
<radialGradient id="red" cx="30%" cy="21%" r="83%"><stop stop-color="#f68667"/><stop offset=".39" stop-color="#d84937"/><stop offset=".83" stop-color="#ae2d2b"/><stop offset="1" stop-color="#7c272c"/></radialGradient>
<radialGradient id="berry" cx="30%" cy="23%" r="80%"><stop stop-color="#a4abc5"/><stop offset=".4" stop-color="#68738f"/><stop offset=".82" stop-color="#42475e"/><stop offset="1" stop-color="#282e45"/></radialGradient>
<radialGradient id="purple" cx="25%" cy="20%" r="87%"><stop stop-color="#b690ad"/><stop offset=".45" stop-color="#755273"/><stop offset="1" stop-color="#3e334c"/></radialGradient>
<linearGradient id="leaf" x1="0" y1="0" x2="1" y2=".65"><stop stop-color="#9aaa66"/><stop offset=".43" stop-color="#6f864e"/><stop offset="1" stop-color="#3f6449"/></linearGradient>
<radialGradient id="green" cx="28%" cy="25%" r="84%"><stop stop-color="#c6cb6d"/><stop offset=".42" stop-color="#94ad58"/><stop offset="1" stop-color="#527846"/></radialGradient>
<radialGradient id="gold" cx="26%" cy="20%" r="89%"><stop stop-color="#f9d991"/><stop offset=".52" stop-color="#dea94e"/><stop offset="1" stop-color="#a86632"/></radialGradient>
<radialGradient id="orange" cx="29%" cy="20%" r="87%"><stop stop-color="#ffd795"/><stop offset=".4" stop-color="#edab55"/><stop offset="1" stop-color="#ce7341"/></radialGradient>
<radialGradient id="brown" cx="26%" cy="23%" r="80%"><stop stop-color="#c6976c"/><stop offset=".45" stop-color="#946948"/><stop offset="1" stop-color="#624633"/></radialGradient>
<radialGradient id="cream" cx="26%" cy="18%" r="87%"><stop stop-color="#fffdf1"/><stop offset=".5" stop-color="#ece3c5"/><stop offset="1" stop-color="#c4b28d"/></radialGradient>
<linearGradient id="milk" x1="0" y1="0" x2="1" y2=".3"><stop stop-color="#e2dbca"/><stop offset=".3" stop-color="#fffdf2"/><stop offset=".74" stop-color="#f7f2e4"/><stop offset="1" stop-color="#d9d1bf"/></linearGradient>
<linearGradient id="glass" x1="0" y1="0" x2="1" y2="0"><stop stop-color="#bfd0c8" stop-opacity=".45"/><stop offset=".2" stop-color="#fffef6" stop-opacity=".8"/><stop offset=".5" stop-color="#e5eadb" stop-opacity=".1"/><stop offset=".83" stop-color="#cad5c6" stop-opacity=".35"/><stop offset="1" stop-color="#9dafa4" stop-opacity=".5"/></linearGradient>
<linearGradient id="fish" x1="0" y1="0" x2="0" y2="1"><stop stop-color="#536f75"/><stop offset=".4" stop-color="#9caea7"/><stop offset=".69" stop-color="#e6e1c8"/><stop offset="1" stop-color="#b0afa0"/></linearGradient>
<linearGradient id="salmon" x1="0" y1="0" x2="1" y2="1"><stop stop-color="#f6b091"/><stop offset=".5" stop-color="#dc826b"/><stop offset="1" stop-color="#b85d4f"/></linearGradient>
<linearGradient id="meat" x1="0" y1="0" x2="1" y2="1"><stop stop-color="#cc8b7e"/><stop offset=".4" stop-color="#a64f4c"/><stop offset="1" stop-color="#70393a"/></linearGradient>
<radialGradient id="roast" cx="26%" cy="20%" r="80%"><stop stop-color="#d49a60"/><stop offset=".4" stop-color="#a66c3e"/><stop offset="1" stop-color="#6c4331"/></radialGradient>
<radialGradient id="oil" cx="29%" cy="20%" r="84%"><stop stop-color="#ecd78b"/><stop offset=".57" stop-color="#b3a150"/><stop offset="1" stop-color="#74703b"/></radialGradient>
<filter id="ground" x="-60%" y="-200%" width="220%" height="500%"><feGaussianBlur stdDeviation="9"/></filter>
<filter id="soft" x="-20%" y="-20%" width="140%" height="150%"><feDropShadow dx="0" dy="5" stdDeviation="4" flood-color="#685438" flood-opacity=".13"/></filter>
<filter id="paper"><feTurbulence type="fractalNoise" baseFrequency=".69" numOctaves="2" stitchTiles="stitch"/><feColorMatrix type="saturate" values="0"/><feComponentTransfer><feFuncA type="linear" slope=".042"/></feComponentTransfer><feBlend in="SourceGraphic" mode="multiply"/></filter>
</defs>
<rect width="480" height="480" fill="#f5f1e8"/><ellipse cx="237" cy="267" rx="175" ry="163" fill="#faf6ed" opacity=".75"/><ellipse cx="239" cy="362" rx="119" ry="15" fill="#8c7b59" opacity="0.13" filter="url(#ground)"/>
<g><g transform="translate(0 0) rotate(-8) scale(0.9)"><path d="M136 164 C132 252 188 305 310 278 Q333 278 343 265 Q325 325 255 340 C150 362 90 261 109 186Z" fill="url(#gold)" stroke="#c59f4b" stroke-width="1.5"/><path d="M122 183 C121 276 191 338 299 302" fill="none" stroke="#fff0a8" stroke-width="4" opacity="0.59"/><path d="M137 167 L124 145 L109 158 L110 185Z" fill="#a89550"/><path d="M311 278 L339 264 L347 269 L334 283Z" fill="#796345"/><ellipse cx="201.61" cy="306.82" rx="1.69" ry="1.2" fill="#93683e" opacity="0.65"/><ellipse cx="180.66" cy="310.59" rx="1.51" ry="1.34" fill="#93683e" opacity="0.65"/><ellipse cx="167.09" cy="302.93" rx="1.77" ry="1.02" fill="#93683e" opacity="0.65"/><ellipse cx="177.36" cy="299.43" rx="1.69" ry="1.11" fill="#93683e" opacity="0.65"/><ellipse cx="152.22" cy="305.93" rx="1.29" ry="0.9" fill="#93683e" opacity="0.65"/><ellipse cx="195.46" cy="307.27" rx="1.39" ry="1.31" fill="#93683e" opacity="0.65"/><ellipse cx="190.23" cy="303.73" rx="1.36" ry="0.98" fill="#93683e" opacity="0.65"/></g><g transform="translate(24 7) rotate(1) scale(0.9)"><path d="M136 164 C132 252 188 305 310 278 Q333 278 343 265 Q325 325 255 340 C150 362 90 261 109 186Z" fill="url(#gold)" stroke="#c59f4b" stroke-width="1.5"/><path d="M122 183 C121 276 191 338 299 302" fill="none" stroke="#fff0a8" stroke-width="4" opacity="0.59"/><path d="M137 167 L124 145 L109 158 L110 185Z" fill="#a89550"/><path d="M311 278 L339 264 L347 269 L334 283Z" fill="#796345"/><ellipse cx="181.02" cy="304.42" rx="1.6" ry="0.79" fill="#93683e" opacity="0.65"/><ellipse cx="181.28" cy="307.11" rx="1.81" ry="0.81" fill="#93683e" opacity="0.65"/><ellipse cx="175.36" cy="305.64" rx="1.03" ry="0.78" fill="#93683e" opacity="0.65"/><ellipse cx="190.5" cy="302.46" rx="1.02" ry="0.78" fill="#93683e" opacity="0.65"/><ellipse cx="185.78" cy="298.59" rx="1.98" ry="0.86" fill="#93683e" opacity="0.65"/><ellipse cx="190.32" cy="299.65" rx="1.16" ry="0.96" fill="#93683e" opacity="0.65"/><ellipse cx="182.38" cy="300.39" rx="1.95" ry="0.99" fill="#93683e" opacity="0.65"/></g><g transform="translate(39 21) rotate(12) scale(0.9)"><path d="M136 164 C132 252 188 305 310 278 Q333 278 343 265 Q325 325 255 340 C150 362 90 261 109 186Z" fill="url(#gold)" stroke="#c59f4b" stroke-width="1.5"/><path d="M122 183 C121 276 191 338 299 302" fill="none" stroke="#fff0a8" stroke-width="4" opacity="0.59"/><path d="M137 167 L124 145 L109 158 L110 185Z" fill="#a89550"/><path d="M311 278 L339 264 L347 269 L334 283Z" fill="#796345"/><ellipse cx="188.9" cy="299.56" rx="1.06" ry="1.07" fill="#93683e" opacity="0.65"/><ellipse cx="193.14" cy="302.36" rx="1.21" ry="0.76" fill="#93683e" opacity="0.65"/><ellipse cx="206.3" cy="306.83" rx="1.99" ry="1" fill="#93683e" opacity="0.65"/><ellipse cx="183.05" cy="306.58" rx="1.99" ry="0.99" fill="#93683e" opacity="0.65"/><ellipse cx="211.95" cy="308.79" rx="1.13" ry="0.8" fill="#93683e" opacity="0.65"/><ellipse cx="200.03" cy="305.58" rx="1.46" ry="0.88" fill="#93683e" opacity="0.65"/><ellipse cx="212.65" cy="303.58" rx="1.26" ry="1.01" fill="#93683e" opacity="0.65"/></g></g><rect width="480" height="480" fill="#968265" filter="url(#paper)" opacity=".023" pointer-events="none"/>
</svg>