<svg xmlns="http://www.w3.org/2000/svg" width="480" height="480" viewBox="0 0 480 480" role="img" aria-labelledby="title desc">
<title id="title">墨西哥玉米饼 · 风格化食材插画</title><desc id="desc">原创本地矢量插画。以目录食材名称选择形态，图片不代表原书照片、实测成分或精确品种鉴定。</desc>
<metadata>{&quot;id&quot;:&quot;ing-a33d27a14938&quot;,&quot;rawName&quot;:&quot;墨西哥玉米餅&quot;,&quot;displayName&quot;:&quot;墨西哥玉米饼&quot;,&quot;status&quot;:&quot;illustrated&quot;,&quot;motif&quot;:&quot;bread&quot;,&quot;style&quot;:&quot;original_native_svg_editorial_botanical_v1&quot;,&quot;source&quot;:&quot;Original procedural SVG drawing, created locally; no external images.&quot;,&quot;identityBasis&quot;:&quot;catalog displayName; nameNeedsReview gates identifiable food depictions&quot;,&quot;isPhotograph&quot;:false,&quot;isSensoryMeasurement&quot;:false,&quot;cultivarExactness&quot;:&quot;stylized representation; not verified botanical reference&quot;,&quot;preparationHints&quot;:[]}</metadata><defs>
<radialGradient id="red" cx="30%" cy="21%" r="83%"><stop stop-color="#f68667"/><stop offset=".39" stop-color="#d84937"/><stop offset=".83" stop-color="#ae2d2b"/><stop offset="1" stop-color="#7c272c"/></radialGradient>
<radialGradient id="berry" cx="30%" cy="23%" r="80%"><stop stop-color="#a4abc5"/><stop offset=".4" stop-color="#68738f"/><stop offset=".82" stop-color="#42475e"/><stop offset="1" stop-color="#282e45"/></radialGradient>
<radialGradient id="purple" cx="25%" cy="20%" r="87%"><stop stop-color="#b690ad"/><stop offset=".45" stop-color="#755273"/><stop offset="1" stop-color="#3e334c"/></radialGradient>
<linearGradient id="leaf" x1="0" y1="0" x2="1" y2=".65"><stop stop-color="#9aaa66"/><stop offset=".43" stop-color="#6f864e"/><stop offset="1" stop-color="#3f6449"/></linearGradient>
<radialGradient id="green" cx="28%" cy="25%" r="84%"><stop stop-color="#c6cb6d"/><stop offset=".42" stop-color="#94ad58"/><stop offset="1" stop-color="#527846"/></radialGradient>
<radialGradient id="gold" cx="26%" cy="20%" r="89%"><stop stop-color="#f9d991"/><stop offset=".52" stop-color="#dea94e"/><stop offset="1" stop-color="#a86632"/></radialGradient>
<radialGradient id="orange" cx="29%" cy="20%" r="87%"><stop stop-color="#ffd795"/><stop offset=".4" stop-color="#edab55"/><stop offset="1" stop-color="#ce7341"/></radialGradient>
<radialGradient id="brown" cx="26%" cy="23%" r="80%"><stop stop-color="#c6976c"/><stop offset=".45" stop-color="#946948"/><stop offset="1" stop-color="#624633"/></radialGradient>
<radialGradient id="cream" cx="26%" cy="18%" r="87%"><stop stop-color="#fffdf1"/><stop offset=".5" stop-color="#ece3c5"/><stop offset="1" stop-color="#c4b28d"/></radialGradient>
<linearGradient id="milk" x1="0" y1="0" x2="1" y2=".3"><stop stop-color="#e2dbca"/><stop offset=".3" stop-color="#fffdf2"/><stop offset=".74" stop-color="#f7f2e4"/><stop offset="1" stop-color="#d9d1bf"/></linearGradient>
<linearGradient id="glass" x1="0" y1="0" x2="1" y2="0"><stop stop-color="#bfd0c8" stop-opacity=".45"/><stop offset=".2" stop-color="#fffef6" stop-opacity=".8"/><stop offset=".5" stop-color="#e5eadb" stop-opacity=".1"/><stop offset=".83" stop-color="#cad5c6" stop-opacity=".35"/><stop offset="1" stop-color="#9dafa4" stop-opacity=".5"/></linearGradient>
<linearGradient id="fish" x1="0" y1="0" x2="0" y2="1"><stop stop-color="#536f75"/><stop offset=".4" stop-color="#9caea7"/><stop offset=".69" stop-color="#e6e1c8"/><stop offset="1" stop-color="#b0afa0"/></linearGradient>
<linearGradient id="salmon" x1="0" y1="0" x2="1" y2="1"><stop stop-color="#f6b091"/><stop offset=".5" stop-color="#dc826b"/><stop offset="1" stop-color="#b85d4f"/></linearGradient>
<linearGradient id="meat" x1="0" y1="0" x2="1" y2="1"><stop stop-color="#cc8b7e"/><stop offset=".4" stop-color="#a64f4c"/><stop offset="1" stop-color="#70393a"/></linearGradient>
<radialGradient id="roast" cx="26%" cy="20%" r="80%"><stop stop-color="#d49a60"/><stop offset=".4" stop-color="#a66c3e"/><stop offset="1" stop-color="#6c4331"/></radialGradient>
<radialGradient id="oil" cx="29%" cy="20%" r="84%"><stop stop-color="#ecd78b"/><stop offset=".57" stop-color="#b3a150"/><stop offset="1" stop-color="#74703b"/></radialGradient>
<filter id="ground" x="-60%" y="-200%" width="220%" height="500%"><feGaussianBlur stdDeviation="9"/></filter>
<filter id="soft" x="-20%" y="-20%" width="140%" height="150%"><feDropShadow dx="0" dy="5" stdDeviation="4" flood-color="#685438" flood-opacity=".13"/></filter>
<filter id="paper"><feTurbulence type="fractalNoise" baseFrequency=".69" numOctaves="2" stitchTiles="stitch"/><feColorMatrix type="saturate" values="0"/><feComponentTransfer><feFuncA type="linear" slope=".042"/></feComponentTransfer><feBlend in="SourceGraphic" mode="multiply"/></filter>
</defs>
<rect width="480" height="480" fill="#f5f1e8"/><ellipse cx="237" cy="267" rx="175" ry="163" fill="#faf6ed" opacity=".75"/><ellipse cx="239" cy="362" rx="119" ry="15" fill="#8c7b59" opacity="0.13" filter="url(#ground)"/>
<g><g transform="translate(192 247) rotate(0) scale(1)"><circle cx="0" cy="0" r="72" fill="url(#gold)" stroke="#bb925e" stroke-width="2"/><ellipse cx="44.81" cy="17.18" rx="1.82" ry="0.72" fill="#8c6847" opacity="0.3"/><ellipse cx="35.2" cy="8.62" rx="1.95" ry="1.34" fill="#8c6847" opacity="0.3"/><ellipse cx="-3.55" cy="-27.63" rx="1.88" ry="1.11" fill="#8c6847" opacity="0.3"/><ellipse cx="39.45" cy="0.44" rx="1.91" ry="1.2" fill="#8c6847" opacity="0.3"/><ellipse cx="58.95" cy="-19.94" rx="1.03" ry="0.85" fill="#8c6847" opacity="0.3"/><ellipse cx="-14.85" cy="-53.39" rx="1.53" ry="1.19" fill="#8c6847" opacity="0.3"/><ellipse cx="-24.72" cy="-1.28" rx="1.51" ry="1.27" fill="#8c6847" opacity="0.3"/><ellipse cx="50.31" cy="33.53" rx="1.65" ry="0.94" fill="#8c6847" opacity="0.3"/><ellipse cx="-33.73" cy="2.91" rx="1.93" ry="0.85" fill="#8c6847" opacity="0.3"/><ellipse cx="27.24" cy="30.46" rx="1.04" ry="1.03" fill="#8c6847" opacity="0.3"/><ellipse cx="-33.5" cy="-4.03" rx="1.96" ry="0.97" fill="#8c6847" opacity="0.3"/><ellipse cx="-59.18" cy="-18.85" rx="1.51" ry="0.95" fill="#8c6847" opacity="0.3"/><ellipse cx="-38.6" cy="14.93" rx="1.83" ry="0.83" fill="#8c6847" opacity="0.3"/><ellipse cx="-30.39" cy="-46.91" rx="1.23" ry="0.77" fill="#8c6847" opacity="0.3"/><ellipse cx="3.43" cy="-12.17" rx="1.08" ry="1.16" fill="#8c6847" opacity="0.3"/><ellipse cx="-49.66" cy="-19.08" rx="1.85" ry="1.27" fill="#8c6847" opacity="0.3"/><ellipse cx="18.08" cy="-39.92" rx="1.41" ry="1.11" fill="#8c6847" opacity="0.3"/><ellipse cx="-7.81" cy="31.49" rx="1.93" ry="0.99" fill="#8c6847" opacity="0.3"/><ellipse cx="55.76" cy="14.89" rx="1.47" ry="0.92" fill="#8c6847" opacity="0.3"/><ellipse cx="-20.19" cy="13.65" rx="1.8" ry="1.04" fill="#8c6847" opacity="0.3"/><ellipse cx="53.84" cy="29.83" rx="1.15" ry="0.79" fill="#8c6847" opacity="0.3"/><ellipse cx="-35.46" cy="45.18" rx="1.74" ry="1.06" fill="#8c6847" opacity="0.3"/><ellipse cx="-40.2" cy="28.21" rx="1.62" ry="1.17" fill="#8c6847" opacity="0.3"/><ellipse cx="-51.65" cy="28.7" rx="1.24" ry="0.97" fill="#8c6847" opacity="0.3"/><ellipse cx="-14.05" cy="27.13" rx="1.82" ry="1.02" fill="#8c6847" opacity="0.3"/><ellipse cx="-38.62" cy="0.2" rx="1.36" ry="0.72" fill="#8c6847" opacity="0.3"/><ellipse cx="-2.44" cy="-7.96" rx="1.24" ry="1.29" fill="#8c6847" opacity="0.3"/><ellipse cx="44.07" cy="22.79" rx="2" ry="1.33" fill="#8c6847" opacity="0.3"/><ellipse cx="-8.35" cy="46.46" rx="1.3" ry="1.26" fill="#8c6847" opacity="0.3"/><ellipse cx="-17.61" cy="17.01" rx="1.57" ry="0.79" fill="#8c6847" opacity="0.3"/><ellipse cx="52.6" cy="7.04" rx="1.85" ry="1.12" fill="#8c6847" opacity="0.3"/><ellipse cx="4.19" cy="49.97" rx="1.23" ry="1.35" fill="#8c6847" opacity="0.3"/><ellipse cx="12.99" cy="22.25" rx="1.14" ry="0.97" fill="#8c6847" opacity="0.3"/><ellipse cx="-38.72" cy="-41.88" rx="1.35" ry="0.89" fill="#8c6847" opacity="0.3"/><ellipse cx="-54.23" cy="-24.72" rx="1.19" ry="1.32" fill="#8c6847" opacity="0.3"/><ellipse cx="-19.93" cy="51.34" rx="1.66" ry="0.87" fill="#8c6847" opacity="0.3"/><ellipse cx="-52.55" cy="24.59" rx="1.72" ry="0.74" fill="#8c6847" opacity="0.3"/><ellipse cx="37.19" cy="5.57" rx="1.38" ry="1.23" fill="#8c6847" opacity="0.3"/><ellipse cx="46.5" cy="1.68" rx="1.87" ry="0.99" fill="#8c6847" opacity="0.3"/><ellipse cx="22.79" cy="-6.03" rx="1.65" ry="0.8" fill="#8c6847" opacity="0.3"/><ellipse cx="-4.62" cy="-46.37" rx="1.01" ry="0.9" fill="#8c6847" opacity="0.3"/><ellipse cx="17.92" cy="45.71" rx="1.28" ry="1.04" fill="#8c6847" opacity="0.3"/><ellipse cx="-28.02" cy="26.7" rx="1.46" ry="0.68" fill="#8c6847" opacity="0.3"/><ellipse cx="35.94" cy="26.59" rx="1.75" ry="1.13" fill="#8c6847" opacity="0.3"/><ellipse cx="43.38" cy="37.24" rx="1.77" ry="0.93" fill="#8c6847" opacity="0.3"/><ellipse cx="-2.81" cy="24.12" rx="1.39" ry="0.79" fill="#8c6847" opacity="0.3"/><ellipse cx="42.67" cy="-23.72" rx="1.52" ry="1.08" fill="#8c6847" opacity="0.3"/><ellipse cx="17.13" cy="2.88" rx="1.08" ry="1.19" fill="#8c6847" opacity="0.3"/><ellipse cx="25.79" cy="-29.92" rx="1.84" ry="0.93" fill="#8c6847" opacity="0.3"/><ellipse cx="-14.71" cy="-58.28" rx="1.96" ry="1.35" fill="#8c6847" opacity="0.3"/><ellipse cx="3.05" cy="-0.45" rx="1.09" ry="1.36" fill="#8c6847" opacity="0.3"/><ellipse cx="-1.21" cy="-5.99" rx="1.01" ry="1.1" fill="#8c6847" opacity="0.3"/><ellipse cx="7.21" cy="43.11" rx="1.84" ry="1.29" fill="#8c6847" opacity="0.3"/><ellipse cx="43.31" cy="43.15" rx="1.32" ry="1.16" fill="#8c6847" opacity="0.3"/><ellipse cx="-1.5" cy="51.9" rx="1.02" ry="1.01" fill="#8c6847" opacity="0.3"/><ellipse cx="51.7" cy="34.12" rx="1.79" ry="0.78" fill="#8c6847" opacity="0.3"/><ellipse cx="-17.24" cy="-54.71" rx="1.47" ry="0.87" fill="#8c6847" opacity="0.3"/><ellipse cx="-34.34" cy="-45.99" rx="1.82" ry="0.99" fill="#8c6847" opacity="0.3"/><ellipse cx="-1.65" cy="24.32" rx="1.28" ry="0.8" fill="#8c6847" opacity="0.3"/><ellipse cx="49.6" cy="32.97" rx="1.53" ry="1.01" fill="#8c6847" opacity="0.3"/><ellipse cx="20.29" cy="50.78" rx="1.15" ry="1.09" fill="#8c6847" opacity="0.3"/><ellipse cx="-30.72" cy="6.94" rx="1.46" ry="1.34" fill="#8c6847" opacity="0.3"/><ellipse cx="-37.48" cy="-28.37" rx="1.81" ry="1.12" fill="#8c6847" opacity="0.3"/><ellipse cx="22.98" cy="19.09" rx="1.49" ry="1.22" fill="#8c6847" opacity="0.3"/><ellipse cx="35.14" cy="26.68" rx="1.13" ry="1.04" fill="#8c6847" opacity="0.3"/><ellipse cx="57.7" cy="-6.69" rx="1.51" ry="1.26" fill="#8c6847" opacity="0.3"/><ellipse cx="-5.35" cy="26.19" rx="1.33" ry="1.11" fill="#8c6847" opacity="0.3"/><ellipse cx="13.82" cy="-26.4" rx="1.56" ry="0.79" fill="#8c6847" opacity="0.3"/><ellipse cx="50.93" cy="-29.19" rx="1.62" ry="0.96" fill="#8c6847" opacity="0.3"/><ellipse cx="-43.32" cy="-22.47" rx="1.88" ry="1.18" fill="#8c6847" opacity="0.3"/></g><g transform="translate(293 285) rotate(0) scale(0.86)"><circle cx="0" cy="0" r="72" fill="url(#gold)" stroke="#bb925e" stroke-width="2"/><ellipse cx="-29.67" cy="8.65" rx="1.86" ry="0.86" fill="#8c6847" opacity="0.3"/><ellipse cx="0.83" cy="0.21" rx="1.27" ry="1.21" fill="#8c6847" opacity="0.3"/><ellipse cx="-35.49" cy="-12.58" rx="1.18" ry="0.75" fill="#8c6847" opacity="0.3"/><ellipse cx="-14.21" cy="12.42" rx="1.19" ry="0.96" fill="#8c6847" opacity="0.3"/><ellipse cx="-46.63" cy="-5.37" rx="1.3" ry="1.11" fill="#8c6847" opacity="0.3"/><ellipse cx="-16.07" cy="-57.52" rx="1.69" ry="1.08" fill="#8c6847" opacity="0.3"/><ellipse cx="14.4" cy="-52.18" rx="1.48" ry="0.79" fill="#8c6847" opacity="0.3"/><ellipse cx="20.16" cy="41.39" rx="1.73" ry="1.01" fill="#8c6847" opacity="0.3"/><ellipse cx="-39.18" cy="-31.73" rx="1.56" ry="0.77" fill="#8c6847" opacity="0.3"/><ellipse cx="-4.8" cy="-2.55" rx="1.42" ry="0.94" fill="#8c6847" opacity="0.3"/><ellipse cx="-40.3" cy="-19.95" rx="1.13" ry="0.92" fill="#8c6847" opacity="0.3"/><ellipse cx="-16.68" cy="11.92" rx="1.01" ry="1.18" fill="#8c6847" opacity="0.3"/><ellipse cx="-11.15" cy="-42.53" rx="1.9" ry="0.86" fill="#8c6847" opacity="0.3"/><ellipse cx="6.04" cy="-27.42" rx="1.31" ry="0.9" fill="#8c6847" opacity="0.3"/><ellipse cx="-35.18" cy="14.53" rx="1.31" ry="1.04" fill="#8c6847" opacity="0.3"/><ellipse cx="-24.82" cy="3.29" rx="1.49" ry="0.69" fill="#8c6847" opacity="0.3"/><ellipse cx="51.6" cy="-13.13" rx="1.95" ry="0.72" fill="#8c6847" opacity="0.3"/><ellipse cx="15.57" cy="-15.39" rx="1.08" ry="0.73" fill="#8c6847" opacity="0.3"/><ellipse cx="33.43" cy="-33.75" rx="1.19" ry="0.8" fill="#8c6847" opacity="0.3"/><ellipse cx="-12.85" cy="-50.02" rx="1.26" ry="1.36" fill="#8c6847" opacity="0.3"/><ellipse cx="37.01" cy="-36.44" rx="1.1" ry="0.89" fill="#8c6847" opacity="0.3"/><ellipse cx="35.99" cy="-40.54" rx="1.92" ry="0.97" fill="#8c6847" opacity="0.3"/><ellipse cx="14.66" cy="-9.36" rx="1.18" ry="1.03" fill="#8c6847" opacity="0.3"/><ellipse cx="50.06" cy="13.98" rx="1.34" ry="0.84" fill="#8c6847" opacity="0.3"/><ellipse cx="-17.86" cy="31.24" rx="1.89" ry="0.97" fill="#8c6847" opacity="0.3"/><ellipse cx="-12.19" cy="-28.2" rx="1.85" ry="1.01" fill="#8c6847" opacity="0.3"/><ellipse cx="8.45" cy="-3.43" rx="1.7" ry="0.99" fill="#8c6847" opacity="0.3"/><ellipse cx="-22.35" cy="-46.76" rx="1.79" ry="0.79" fill="#8c6847" opacity="0.3"/><ellipse cx="54.77" cy="-0.35" rx="1.77" ry="1.23" fill="#8c6847" opacity="0.3"/><ellipse cx="-41.63" cy="2.99" rx="1.06" ry="0.91" fill="#8c6847" opacity="0.3"/><ellipse cx="-49.1" cy="13.47" rx="1.26" ry="1.2" fill="#8c6847" opacity="0.3"/><ellipse cx="-26.11" cy="32.08" rx="1.91" ry="1.12" fill="#8c6847" opacity="0.3"/><ellipse cx="27.78" cy="20.38" rx="1.51" ry="0.95" fill="#8c6847" opacity="0.3"/><ellipse cx="31.1" cy="37.22" rx="1.87" ry="1.16" fill="#8c6847" opacity="0.3"/><ellipse cx="-62.76" cy="-0.98" rx="1.63" ry="0.99" fill="#8c6847" opacity="0.3"/><ellipse cx="-7.91" cy="-19.64" rx="1.41" ry="0.93" fill="#8c6847" opacity="0.3"/><ellipse cx="-59.44" cy="-5.22" rx="1.94" ry="1.14" fill="#8c6847" opacity="0.3"/><ellipse cx="21.61" cy="-41.6" rx="1.93" ry="0.97" fill="#8c6847" opacity="0.3"/><ellipse cx="-34.27" cy="-11.04" rx="1.88" ry="1.2" fill="#8c6847" opacity="0.3"/><ellipse cx="-11.79" cy="-55.54" rx="1.43" ry="1.21" fill="#8c6847" opacity="0.3"/><ellipse cx="-12.16" cy="-52.55" rx="1.23" ry="1.14" fill="#8c6847" opacity="0.3"/><ellipse cx="-39.36" cy="-33.14" rx="1.57" ry="1.28" fill="#8c6847" opacity="0.3"/><ellipse cx="-28.51" cy="31.44" rx="1.87" ry="0.92" fill="#8c6847" opacity="0.3"/><ellipse cx="-30.83" cy="-38.16" rx="1.04" ry="0.98" fill="#8c6847" opacity="0.3"/><ellipse cx="14.55" cy="-8.7" rx="1.61" ry="1.19" fill="#8c6847" opacity="0.3"/><ellipse cx="-35.65" cy="24.12" rx="1.78" ry="0.76" fill="#8c6847" opacity="0.3"/><ellipse cx="46.96" cy="-18.79" rx="1.78" ry="1.09" fill="#8c6847" opacity="0.3"/><ellipse cx="-12.2" cy="-28.04" rx="1.53" ry="0.89" fill="#8c6847" opacity="0.3"/><ellipse cx="58.69" cy="-16.19" rx="1.94" ry="0.68" fill="#8c6847" opacity="0.3"/><ellipse cx="-34.06" cy="24.78" rx="1.81" ry="1.01" fill="#8c6847" opacity="0.3"/><ellipse cx="32.25" cy="50.29" rx="1.01" ry="1.29" fill="#8c6847" opacity="0.3"/><ellipse cx="-25.32" cy="-55.59" rx="1.43" ry="1.32" fill="#8c6847" opacity="0.3"/><ellipse cx="14.24" cy="-59.23" rx="1.67" ry="0.69" fill="#8c6847" opacity="0.3"/><ellipse cx="32.14" cy="37.8" rx="1.42" ry="0.82" fill="#8c6847" opacity="0.3"/><ellipse cx="6.32" cy="50.86" rx="1.08" ry="0.8" fill="#8c6847" opacity="0.3"/><ellipse cx="-11.85" cy="-22.85" rx="1.87" ry="1.01" fill="#8c6847" opacity="0.3"/><ellipse cx="-25.09" cy="-32.23" rx="1.3" ry="0.77" fill="#8c6847" opacity="0.3"/><ellipse cx="17.82" cy="-52.47" rx="1.35" ry="1.23" fill="#8c6847" opacity="0.3"/><ellipse cx="25.09" cy="14.82" rx="1.97" ry="1.34" fill="#8c6847" opacity="0.3"/><ellipse cx="23.29" cy="-57.89" rx="1.79" ry="1.28" fill="#8c6847" opacity="0.3"/><ellipse cx="-12.81" cy="43.2" rx="1.4" ry="1.29" fill="#8c6847" opacity="0.3"/><ellipse cx="-24.89" cy="44.91" rx="1.9" ry="0.92" fill="#8c6847" opacity="0.3"/><ellipse cx="49.47" cy="-26.21" rx="1.67" ry="1.14" fill="#8c6847" opacity="0.3"/><ellipse cx="-12.85" cy="11.95" rx="1.62" ry="1.25" fill="#8c6847" opacity="0.3"/><ellipse cx="16.49" cy="-8.67" rx="1.58" ry="0.89" fill="#8c6847" opacity="0.3"/><ellipse cx="31.9" cy="-31.88" rx="1.28" ry="0.8" fill="#8c6847" opacity="0.3"/><ellipse cx="-31.76" cy="-54.09" rx="1.39" ry="0.95" fill="#8c6847" opacity="0.3"/><ellipse cx="41.02" cy="-31.53" rx="1.33" ry="0.93" fill="#8c6847" opacity="0.3"/><ellipse cx="-23.12" cy="-15.96" rx="1.25" ry="1.22" fill="#8c6847" opacity="0.3"/><ellipse cx="-9.31" cy="-38.07" rx="1.14" ry="1.34" fill="#8c6847" opacity="0.3"/></g><g transform="translate(229 330) rotate(0) scale(0.73)"><circle cx="0" cy="0" r="72" fill="url(#gold)" stroke="#bb925e" stroke-width="2"/><ellipse cx="-2.1" cy="3.77" rx="1.2" ry="0.86" fill="#8c6847" opacity="0.3"/><ellipse cx="26.76" cy="-43.32" rx="1.44" ry="1.03" fill="#8c6847" opacity="0.3"/><ellipse cx="30.48" cy="4.55" rx="1.17" ry="0.97" fill="#8c6847" opacity="0.3"/><ellipse cx="-4.63" cy="-26.93" rx="1.32" ry="0.76" fill="#8c6847" opacity="0.3"/><ellipse cx="-7.65" cy="37.92" rx="1.85" ry="0.81" fill="#8c6847" opacity="0.3"/><ellipse cx="46.18" cy="3.38" rx="1.4" ry="0.85" fill="#8c6847" opacity="0.3"/><ellipse cx="2.53" cy="49.83" rx="1.21" ry="0.83" fill="#8c6847" opacity="0.3"/><ellipse cx="20.67" cy="43.79" rx="1.04" ry="0.78" fill="#8c6847" opacity="0.3"/><ellipse cx="38.94" cy="-17.08" rx="1.74" ry="0.73" fill="#8c6847" opacity="0.3"/><ellipse cx="25.65" cy="-40.96" rx="1.07" ry="1.27" fill="#8c6847" opacity="0.3"/><ellipse cx="54.81" cy="14.29" rx="1.64" ry="1.25" fill="#8c6847" opacity="0.3"/><ellipse cx="-57.79" cy="-5.02" rx="1.01" ry="1.24" fill="#8c6847" opacity="0.3"/><ellipse cx="-16.7" cy="-39.42" rx="1.03" ry="1.29" fill="#8c6847" opacity="0.3"/><ellipse cx="44.95" cy="-7.83" rx="1.81" ry="1.25" fill="#8c6847" opacity="0.3"/><ellipse cx="52.78" cy="-26.77" rx="1.29" ry="0.93" fill="#8c6847" opacity="0.3"/><ellipse cx="5.74" cy="52.59" rx="1.5" ry="0.86" fill="#8c6847" opacity="0.3"/><ellipse cx="52.45" cy="-18.03" rx="1.36" ry="1.31" fill="#8c6847" opacity="0.3"/><ellipse cx="-10.34" cy="-55.93" rx="1.47" ry="0.89" fill="#8c6847" opacity="0.3"/><ellipse cx="-34.1" cy="-33.53" rx="1.45" ry="0.75" fill="#8c6847" opacity="0.3"/><ellipse cx="38.19" cy="5.97" rx="1.95" ry="1" fill="#8c6847" opacity="0.3"/><ellipse cx="-50.32" cy="-3.89" rx="1.08" ry="1.04" fill="#8c6847" opacity="0.3"/><ellipse cx="-21.6" cy="-3.9" rx="1.19" ry="0.97" fill="#8c6847" opacity="0.3"/><ellipse cx="26.61" cy="-21.52" rx="1.1" ry="0.96" fill="#8c6847" opacity="0.3"/><ellipse cx="20.12" cy="-10.26" rx="1.78" ry="0.77" fill="#8c6847" opacity="0.3"/><ellipse cx="32.2" cy="-21.8" rx="1.68" ry="1.34" fill="#8c6847" opacity="0.3"/><ellipse cx="48.43" cy="-15.06" rx="1.54" ry="0.85" fill="#8c6847" opacity="0.3"/><ellipse cx="-41.09" cy="45.71" rx="1.45" ry="0.77" fill="#8c6847" opacity="0.3"/><ellipse cx="12.76" cy="46.98" rx="1.68" ry="1.18" fill="#8c6847" opacity="0.3"/><ellipse cx="-18.42" cy="7.65" rx="1.32" ry="0.94" fill="#8c6847" opacity="0.3"/><ellipse cx="55.11" cy="-29.24" rx="1.18" ry="1.21" fill="#8c6847" opacity="0.3"/><ellipse cx="-41.12" cy="1.14" rx="1.34" ry="1.17" fill="#8c6847" opacity="0.3"/><ellipse cx="43.81" cy="-24.39" rx="1.45" ry="1.3" fill="#8c6847" opacity="0.3"/><ellipse cx="-11.7" cy="61.39" rx="1.52" ry="1.18" fill="#8c6847" opacity="0.3"/><ellipse cx="48.25" cy="17.08" rx="1.64" ry="1.04" fill="#8c6847" opacity="0.3"/><ellipse cx="-48.7" cy="-28.27" rx="1.92" ry="1.25" fill="#8c6847" opacity="0.3"/><ellipse cx="17.67" cy="-17.7" rx="1.81" ry="0.81" fill="#8c6847" opacity="0.3"/><ellipse cx="-38.94" cy="-28.92" rx="1.3" ry="0.7" fill="#8c6847" opacity="0.3"/><ellipse cx="30.54" cy="28.39" rx="1.61" ry="1.15" fill="#8c6847" opacity="0.3"/><ellipse cx="30.45" cy="51.36" rx="1.83" ry="0.76" fill="#8c6847" opacity="0.3"/><ellipse cx="-19.06" cy="-2.51" rx="1.03" ry="1.25" fill="#8c6847" opacity="0.3"/><ellipse cx="-26.27" cy="-56.62" rx="1.07" ry="1.13" fill="#8c6847" opacity="0.3"/><ellipse cx="-51.28" cy="30.59" rx="1.01" ry="1.25" fill="#8c6847" opacity="0.3"/><ellipse cx="-37.06" cy="0.58" rx="1.15" ry="1.21" fill="#8c6847" opacity="0.3"/><ellipse cx="30.58" cy="3.61" rx="1.99" ry="1.33" fill="#8c6847" opacity="0.3"/><ellipse cx="-42.5" cy="-39.84" rx="1.03" ry="1.14" fill="#8c6847" opacity="0.3"/><ellipse cx="36.77" cy="-33.55" rx="1.96" ry="1.01" fill="#8c6847" opacity="0.3"/><ellipse cx="35.81" cy="-34.28" rx="1.2" ry="1.15" fill="#8c6847" opacity="0.3"/><ellipse cx="13.24" cy="31.89" rx="1.56" ry="1.24" fill="#8c6847" opacity="0.3"/><ellipse cx="3.8" cy="-56.83" rx="1" ry="0.95" fill="#8c6847" opacity="0.3"/><ellipse cx="13.93" cy="42.95" rx="1.88" ry="1.19" fill="#8c6847" opacity="0.3"/><ellipse cx="44.94" cy="-33.24" rx="1.65" ry="0.96" fill="#8c6847" opacity="0.3"/><ellipse cx="-27.05" cy="-56.16" rx="1.59" ry="0.92" fill="#8c6847" opacity="0.3"/><ellipse cx="-22.23" cy="-12.13" rx="1.46" ry="1.3" fill="#8c6847" opacity="0.3"/><ellipse cx="42.08" cy="-42.48" rx="1.58" ry="1.09" fill="#8c6847" opacity="0.3"/><ellipse cx="21.98" cy="51.49" rx="1.53" ry="0.69" fill="#8c6847" opacity="0.3"/><ellipse cx="-1.05" cy="-13.93" rx="1.89" ry="1.29" fill="#8c6847" opacity="0.3"/><ellipse cx="-25.64" cy="-41.66" rx="1.61" ry="1.35" fill="#8c6847" opacity="0.3"/><ellipse cx="-11.24" cy="-47.11" rx="1.54" ry="1.19" fill="#8c6847" opacity="0.3"/><ellipse cx="11.97" cy="-30.46" rx="1.09" ry="0.9" fill="#8c6847" opacity="0.3"/><ellipse cx="22.28" cy="-56.08" rx="1.77" ry="1" fill="#8c6847" opacity="0.3"/><ellipse cx="26.34" cy="-52.99" rx="1.36" ry="1.22" fill="#8c6847" opacity="0.3"/><ellipse cx="-40.84" cy="28.41" rx="1.88" ry="1.2" fill="#8c6847" opacity="0.3"/><ellipse cx="21.18" cy="27.43" rx="1.41" ry="0.79" fill="#8c6847" opacity="0.3"/><ellipse cx="43.59" cy="32.59" rx="1.46" ry="0.9" fill="#8c6847" opacity="0.3"/><ellipse cx="34.48" cy="45.94" rx="1.1" ry="1.2" fill="#8c6847" opacity="0.3"/><ellipse cx="23.67" cy="24.79" rx="1.77" ry="1.25" fill="#8c6847" opacity="0.3"/><ellipse cx="-18.58" cy="28.47" rx="1.53" ry="0.99" fill="#8c6847" opacity="0.3"/><ellipse cx="-32.61" cy="10.65" rx="1.41" ry="0.94" fill="#8c6847" opacity="0.3"/><ellipse cx="-16.05" cy="-56.09" rx="1.12" ry="1.14" fill="#8c6847" opacity="0.3"/><ellipse cx="-59.91" cy="7.23" rx="1.18" ry="0.77" fill="#8c6847" opacity="0.3"/></g></g><rect width="480" height="480" fill="#968265" filter="url(#paper)" opacity=".023" pointer-events="none"/>
</svg>