<svg xmlns="http://www.w3.org/2000/svg" width="480" height="480" viewBox="0 0 480 480" role="img" aria-labelledby="title desc">
<title id="title">熟蛤蜊 · 风格化食材插画</title><desc id="desc">原创本地矢量插画。以目录食材名称选择形态，图片不代表原书照片、实测成分或精确品种鉴定。</desc>
<metadata>{&quot;id&quot;:&quot;ing-da72e83c4165&quot;,&quot;rawName&quot;:&quot;熟蛤蜊&quot;,&quot;displayName&quot;:&quot;熟蛤蜊&quot;,&quot;status&quot;:&quot;illustrated&quot;,&quot;motif&quot;:&quot;seafood&quot;,&quot;style&quot;:&quot;original_native_svg_editorial_botanical_v1&quot;,&quot;source&quot;:&quot;Original procedural SVG drawing, created locally; no external images.&quot;,&quot;identityBasis&quot;:&quot;catalog displayName; nameNeedsReview gates identifiable food depictions&quot;,&quot;isPhotograph&quot;:false,&quot;isSensoryMeasurement&quot;:false,&quot;cultivarExactness&quot;:&quot;stylized representation; not verified botanical reference&quot;,&quot;preparationHints&quot;:[&quot;熟&quot;]}</metadata><defs>
<radialGradient id="red" cx="30%" cy="21%" r="83%"><stop stop-color="#f68667"/><stop offset=".39" stop-color="#d84937"/><stop offset=".83" stop-color="#ae2d2b"/><stop offset="1" stop-color="#7c272c"/></radialGradient>
<radialGradient id="berry" cx="30%" cy="23%" r="80%"><stop stop-color="#a4abc5"/><stop offset=".4" stop-color="#68738f"/><stop offset=".82" stop-color="#42475e"/><stop offset="1" stop-color="#282e45"/></radialGradient>
<radialGradient id="purple" cx="25%" cy="20%" r="87%"><stop stop-color="#b690ad"/><stop offset=".45" stop-color="#755273"/><stop offset="1" stop-color="#3e334c"/></radialGradient>
<linearGradient id="leaf" x1="0" y1="0" x2="1" y2=".65"><stop stop-color="#9aaa66"/><stop offset=".43" stop-color="#6f864e"/><stop offset="1" stop-color="#3f6449"/></linearGradient>
<radialGradient id="green" cx="28%" cy="25%" r="84%"><stop stop-color="#c6cb6d"/><stop offset=".42" stop-color="#94ad58"/><stop offset="1" stop-color="#527846"/></radialGradient>
<radialGradient id="gold" cx="26%" cy="20%" r="89%"><stop stop-color="#f9d991"/><stop offset=".52" stop-color="#dea94e"/><stop offset="1" stop-color="#a86632"/></radialGradient>
<radialGradient id="orange" cx="29%" cy="20%" r="87%"><stop stop-color="#ffd795"/><stop offset=".4" stop-color="#edab55"/><stop offset="1" stop-color="#ce7341"/></radialGradient>
<radialGradient id="brown" cx="26%" cy="23%" r="80%"><stop stop-color="#c6976c"/><stop offset=".45" stop-color="#946948"/><stop offset="1" stop-color="#624633"/></radialGradient>
<radialGradient id="cream" cx="26%" cy="18%" r="87%"><stop stop-color="#fffdf1"/><stop offset=".5" stop-color="#ece3c5"/><stop offset="1" stop-color="#c4b28d"/></radialGradient>
<linearGradient id="milk" x1="0" y1="0" x2="1" y2=".3"><stop stop-color="#e2dbca"/><stop offset=".3" stop-color="#fffdf2"/><stop offset=".74" stop-color="#f7f2e4"/><stop offset="1" stop-color="#d9d1bf"/></linearGradient>
<linearGradient id="glass" x1="0" y1="0" x2="1" y2="0"><stop stop-color="#bfd0c8" stop-opacity=".45"/><stop offset=".2" stop-color="#fffef6" stop-opacity=".8"/><stop offset=".5" stop-color="#e5eadb" stop-opacity=".1"/><stop offset=".83" stop-color="#cad5c6" stop-opacity=".35"/><stop offset="1" stop-color="#9dafa4" stop-opacity=".5"/></linearGradient>
<linearGradient id="fish" x1="0" y1="0" x2="0" y2="1"><stop stop-color="#536f75"/><stop offset=".4" stop-color="#9caea7"/><stop offset=".69" stop-color="#e6e1c8"/><stop offset="1" stop-color="#b0afa0"/></linearGradient>
<linearGradient id="salmon" x1="0" y1="0" x2="1" y2="1"><stop stop-color="#f6b091"/><stop offset=".5" stop-color="#dc826b"/><stop offset="1" stop-color="#b85d4f"/></linearGradient>
<linearGradient id="meat" x1="0" y1="0" x2="1" y2="1"><stop stop-color="#cc8b7e"/><stop offset=".4" stop-color="#a64f4c"/><stop offset="1" stop-color="#70393a"/></linearGradient>
<radialGradient id="roast" cx="26%" cy="20%" r="80%"><stop stop-color="#d49a60"/><stop offset=".4" stop-color="#a66c3e"/><stop offset="1" stop-color="#6c4331"/></radialGradient>
<radialGradient id="oil" cx="29%" cy="20%" r="84%"><stop stop-color="#ecd78b"/><stop offset=".57" stop-color="#b3a150"/><stop offset="1" stop-color="#74703b"/></radialGradient>
<filter id="ground" x="-60%" y="-200%" width="220%" height="500%"><feGaussianBlur stdDeviation="9"/></filter>
<filter id="soft" x="-20%" y="-20%" width="140%" height="150%"><feDropShadow dx="0" dy="5" stdDeviation="4" flood-color="#685438" flood-opacity=".13"/></filter>
<filter id="paper"><feTurbulence type="fractalNoise" baseFrequency=".69" numOctaves="2" stitchTiles="stitch"/><feColorMatrix type="saturate" values="0"/><feComponentTransfer><feFuncA type="linear" slope=".042"/></feComponentTransfer><feBlend in="SourceGraphic" mode="multiply"/></filter>
</defs>
<rect width="480" height="480" fill="#f5f1e8"/><ellipse cx="237" cy="267" rx="175" ry="163" fill="#faf6ed" opacity=".75"/><ellipse cx="239" cy="362" rx="119" ry="15" fill="#8c7b59" opacity="0.13" filter="url(#ground)"/>
<g><g transform="translate(183 233) rotate(-20) scale(1)"><path d="M-9-80 C-31-112-95-48-92 9 C-85 78-13 110 38 81 C109 44 80-54 19-85Z" fill="#d5c7ad" stroke="#aa9c84" stroke-width="3"/><path d="M0 84 Q-49.995189453543475 10 -71.42169921934783 -34.190390418706386" fill="none" stroke="#b9a58b" stroke-width="1.5" opacity="0.65"/><path d="M0 84 Q-42.94433667939111 10 -61.34905239913015 -50.40245039967138" fill="none" stroke="#b9a58b" stroke-width="1.5" opacity="0.65"/><path d="M0 84 Q-33.431740589503505 10 -47.75962941357644 -63.72523777888692" fill="none" stroke="#b9a58b" stroke-width="1.5" opacity="0.65"/><path d="M0 84 Q-22.002701720582362 10 -31.432431029403375 -73.39503642254478" fill="none" stroke="#b9a58b" stroke-width="1.5" opacity="0.65"/><path d="M0 84 Q-9.312378871583972 10 -13.303398387977103 -78.85753430684429" fill="none" stroke="#b9a58b" stroke-width="1.5" opacity="0.65"/><path d="M0 84 Q3.911767252223958 10 5.588238931748512 -79.79959892832436" fill="none" stroke="#b9a58b" stroke-width="1.5" opacity="0.65"/><path d="M0 84 Q16.911675033319387 10 24.15953576188484 -76.16722732724126" fill="none" stroke="#b9a58b" stroke-width="1.5" opacity="0.65"/><path d="M0 84 Q28.942137104216204 10 41.34591014888029 -68.16864175594904" fill="none" stroke="#b9a58b" stroke-width="1.5" opacity="0.65"/><path d="M0 84 Q39.313518652078926 10 56.162169502969896 -56.26235353603283" fill="none" stroke="#b9a58b" stroke-width="1.5" opacity="0.65"/><path d="M0 84 Q47.431290079419476 10 67.75898582774211 -41.13087933224905" fill="none" stroke="#b9a58b" stroke-width="1.5" opacity="0.65"/><path d="M0 84 Q52.83010784864601 10 75.47158264092288 -23.641616532907186" fill="none" stroke="#b9a58b" stroke-width="1.5" opacity="0.65"/><path d="M0 84 Q55.20048985841679 10 78.85784265488113 -4.797120518355608" fill="none" stroke="#b9a58b" stroke-width="1.5" opacity="0.65"/><ellipse cx="0" cy="18" rx="55" ry="43" fill="url(#cream)"/></g><g transform="translate(307 293) rotate(26) scale(0.88)"><path d="M-9-80 C-31-112-95-48-92 9 C-85 78-13 110 38 81 C109 44 80-54 19-85Z" fill="#d5c7ad" stroke="#aa9c84" stroke-width="3"/><path d="M0 84 Q-49.995189453543475 10 -71.42169921934783 -34.190390418706386" fill="none" stroke="#b9a58b" stroke-width="1.5" opacity="0.65"/><path d="M0 84 Q-42.94433667939111 10 -61.34905239913015 -50.40245039967138" fill="none" stroke="#b9a58b" stroke-width="1.5" opacity="0.65"/><path d="M0 84 Q-33.431740589503505 10 -47.75962941357644 -63.72523777888692" fill="none" stroke="#b9a58b" stroke-width="1.5" opacity="0.65"/><path d="M0 84 Q-22.002701720582362 10 -31.432431029403375 -73.39503642254478" fill="none" stroke="#b9a58b" stroke-width="1.5" opacity="0.65"/><path d="M0 84 Q-9.312378871583972 10 -13.303398387977103 -78.85753430684429" fill="none" stroke="#b9a58b" stroke-width="1.5" opacity="0.65"/><path d="M0 84 Q3.911767252223958 10 5.588238931748512 -79.79959892832436" fill="none" stroke="#b9a58b" stroke-width="1.5" opacity="0.65"/><path d="M0 84 Q16.911675033319387 10 24.15953576188484 -76.16722732724126" fill="none" stroke="#b9a58b" stroke-width="1.5" opacity="0.65"/><path d="M0 84 Q28.942137104216204 10 41.34591014888029 -68.16864175594904" fill="none" stroke="#b9a58b" stroke-width="1.5" opacity="0.65"/><path d="M0 84 Q39.313518652078926 10 56.162169502969896 -56.26235353603283" fill="none" stroke="#b9a58b" stroke-width="1.5" opacity="0.65"/><path d="M0 84 Q47.431290079419476 10 67.75898582774211 -41.13087933224905" fill="none" stroke="#b9a58b" stroke-width="1.5" opacity="0.65"/><path d="M0 84 Q52.83010784864601 10 75.47158264092288 -23.641616532907186" fill="none" stroke="#b9a58b" stroke-width="1.5" opacity="0.65"/><path d="M0 84 Q55.20048985841679 10 78.85784265488113 -4.797120518355608" fill="none" stroke="#b9a58b" stroke-width="1.5" opacity="0.65"/><ellipse cx="0" cy="18" rx="55" ry="43" fill="url(#cream)"/></g></g><rect width="480" height="480" fill="#968265" filter="url(#paper)" opacity=".023" pointer-events="none"/>
</svg>