<svg xmlns="http://www.w3.org/2000/svg" width="480" height="480" viewBox="0 0 480 480" role="img" aria-labelledby="title desc">
<title id="title">新鲜薰衣草花 · 风格化食材插画</title><desc id="desc">原创本地矢量插画。以目录食材名称选择形态，图片不代表原书照片、实测成分或精确品种鉴定。</desc>
<metadata>{&quot;id&quot;:&quot;ing-14901ef6e737&quot;,&quot;rawName&quot;:&quot;新鮮薰衣草花&quot;,&quot;displayName&quot;:&quot;新鲜薰衣草花&quot;,&quot;status&quot;:&quot;illustrated&quot;,&quot;motif&quot;:&quot;flower&quot;,&quot;style&quot;:&quot;original_native_svg_editorial_botanical_v1&quot;,&quot;source&quot;:&quot;Original procedural SVG drawing, created locally; no external images.&quot;,&quot;identityBasis&quot;:&quot;catalog displayName; nameNeedsReview gates identifiable food depictions&quot;,&quot;isPhotograph&quot;:false,&quot;isSensoryMeasurement&quot;:false,&quot;cultivarExactness&quot;:&quot;stylized representation; not verified botanical reference&quot;,&quot;preparationHints&quot;:[]}</metadata><defs>
<radialGradient id="red" cx="30%" cy="21%" r="83%"><stop stop-color="#f68667"/><stop offset=".39" stop-color="#d84937"/><stop offset=".83" stop-color="#ae2d2b"/><stop offset="1" stop-color="#7c272c"/></radialGradient>
<radialGradient id="berry" cx="30%" cy="23%" r="80%"><stop stop-color="#a4abc5"/><stop offset=".4" stop-color="#68738f"/><stop offset=".82" stop-color="#42475e"/><stop offset="1" stop-color="#282e45"/></radialGradient>
<radialGradient id="purple" cx="25%" cy="20%" r="87%"><stop stop-color="#b690ad"/><stop offset=".45" stop-color="#755273"/><stop offset="1" stop-color="#3e334c"/></radialGradient>
<linearGradient id="leaf" x1="0" y1="0" x2="1" y2=".65"><stop stop-color="#9aaa66"/><stop offset=".43" stop-color="#6f864e"/><stop offset="1" stop-color="#3f6449"/></linearGradient>
<radialGradient id="green" cx="28%" cy="25%" r="84%"><stop stop-color="#c6cb6d"/><stop offset=".42" stop-color="#94ad58"/><stop offset="1" stop-color="#527846"/></radialGradient>
<radialGradient id="gold" cx="26%" cy="20%" r="89%"><stop stop-color="#f9d991"/><stop offset=".52" stop-color="#dea94e"/><stop offset="1" stop-color="#a86632"/></radialGradient>
<radialGradient id="orange" cx="29%" cy="20%" r="87%"><stop stop-color="#ffd795"/><stop offset=".4" stop-color="#edab55"/><stop offset="1" stop-color="#ce7341"/></radialGradient>
<radialGradient id="brown" cx="26%" cy="23%" r="80%"><stop stop-color="#c6976c"/><stop offset=".45" stop-color="#946948"/><stop offset="1" stop-color="#624633"/></radialGradient>
<radialGradient id="cream" cx="26%" cy="18%" r="87%"><stop stop-color="#fffdf1"/><stop offset=".5" stop-color="#ece3c5"/><stop offset="1" stop-color="#c4b28d"/></radialGradient>
<linearGradient id="milk" x1="0" y1="0" x2="1" y2=".3"><stop stop-color="#e2dbca"/><stop offset=".3" stop-color="#fffdf2"/><stop offset=".74" stop-color="#f7f2e4"/><stop offset="1" stop-color="#d9d1bf"/></linearGradient>
<linearGradient id="glass" x1="0" y1="0" x2="1" y2="0"><stop stop-color="#bfd0c8" stop-opacity=".45"/><stop offset=".2" stop-color="#fffef6" stop-opacity=".8"/><stop offset=".5" stop-color="#e5eadb" stop-opacity=".1"/><stop offset=".83" stop-color="#cad5c6" stop-opacity=".35"/><stop offset="1" stop-color="#9dafa4" stop-opacity=".5"/></linearGradient>
<linearGradient id="fish" x1="0" y1="0" x2="0" y2="1"><stop stop-color="#536f75"/><stop offset=".4" stop-color="#9caea7"/><stop offset=".69" stop-color="#e6e1c8"/><stop offset="1" stop-color="#b0afa0"/></linearGradient>
<linearGradient id="salmon" x1="0" y1="0" x2="1" y2="1"><stop stop-color="#f6b091"/><stop offset=".5" stop-color="#dc826b"/><stop offset="1" stop-color="#b85d4f"/></linearGradient>
<linearGradient id="meat" x1="0" y1="0" x2="1" y2="1"><stop stop-color="#cc8b7e"/><stop offset=".4" stop-color="#a64f4c"/><stop offset="1" stop-color="#70393a"/></linearGradient>
<radialGradient id="roast" cx="26%" cy="20%" r="80%"><stop stop-color="#d49a60"/><stop offset=".4" stop-color="#a66c3e"/><stop offset="1" stop-color="#6c4331"/></radialGradient>
<radialGradient id="oil" cx="29%" cy="20%" r="84%"><stop stop-color="#ecd78b"/><stop offset=".57" stop-color="#b3a150"/><stop offset="1" stop-color="#74703b"/></radialGradient>
<filter id="ground" x="-60%" y="-200%" width="220%" height="500%"><feGaussianBlur stdDeviation="9"/></filter>
<filter id="soft" x="-20%" y="-20%" width="140%" height="150%"><feDropShadow dx="0" dy="5" stdDeviation="4" flood-color="#685438" flood-opacity=".13"/></filter>
<filter id="paper"><feTurbulence type="fractalNoise" baseFrequency=".69" numOctaves="2" stitchTiles="stitch"/><feColorMatrix type="saturate" values="0"/><feComponentTransfer><feFuncA type="linear" slope=".042"/></feComponentTransfer><feBlend in="SourceGraphic" mode="multiply"/></filter>
</defs>
<rect width="480" height="480" fill="#f5f1e8"/><ellipse cx="237" cy="267" rx="175" ry="163" fill="#faf6ed" opacity=".75"/><ellipse cx="239" cy="362" rx="119" ry="15" fill="#8c7b59" opacity="0.13" filter="url(#ground)"/>
<g><path d="M239 371 Q155 260 155 120.730017879511" fill="none" stroke="#7d8e60" stroke-width="2"/><ellipse cx="160" cy="120.73" rx="5" ry="8" fill="#a38ea9" transform="rotate(25 160 120.730017879511)"/><ellipse cx="150" cy="129.73" rx="5" ry="8" fill="#a38ea9" transform="rotate(-25 150 129.730017879511)"/><ellipse cx="160" cy="138.73" rx="5" ry="8" fill="#a38ea9" transform="rotate(25 160 138.730017879511)"/><ellipse cx="150" cy="147.73" rx="5" ry="8" fill="#a38ea9" transform="rotate(-25 150 147.730017879511)"/><ellipse cx="160" cy="156.73" rx="5" ry="8" fill="#a38ea9" transform="rotate(25 160 156.730017879511)"/><ellipse cx="150" cy="165.73" rx="5" ry="8" fill="#a38ea9" transform="rotate(-25 150 165.730017879511)"/><ellipse cx="160" cy="174.73" rx="5" ry="8" fill="#a38ea9" transform="rotate(25 160 174.730017879511)"/><ellipse cx="150" cy="183.73" rx="5" ry="8" fill="#a38ea9" transform="rotate(-25 150 183.730017879511)"/><ellipse cx="160" cy="192.73" rx="5" ry="8" fill="#a38ea9" transform="rotate(25 160 192.730017879511)"/><ellipse cx="150" cy="201.73" rx="5" ry="8" fill="#a38ea9" transform="rotate(-25 150 201.730017879511)"/><path d="M239 371 Q183 260 183 124.05702293530268" fill="none" stroke="#7d8e60" stroke-width="2"/><ellipse cx="188" cy="124.06" rx="5" ry="8" fill="#a38ea9" transform="rotate(25 188 124.05702293530268)"/><ellipse cx="178" cy="133.06" rx="5" ry="8" fill="#a38ea9" transform="rotate(-25 178 133.05702293530268)"/><ellipse cx="188" cy="142.06" rx="5" ry="8" fill="#a38ea9" transform="rotate(25 188 142.05702293530268)"/><ellipse cx="178" cy="151.06" rx="5" ry="8" fill="#a38ea9" transform="rotate(-25 178 151.05702293530268)"/><ellipse cx="188" cy="160.06" rx="5" ry="8" fill="#a38ea9" transform="rotate(25 188 160.05702293530268)"/><ellipse cx="178" cy="169.06" rx="5" ry="8" fill="#a38ea9" transform="rotate(-25 178 169.05702293530268)"/><ellipse cx="188" cy="178.06" rx="5" ry="8" fill="#a38ea9" transform="rotate(25 188 178.05702293530268)"/><ellipse cx="178" cy="187.06" rx="5" ry="8" fill="#a38ea9" transform="rotate(-25 178 187.05702293530268)"/><ellipse cx="188" cy="196.06" rx="5" ry="8" fill="#a38ea9" transform="rotate(25 188 196.05702293530268)"/><ellipse cx="178" cy="205.06" rx="5" ry="8" fill="#a38ea9" transform="rotate(-25 178 205.05702293530268)"/><path d="M239 371 Q211 260 211 141.5354568504247" fill="none" stroke="#7d8e60" stroke-width="2"/><ellipse cx="216" cy="141.54" rx="5" ry="8" fill="#a38ea9" transform="rotate(25 216 141.5354568504247)"/><ellipse cx="206" cy="150.54" rx="5" ry="8" fill="#a38ea9" transform="rotate(-25 206 150.5354568504247)"/><ellipse cx="216" cy="159.54" rx="5" ry="8" fill="#a38ea9" transform="rotate(25 216 159.5354568504247)"/><ellipse cx="206" cy="168.54" rx="5" ry="8" fill="#a38ea9" transform="rotate(-25 206 168.5354568504247)"/><ellipse cx="216" cy="177.54" rx="5" ry="8" fill="#a38ea9" transform="rotate(25 216 177.5354568504247)"/><ellipse cx="206" cy="186.54" rx="5" ry="8" fill="#a38ea9" transform="rotate(-25 206 186.5354568504247)"/><ellipse cx="216" cy="195.54" rx="5" ry="8" fill="#a38ea9" transform="rotate(25 216 195.5354568504247)"/><ellipse cx="206" cy="204.54" rx="5" ry="8" fill="#a38ea9" transform="rotate(-25 206 204.5354568504247)"/><ellipse cx="216" cy="213.54" rx="5" ry="8" fill="#a38ea9" transform="rotate(25 216 213.5354568504247)"/><ellipse cx="206" cy="222.54" rx="5" ry="8" fill="#a38ea9" transform="rotate(-25 206 222.5354568504247)"/><path d="M239 371 Q239 260 239 144.38184340867463" fill="none" stroke="#7d8e60" stroke-width="2"/><ellipse cx="244" cy="144.38" rx="5" ry="8" fill="#a38ea9" transform="rotate(25 244 144.38184340867463)"/><ellipse cx="234" cy="153.38" rx="5" ry="8" fill="#a38ea9" transform="rotate(-25 234 153.38184340867463)"/><ellipse cx="244" cy="162.38" rx="5" ry="8" fill="#a38ea9" transform="rotate(25 244 162.38184340867463)"/><ellipse cx="234" cy="171.38" rx="5" ry="8" fill="#a38ea9" transform="rotate(-25 234 171.38184340867463)"/><ellipse cx="244" cy="180.38" rx="5" ry="8" fill="#a38ea9" transform="rotate(25 244 180.38184340867463)"/><ellipse cx="234" cy="189.38" rx="5" ry="8" fill="#a38ea9" transform="rotate(-25 234 189.38184340867463)"/><ellipse cx="244" cy="198.38" rx="5" ry="8" fill="#a38ea9" transform="rotate(25 244 198.38184340867463)"/><ellipse cx="234" cy="207.38" rx="5" ry="8" fill="#a38ea9" transform="rotate(-25 234 207.38184340867463)"/><ellipse cx="244" cy="216.38" rx="5" ry="8" fill="#a38ea9" transform="rotate(25 244 216.38184340867463)"/><ellipse cx="234" cy="225.38" rx="5" ry="8" fill="#a38ea9" transform="rotate(-25 234 225.38184340867463)"/><path d="M239 371 Q267 260 267 146.10697062803985" fill="none" stroke="#7d8e60" stroke-width="2"/><ellipse cx="272" cy="146.11" rx="5" ry="8" fill="#a38ea9" transform="rotate(25 272 146.10697062803985)"/><ellipse cx="262" cy="155.11" rx="5" ry="8" fill="#a38ea9" transform="rotate(-25 262 155.10697062803985)"/><ellipse cx="272" cy="164.11" rx="5" ry="8" fill="#a38ea9" transform="rotate(25 272 164.10697062803985)"/><ellipse cx="262" cy="173.11" rx="5" ry="8" fill="#a38ea9" transform="rotate(-25 262 173.10697062803985)"/><ellipse cx="272" cy="182.11" rx="5" ry="8" fill="#a38ea9" transform="rotate(25 272 182.10697062803985)"/><ellipse cx="262" cy="191.11" rx="5" ry="8" fill="#a38ea9" transform="rotate(-25 262 191.10697062803985)"/><ellipse cx="272" cy="200.11" rx="5" ry="8" fill="#a38ea9" transform="rotate(25 272 200.10697062803985)"/><ellipse cx="262" cy="209.11" rx="5" ry="8" fill="#a38ea9" transform="rotate(-25 262 209.10697062803985)"/><ellipse cx="272" cy="218.11" rx="5" ry="8" fill="#a38ea9" transform="rotate(25 272 218.10697062803985)"/><ellipse cx="262" cy="227.11" rx="5" ry="8" fill="#a38ea9" transform="rotate(-25 262 227.10697062803985)"/><path d="M239 371 Q295 260 295 148.26567260442056" fill="none" stroke="#7d8e60" stroke-width="2"/><ellipse cx="300" cy="148.27" rx="5" ry="8" fill="#a38ea9" transform="rotate(25 300 148.26567260442056)"/><ellipse cx="290" cy="157.27" rx="5" ry="8" fill="#a38ea9" transform="rotate(-25 290 157.26567260442056)"/><ellipse cx="300" cy="166.27" rx="5" ry="8" fill="#a38ea9" transform="rotate(25 300 166.26567260442056)"/><ellipse cx="290" cy="175.27" rx="5" ry="8" fill="#a38ea9" transform="rotate(-25 290 175.26567260442056)"/><ellipse cx="300" cy="184.27" rx="5" ry="8" fill="#a38ea9" transform="rotate(25 300 184.26567260442056)"/><ellipse cx="290" cy="193.27" rx="5" ry="8" fill="#a38ea9" transform="rotate(-25 290 193.26567260442056)"/><ellipse cx="300" cy="202.27" rx="5" ry="8" fill="#a38ea9" transform="rotate(25 300 202.26567260442056)"/><ellipse cx="290" cy="211.27" rx="5" ry="8" fill="#a38ea9" transform="rotate(-25 290 211.26567260442056)"/><ellipse cx="300" cy="220.27" rx="5" ry="8" fill="#a38ea9" transform="rotate(25 300 220.26567260442056)"/><ellipse cx="290" cy="229.27" rx="5" ry="8" fill="#a38ea9" transform="rotate(-25 290 229.26567260442056)"/><path d="M239 371 Q323 260 323 137.94930664820598" fill="none" stroke="#7d8e60" stroke-width="2"/><ellipse cx="328" cy="137.95" rx="5" ry="8" fill="#a38ea9" transform="rotate(25 328 137.94930664820598)"/><ellipse cx="318" cy="146.95" rx="5" ry="8" fill="#a38ea9" transform="rotate(-25 318 146.94930664820598)"/><ellipse cx="328" cy="155.95" rx="5" ry="8" fill="#a38ea9" transform="rotate(25 328 155.94930664820598)"/><ellipse cx="318" cy="164.95" rx="5" ry="8" fill="#a38ea9" transform="rotate(-25 318 164.94930664820598)"/><ellipse cx="328" cy="173.95" rx="5" ry="8" fill="#a38ea9" transform="rotate(25 328 173.94930664820598)"/><ellipse cx="318" cy="182.95" rx="5" ry="8" fill="#a38ea9" transform="rotate(-25 318 182.94930664820598)"/><ellipse cx="328" cy="191.95" rx="5" ry="8" fill="#a38ea9" transform="rotate(25 328 191.94930664820598)"/><ellipse cx="318" cy="200.95" rx="5" ry="8" fill="#a38ea9" transform="rotate(-25 318 200.94930664820598)"/><ellipse cx="328" cy="209.95" rx="5" ry="8" fill="#a38ea9" transform="rotate(25 328 209.94930664820598)"/><ellipse cx="318" cy="218.95" rx="5" ry="8" fill="#a38ea9" transform="rotate(-25 318 218.94930664820598)"/></g><rect width="480" height="480" fill="#968265" filter="url(#paper)" opacity=".023" pointer-events="none"/>
</svg>