<svg xmlns="http://www.w3.org/2000/svg" width="480" height="480" viewBox="0 0 480 480" role="img" aria-labelledby="title desc">
<title id="title">牛肉汤 · 风格化食材插画</title><desc id="desc">原创本地矢量插画。以目录食材名称选择形态，图片不代表原书照片、实测成分或精确品种鉴定。</desc>
<metadata>{&quot;id&quot;:&quot;ing-56b0d34d4bde&quot;,&quot;rawName&quot;:&quot;牛肉湯&quot;,&quot;displayName&quot;:&quot;牛肉汤&quot;,&quot;status&quot;:&quot;illustrated&quot;,&quot;motif&quot;:&quot;bowl&quot;,&quot;style&quot;:&quot;original_native_svg_editorial_botanical_v1&quot;,&quot;source&quot;:&quot;Original procedural SVG drawing, created locally; no external images.&quot;,&quot;identityBasis&quot;:&quot;catalog displayName; nameNeedsReview gates identifiable food depictions&quot;,&quot;isPhotograph&quot;:false,&quot;isSensoryMeasurement&quot;:false,&quot;cultivarExactness&quot;:&quot;stylized representation; not verified botanical reference&quot;,&quot;preparationHints&quot;:[]}</metadata><defs>
<radialGradient id="red" cx="30%" cy="21%" r="83%"><stop stop-color="#f68667"/><stop offset=".39" stop-color="#d84937"/><stop offset=".83" stop-color="#ae2d2b"/><stop offset="1" stop-color="#7c272c"/></radialGradient>
<radialGradient id="berry" cx="30%" cy="23%" r="80%"><stop stop-color="#a4abc5"/><stop offset=".4" stop-color="#68738f"/><stop offset=".82" stop-color="#42475e"/><stop offset="1" stop-color="#282e45"/></radialGradient>
<radialGradient id="purple" cx="25%" cy="20%" r="87%"><stop stop-color="#b690ad"/><stop offset=".45" stop-color="#755273"/><stop offset="1" stop-color="#3e334c"/></radialGradient>
<linearGradient id="leaf" x1="0" y1="0" x2="1" y2=".65"><stop stop-color="#9aaa66"/><stop offset=".43" stop-color="#6f864e"/><stop offset="1" stop-color="#3f6449"/></linearGradient>
<radialGradient id="green" cx="28%" cy="25%" r="84%"><stop stop-color="#c6cb6d"/><stop offset=".42" stop-color="#94ad58"/><stop offset="1" stop-color="#527846"/></radialGradient>
<radialGradient id="gold" cx="26%" cy="20%" r="89%"><stop stop-color="#f9d991"/><stop offset=".52" stop-color="#dea94e"/><stop offset="1" stop-color="#a86632"/></radialGradient>
<radialGradient id="orange" cx="29%" cy="20%" r="87%"><stop stop-color="#ffd795"/><stop offset=".4" stop-color="#edab55"/><stop offset="1" stop-color="#ce7341"/></radialGradient>
<radialGradient id="brown" cx="26%" cy="23%" r="80%"><stop stop-color="#c6976c"/><stop offset=".45" stop-color="#946948"/><stop offset="1" stop-color="#624633"/></radialGradient>
<radialGradient id="cream" cx="26%" cy="18%" r="87%"><stop stop-color="#fffdf1"/><stop offset=".5" stop-color="#ece3c5"/><stop offset="1" stop-color="#c4b28d"/></radialGradient>
<linearGradient id="milk" x1="0" y1="0" x2="1" y2=".3"><stop stop-color="#e2dbca"/><stop offset=".3" stop-color="#fffdf2"/><stop offset=".74" stop-color="#f7f2e4"/><stop offset="1" stop-color="#d9d1bf"/></linearGradient>
<linearGradient id="glass" x1="0" y1="0" x2="1" y2="0"><stop stop-color="#bfd0c8" stop-opacity=".45"/><stop offset=".2" stop-color="#fffef6" stop-opacity=".8"/><stop offset=".5" stop-color="#e5eadb" stop-opacity=".1"/><stop offset=".83" stop-color="#cad5c6" stop-opacity=".35"/><stop offset="1" stop-color="#9dafa4" stop-opacity=".5"/></linearGradient>
<linearGradient id="fish" x1="0" y1="0" x2="0" y2="1"><stop stop-color="#536f75"/><stop offset=".4" stop-color="#9caea7"/><stop offset=".69" stop-color="#e6e1c8"/><stop offset="1" stop-color="#b0afa0"/></linearGradient>
<linearGradient id="salmon" x1="0" y1="0" x2="1" y2="1"><stop stop-color="#f6b091"/><stop offset=".5" stop-color="#dc826b"/><stop offset="1" stop-color="#b85d4f"/></linearGradient>
<linearGradient id="meat" x1="0" y1="0" x2="1" y2="1"><stop stop-color="#cc8b7e"/><stop offset=".4" stop-color="#a64f4c"/><stop offset="1" stop-color="#70393a"/></linearGradient>
<radialGradient id="roast" cx="26%" cy="20%" r="80%"><stop stop-color="#d49a60"/><stop offset=".4" stop-color="#a66c3e"/><stop offset="1" stop-color="#6c4331"/></radialGradient>
<radialGradient id="oil" cx="29%" cy="20%" r="84%"><stop stop-color="#ecd78b"/><stop offset=".57" stop-color="#b3a150"/><stop offset="1" stop-color="#74703b"/></radialGradient>
<filter id="ground" x="-60%" y="-200%" width="220%" height="500%"><feGaussianBlur stdDeviation="9"/></filter>
<filter id="soft" x="-20%" y="-20%" width="140%" height="150%"><feDropShadow dx="0" dy="5" stdDeviation="4" flood-color="#685438" flood-opacity=".13"/></filter>
<filter id="paper"><feTurbulence type="fractalNoise" baseFrequency=".69" numOctaves="2" stitchTiles="stitch"/><feColorMatrix type="saturate" values="0"/><feComponentTransfer><feFuncA type="linear" slope=".042"/></feComponentTransfer><feBlend in="SourceGraphic" mode="multiply"/></filter>
</defs>
<rect width="480" height="480" fill="#f5f1e8"/><ellipse cx="237" cy="267" rx="175" ry="163" fill="#faf6ed" opacity=".75"/><ellipse cx="239" cy="362" rx="119" ry="15" fill="#8c7b59" opacity="0.13" filter="url(#ground)"/>
<g><ellipse cx="238" cy="336" rx="113" ry="24" fill="#b8ab92" opacity="0.4"/><path d="M107 234 C115 384 360 386 372 234Z" fill="#ded6c3" stroke="#bdb49d" stroke-width="1"/><ellipse cx="239" cy="235" rx="132" ry="62" fill="#f7efdb" stroke="#c7bca1" stroke-width="2"/><ellipse cx="239" cy="234" rx="117" ry="49" fill="#b08c59"/><path d="M151 231 Q207 190 307 225 Q337 246 255 263" fill="none" stroke="#dcc396" stroke-width="4" stroke-linecap="round" opacity="0.32"/><ellipse cx="256.54" cy="199.8" rx="0.99" ry="0.65" fill="#6d5c3e" opacity="0.2"/><ellipse cx="265.34" cy="235.19" rx="0.61" ry="0.75" fill="#6d5c3e" opacity="0.2"/><ellipse cx="193.19" cy="259.95" rx="0.9" ry="0.46" fill="#6d5c3e" opacity="0.2"/><ellipse cx="272.96" cy="239.85" rx="0.97" ry="0.43" fill="#6d5c3e" opacity="0.2"/><ellipse cx="277.09" cy="208.67" rx="1.07" ry="0.77" fill="#6d5c3e" opacity="0.2"/><ellipse cx="244.07" cy="199.56" rx="0.8" ry="0.7" fill="#6d5c3e" opacity="0.2"/><ellipse cx="311.99" cy="245.51" rx="0.52" ry="0.65" fill="#6d5c3e" opacity="0.2"/><ellipse cx="264.32" cy="247.98" rx="0.64" ry="0.53" fill="#6d5c3e" opacity="0.2"/><ellipse cx="243.52" cy="262" rx="0.63" ry="0.92" fill="#6d5c3e" opacity="0.2"/><ellipse cx="173.74" cy="205.13" rx="0.53" ry="0.61" fill="#6d5c3e" opacity="0.2"/><ellipse cx="296.73" cy="247.51" rx="1" ry="0.35" fill="#6d5c3e" opacity="0.2"/><ellipse cx="250.98" cy="262.09" rx="0.84" ry="0.66" fill="#6d5c3e" opacity="0.2"/><ellipse cx="231.22" cy="244.82" rx="0.6" ry="0.41" fill="#6d5c3e" opacity="0.2"/><ellipse cx="199.28" cy="265.07" rx="1.07" ry="0.54" fill="#6d5c3e" opacity="0.2"/><ellipse cx="247.52" cy="202.27" rx="1.14" ry="0.54" fill="#6d5c3e" opacity="0.2"/><ellipse cx="291.47" cy="243.23" rx="1.03" ry="0.93" fill="#6d5c3e" opacity="0.2"/><ellipse cx="306.47" cy="207.67" rx="0.93" ry="0.84" fill="#6d5c3e" opacity="0.2"/><ellipse cx="290.86" cy="261.94" rx="0.82" ry="0.38" fill="#6d5c3e" opacity="0.2"/><ellipse cx="234" cy="240.77" rx="0.8" ry="0.9" fill="#6d5c3e" opacity="0.2"/><ellipse cx="184.54" cy="204.11" rx="1.13" ry="0.54" fill="#6d5c3e" opacity="0.2"/><ellipse cx="250.93" cy="221.17" rx="0.86" ry="0.37" fill="#6d5c3e" opacity="0.2"/><ellipse cx="276.8" cy="227.2" rx="1.01" ry="0.37" fill="#6d5c3e" opacity="0.2"/><ellipse cx="316.17" cy="220.89" rx="0.81" ry="0.74" fill="#6d5c3e" opacity="0.2"/><ellipse cx="284.62" cy="253.64" rx="0.53" ry="0.47" fill="#6d5c3e" opacity="0.2"/><ellipse cx="295" cy="252.54" rx="0.92" ry="0.53" fill="#6d5c3e" opacity="0.2"/><ellipse cx="283.58" cy="223.58" rx="0.54" ry="0.92" fill="#6d5c3e" opacity="0.2"/><ellipse cx="271.12" cy="208.88" rx="0.62" ry="0.4" fill="#6d5c3e" opacity="0.2"/><ellipse cx="334.28" cy="245.33" rx="0.67" ry="0.52" fill="#6d5c3e" opacity="0.2"/><ellipse cx="148.52" cy="238.77" rx="1.16" ry="0.49" fill="#6d5c3e" opacity="0.2"/><ellipse cx="217.48" cy="252.33" rx="0.58" ry="0.69" fill="#6d5c3e" opacity="0.2"/><ellipse cx="193.67" cy="258.29" rx="1.06" ry="0.39" fill="#6d5c3e" opacity="0.2"/><ellipse cx="150.68" cy="251.43" rx="0.75" ry="0.4" fill="#6d5c3e" opacity="0.2"/><ellipse cx="289.8" cy="268.8" rx="0.83" ry="0.8" fill="#6d5c3e" opacity="0.2"/><ellipse cx="254.45" cy="230.23" rx="0.96" ry="0.87" fill="#6d5c3e" opacity="0.2"/><ellipse cx="189.93" cy="248.18" rx="0.78" ry="0.7" fill="#6d5c3e" opacity="0.2"/><ellipse cx="315.79" cy="213.57" rx="0.72" ry="0.5" fill="#6d5c3e" opacity="0.2"/><ellipse cx="250.88" cy="236.66" rx="1.12" ry="0.46" fill="#6d5c3e" opacity="0.2"/><ellipse cx="258.98" cy="198.8" rx="0.83" ry="0.57" fill="#6d5c3e" opacity="0.2"/><ellipse cx="211.31" cy="251.1" rx="1.4" ry="0.76" fill="#6d5c3e" opacity="0.2"/><ellipse cx="268.71" cy="215.57" rx="0.64" ry="0.37" fill="#6d5c3e" opacity="0.2"/><ellipse cx="242.79" cy="250.83" rx="1.28" ry="0.93" fill="#6d5c3e" opacity="0.2"/><ellipse cx="204.62" cy="259.44" rx="0.77" ry="0.65" fill="#6d5c3e" opacity="0.2"/><ellipse cx="207.84" cy="217.25" rx="0.75" ry="0.45" fill="#6d5c3e" opacity="0.2"/><ellipse cx="160.36" cy="214.56" rx="0.99" ry="0.83" fill="#6d5c3e" opacity="0.2"/><ellipse cx="209.09" cy="218.16" rx="1.31" ry="0.69" fill="#6d5c3e" opacity="0.2"/><ellipse cx="154.8" cy="225.28" rx="1.38" ry="0.39" fill="#6d5c3e" opacity="0.2"/><ellipse cx="293" cy="254.66" rx="1.29" ry="0.95" fill="#6d5c3e" opacity="0.2"/><ellipse cx="310.34" cy="222.05" rx="0.78" ry="0.61" fill="#6d5c3e" opacity="0.2"/><ellipse cx="331.55" cy="242.19" rx="0.95" ry="0.77" fill="#6d5c3e" opacity="0.2"/><ellipse cx="270.79" cy="259.86" rx="0.72" ry="0.54" fill="#6d5c3e" opacity="0.2"/><ellipse cx="152.6" cy="245.84" rx="1.11" ry="0.89" fill="#6d5c3e" opacity="0.2"/><ellipse cx="301.97" cy="236.69" rx="0.94" ry="0.87" fill="#6d5c3e" opacity="0.2"/><ellipse cx="336.5" cy="244.23" rx="0.72" ry="0.7" fill="#6d5c3e" opacity="0.2"/><ellipse cx="237.91" cy="200.73" rx="0.92" ry="0.54" fill="#6d5c3e" opacity="0.2"/><ellipse cx="238.19" cy="250.49" rx="1.35" ry="0.46" fill="#6d5c3e" opacity="0.2"/><ellipse cx="238.11" cy="232.48" rx="1.01" ry="0.62" fill="#6d5c3e" opacity="0.2"/><ellipse cx="179.35" cy="214.56" rx="1.13" ry="0.62" fill="#6d5c3e" opacity="0.2"/><ellipse cx="185.01" cy="214.93" rx="0.74" ry="0.92" fill="#6d5c3e" opacity="0.2"/><ellipse cx="155.91" cy="229.99" rx="0.92" ry="0.84" fill="#6d5c3e" opacity="0.2"/><ellipse cx="164.54" cy="232.67" rx="0.99" ry="0.61" fill="#6d5c3e" opacity="0.2"/><ellipse cx="213.34" cy="222.52" rx="1.23" ry="0.37" fill="#6d5c3e" opacity="0.2"/><ellipse cx="187.79" cy="226.85" rx="0.92" ry="0.5" fill="#6d5c3e" opacity="0.2"/><ellipse cx="219.79" cy="222.08" rx="1.36" ry="0.81" fill="#6d5c3e" opacity="0.2"/><ellipse cx="306.4" cy="208.2" rx="0.73" ry="0.54" fill="#6d5c3e" opacity="0.2"/><ellipse cx="284.54" cy="247.83" rx="1.31" ry="0.61" fill="#6d5c3e" opacity="0.2"/><ellipse cx="310.02" cy="245.69" rx="1.24" ry="0.8" fill="#6d5c3e" opacity="0.2"/><ellipse cx="241.34" cy="263.78" rx="0.54" ry="0.6" fill="#6d5c3e" opacity="0.2"/><ellipse cx="268.9" cy="208.21" rx="0.73" ry="0.69" fill="#6d5c3e" opacity="0.2"/><ellipse cx="179.83" cy="210.5" rx="1.22" ry="0.54" fill="#6d5c3e" opacity="0.2"/><ellipse cx="233.58" cy="210.32" rx="1.36" ry="0.38" fill="#6d5c3e" opacity="0.2"/><ellipse cx="196.2" cy="249.23" rx="0.81" ry="0.84" fill="#6d5c3e" opacity="0.2"/><ellipse cx="156.3" cy="231.49" rx="0.85" ry="0.81" fill="#6d5c3e" opacity="0.2"/><ellipse cx="243.31" cy="262.72" rx="1.2" ry="0.91" fill="#6d5c3e" opacity="0.2"/><ellipse cx="198.66" cy="202.98" rx="0.61" ry="0.37" fill="#6d5c3e" opacity="0.2"/><ellipse cx="296.46" cy="216.41" rx="1.32" ry="0.7" fill="#6d5c3e" opacity="0.2"/><g transform="translate(210 248) rotate(-52) scale(0.32)"><path d="M0 0 C-28-19-31-58 1-91 C29-61 29-26 0 0Z" fill="url(#leaf)"/><path d="M0-3 Q4-47 1-83" fill="none" stroke="#bdc589" stroke-width="1.2" opacity="0.6"/><path d="M2 -22 Q-8 -26 -15 -36 M2 -22 Q12 -28 17 -38" fill="none" stroke="#c7ce96" stroke-width="0.75" opacity="0.33"/><path d="M2 -37 Q-8 -41 -15 -51 M2 -37 Q12 -43 17 -53" fill="none" stroke="#c7ce96" stroke-width="0.75" opacity="0.33"/><path d="M2 -52 Q-8 -56 -15 -66 M2 -52 Q12 -58 17 -68" fill="none" stroke="#c7ce96" stroke-width="0.75" opacity="0.33"/><path d="M2 -65 Q-8 -69 -15 -79 M2 -65 Q12 -71 17 -81" fill="none" stroke="#c7ce96" stroke-width="0.75" opacity="0.33"/></g><ellipse cx="279" cy="248" rx="7" ry="3" fill="#c49754" opacity="0.6"/></g><rect width="480" height="480" fill="#968265" filter="url(#paper)" opacity=".023" pointer-events="none"/>
</svg>