<svg xmlns="http://www.w3.org/2000/svg" width="480" height="480" viewBox="0 0 480 480" role="img" aria-labelledby="title desc">
<title id="title">熟黑皮波罗门参 · 风格化食材插画</title><desc id="desc">原创本地矢量插画。以目录食材名称选择形态，图片不代表原书照片、实测成分或精确品种鉴定。</desc>
<metadata>{&quot;id&quot;:&quot;ing-b2d5ad02dbcb&quot;,&quot;rawName&quot;:&quot;熟黑皮波羅門參&quot;,&quot;displayName&quot;:&quot;熟黑皮波罗门参&quot;,&quot;status&quot;:&quot;illustrated&quot;,&quot;motif&quot;:&quot;potato&quot;,&quot;style&quot;:&quot;original_native_svg_editorial_botanical_v1&quot;,&quot;source&quot;:&quot;Original procedural SVG drawing, created locally; no external images.&quot;,&quot;identityBasis&quot;:&quot;catalog displayName; nameNeedsReview gates identifiable food depictions&quot;,&quot;isPhotograph&quot;:false,&quot;isSensoryMeasurement&quot;:false,&quot;cultivarExactness&quot;:&quot;stylized representation; not verified botanical reference&quot;,&quot;preparationHints&quot;:[&quot;熟&quot;]}</metadata><defs>
<radialGradient id="red" cx="30%" cy="21%" r="83%"><stop stop-color="#f68667"/><stop offset=".39" stop-color="#d84937"/><stop offset=".83" stop-color="#ae2d2b"/><stop offset="1" stop-color="#7c272c"/></radialGradient>
<radialGradient id="berry" cx="30%" cy="23%" r="80%"><stop stop-color="#a4abc5"/><stop offset=".4" stop-color="#68738f"/><stop offset=".82" stop-color="#42475e"/><stop offset="1" stop-color="#282e45"/></radialGradient>
<radialGradient id="purple" cx="25%" cy="20%" r="87%"><stop stop-color="#b690ad"/><stop offset=".45" stop-color="#755273"/><stop offset="1" stop-color="#3e334c"/></radialGradient>
<linearGradient id="leaf" x1="0" y1="0" x2="1" y2=".65"><stop stop-color="#9aaa66"/><stop offset=".43" stop-color="#6f864e"/><stop offset="1" stop-color="#3f6449"/></linearGradient>
<radialGradient id="green" cx="28%" cy="25%" r="84%"><stop stop-color="#c6cb6d"/><stop offset=".42" stop-color="#94ad58"/><stop offset="1" stop-color="#527846"/></radialGradient>
<radialGradient id="gold" cx="26%" cy="20%" r="89%"><stop stop-color="#f9d991"/><stop offset=".52" stop-color="#dea94e"/><stop offset="1" stop-color="#a86632"/></radialGradient>
<radialGradient id="orange" cx="29%" cy="20%" r="87%"><stop stop-color="#ffd795"/><stop offset=".4" stop-color="#edab55"/><stop offset="1" stop-color="#ce7341"/></radialGradient>
<radialGradient id="brown" cx="26%" cy="23%" r="80%"><stop stop-color="#c6976c"/><stop offset=".45" stop-color="#946948"/><stop offset="1" stop-color="#624633"/></radialGradient>
<radialGradient id="cream" cx="26%" cy="18%" r="87%"><stop stop-color="#fffdf1"/><stop offset=".5" stop-color="#ece3c5"/><stop offset="1" stop-color="#c4b28d"/></radialGradient>
<linearGradient id="milk" x1="0" y1="0" x2="1" y2=".3"><stop stop-color="#e2dbca"/><stop offset=".3" stop-color="#fffdf2"/><stop offset=".74" stop-color="#f7f2e4"/><stop offset="1" stop-color="#d9d1bf"/></linearGradient>
<linearGradient id="glass" x1="0" y1="0" x2="1" y2="0"><stop stop-color="#bfd0c8" stop-opacity=".45"/><stop offset=".2" stop-color="#fffef6" stop-opacity=".8"/><stop offset=".5" stop-color="#e5eadb" stop-opacity=".1"/><stop offset=".83" stop-color="#cad5c6" stop-opacity=".35"/><stop offset="1" stop-color="#9dafa4" stop-opacity=".5"/></linearGradient>
<linearGradient id="fish" x1="0" y1="0" x2="0" y2="1"><stop stop-color="#536f75"/><stop offset=".4" stop-color="#9caea7"/><stop offset=".69" stop-color="#e6e1c8"/><stop offset="1" stop-color="#b0afa0"/></linearGradient>
<linearGradient id="salmon" x1="0" y1="0" x2="1" y2="1"><stop stop-color="#f6b091"/><stop offset=".5" stop-color="#dc826b"/><stop offset="1" stop-color="#b85d4f"/></linearGradient>
<linearGradient id="meat" x1="0" y1="0" x2="1" y2="1"><stop stop-color="#cc8b7e"/><stop offset=".4" stop-color="#a64f4c"/><stop offset="1" stop-color="#70393a"/></linearGradient>
<radialGradient id="roast" cx="26%" cy="20%" r="80%"><stop stop-color="#d49a60"/><stop offset=".4" stop-color="#a66c3e"/><stop offset="1" stop-color="#6c4331"/></radialGradient>
<radialGradient id="oil" cx="29%" cy="20%" r="84%"><stop stop-color="#ecd78b"/><stop offset=".57" stop-color="#b3a150"/><stop offset="1" stop-color="#74703b"/></radialGradient>
<filter id="ground" x="-60%" y="-200%" width="220%" height="500%"><feGaussianBlur stdDeviation="9"/></filter>
<filter id="soft" x="-20%" y="-20%" width="140%" height="150%"><feDropShadow dx="0" dy="5" stdDeviation="4" flood-color="#685438" flood-opacity=".13"/></filter>
<filter id="paper"><feTurbulence type="fractalNoise" baseFrequency=".69" numOctaves="2" stitchTiles="stitch"/><feColorMatrix type="saturate" values="0"/><feComponentTransfer><feFuncA type="linear" slope=".042"/></feComponentTransfer><feBlend in="SourceGraphic" mode="multiply"/></filter>
</defs>
<rect width="480" height="480" fill="#f5f1e8"/><ellipse cx="237" cy="267" rx="175" ry="163" fill="#faf6ed" opacity=".75"/><ellipse cx="239" cy="362" rx="119" ry="15" fill="#8c7b59" opacity="0.13" filter="url(#ground)"/>
<g><g transform="translate(177 229) rotate(-35) scale(1)"><ellipse cx="0" cy="0" rx="79" ry="98" fill="#c9ae7c" stroke="#9d805c" stroke-width="1.2"/><ellipse cx="-21.71" cy="-61.43" rx="1.21" ry="1.08" fill="#796349" opacity="0.27"/><ellipse cx="-32.21" cy="-45.14" rx="1.56" ry="0.59" fill="#796349" opacity="0.27"/><ellipse cx="-35.07" cy="-52.35" rx="1.49" ry="0.91" fill="#796349" opacity="0.27"/><ellipse cx="47.8" cy="52.64" rx="1.19" ry="0.75" fill="#796349" opacity="0.27"/><ellipse cx="-55.33" cy="8.4" rx="1.32" ry="0.52" fill="#796349" opacity="0.27"/><ellipse cx="-37.26" cy="55.37" rx="1.33" ry="0.61" fill="#796349" opacity="0.27"/><ellipse cx="-49.42" cy="39.43" rx="1.2" ry="0.92" fill="#796349" opacity="0.27"/><ellipse cx="-40.37" cy="-27.79" rx="1.09" ry="1.01" fill="#796349" opacity="0.27"/><ellipse cx="46.67" cy="42.08" rx="1.53" ry="0.71" fill="#796349" opacity="0.27"/><ellipse cx="50.17" cy="-48.49" rx="1.34" ry="1.06" fill="#796349" opacity="0.27"/><ellipse cx="32.67" cy="-70.57" rx="1.13" ry="0.9" fill="#796349" opacity="0.27"/><ellipse cx="-41.39" cy="-59.98" rx="1.18" ry="0.71" fill="#796349" opacity="0.27"/><ellipse cx="27.07" cy="16.8" rx="1.01" ry="0.88" fill="#796349" opacity="0.27"/><ellipse cx="6.56" cy="38.56" rx="0.62" ry="0.8" fill="#796349" opacity="0.27"/><ellipse cx="23.74" cy="60.84" rx="1.12" ry="0.68" fill="#796349" opacity="0.27"/><ellipse cx="-12.44" cy="-11.33" rx="0.64" ry="0.49" fill="#796349" opacity="0.27"/><ellipse cx="23.1" cy="-29.48" rx="0.82" ry="0.58" fill="#796349" opacity="0.27"/><ellipse cx="-5.72" cy="63.81" rx="1.09" ry="0.62" fill="#796349" opacity="0.27"/><ellipse cx="-48.91" cy="-48.22" rx="1.24" ry="0.58" fill="#796349" opacity="0.27"/><ellipse cx="33.31" cy="42.92" rx="0.64" ry="0.53" fill="#796349" opacity="0.27"/><ellipse cx="25.19" cy="-36.22" rx="1.04" ry="0.7" fill="#796349" opacity="0.27"/><ellipse cx="15.21" cy="-21.31" rx="1.46" ry="0.82" fill="#796349" opacity="0.27"/><ellipse cx="-30.75" cy="35.4" rx="1.31" ry="0.89" fill="#796349" opacity="0.27"/><ellipse cx="-56.25" cy="-18.83" rx="0.99" ry="0.62" fill="#796349" opacity="0.27"/><ellipse cx="35.4" cy="48.83" rx="1.11" ry="0.65" fill="#796349" opacity="0.27"/><ellipse cx="8.65" cy="1.89" rx="0.91" ry="0.44" fill="#796349" opacity="0.27"/><ellipse cx="2.11" cy="6.75" rx="0.9" ry="0.81" fill="#796349" opacity="0.27"/><ellipse cx="-7.93" cy="-46.92" rx="1.15" ry="0.45" fill="#796349" opacity="0.27"/><ellipse cx="-2.02" cy="14.35" rx="1.3" ry="1.05" fill="#796349" opacity="0.27"/><ellipse cx="23.05" cy="65.55" rx="0.75" ry="0.46" fill="#796349" opacity="0.27"/><ellipse cx="46.63" cy="10.55" rx="1.18" ry="0.55" fill="#796349" opacity="0.27"/><ellipse cx="-6.52" cy="-46.36" rx="1.31" ry="0.9" fill="#796349" opacity="0.27"/><ellipse cx="21.02" cy="66.91" rx="0.72" ry="0.86" fill="#796349" opacity="0.27"/><ellipse cx="27.89" cy="72.69" rx="0.79" ry="1.02" fill="#796349" opacity="0.27"/><ellipse cx="14.02" cy="75.21" rx="0.95" ry="0.69" fill="#796349" opacity="0.27"/><ellipse cx="-54.36" cy="-31.81" rx="1.44" ry="0.93" fill="#796349" opacity="0.27"/><ellipse cx="-56.86" cy="45.32" rx="1.26" ry="0.99" fill="#796349" opacity="0.27"/><ellipse cx="20.33" cy="-55.49" rx="1.13" ry="0.75" fill="#796349" opacity="0.27"/><ellipse cx="-27.16" cy="28.7" rx="0.62" ry="0.45" fill="#796349" opacity="0.27"/><ellipse cx="-50.73" cy="7.19" rx="1.59" ry="0.56" fill="#796349" opacity="0.27"/><ellipse cx="35.68" cy="-65.24" rx="1.16" ry="0.88" fill="#796349" opacity="0.27"/><ellipse cx="15.25" cy="4.52" rx="1.47" ry="0.89" fill="#796349" opacity="0.27"/><ellipse cx="59.16" cy="18.4" rx="1.36" ry="0.59" fill="#796349" opacity="0.27"/><ellipse cx="9.82" cy="-43.51" rx="1.24" ry="0.56" fill="#796349" opacity="0.27"/><ellipse cx="19.94" cy="78.55" rx="1.09" ry="0.63" fill="#796349" opacity="0.27"/><ellipse cx="-39.03" cy="10.17" rx="0.62" ry="0.98" fill="#796349" opacity="0.27"/><ellipse cx="-38.54" cy="10.11" rx="0.63" ry="0.96" fill="#796349" opacity="0.27"/><ellipse cx="-8.14" cy="-68.47" rx="1.16" ry="0.91" fill="#796349" opacity="0.27"/><ellipse cx="31.65" cy="-73.36" rx="1.38" ry="0.67" fill="#796349" opacity="0.27"/><ellipse cx="2.99" cy="7.41" rx="0.63" ry="0.54" fill="#796349" opacity="0.27"/><ellipse cx="-3.99" cy="-55.34" rx="1.55" ry="0.61" fill="#796349" opacity="0.27"/><ellipse cx="45.98" cy="60.71" rx="1.5" ry="1.08" fill="#796349" opacity="0.27"/><ellipse cx="33.29" cy="-44.9" rx="0.72" ry="0.97" fill="#796349" opacity="0.27"/><ellipse cx="-47.41" cy="38.31" rx="1.08" ry="0.88" fill="#796349" opacity="0.27"/><ellipse cx="64.18" cy="-12.13" rx="1.31" ry="0.65" fill="#796349" opacity="0.27"/><ellipse cx="56.52" cy="40.9" rx="1.44" ry="0.82" fill="#796349" opacity="0.27"/><ellipse cx="28.26" cy="3.18" rx="0.74" ry="0.86" fill="#796349" opacity="0.27"/><ellipse cx="10.73" cy="-12.7" rx="1.12" ry="0.47" fill="#796349" opacity="0.27"/><ellipse cx="-35.66" cy="38.42" rx="1.24" ry="0.72" fill="#796349" opacity="0.27"/><ellipse cx="16.79" cy="-8.25" rx="1.58" ry="0.79" fill="#796349" opacity="0.27"/><ellipse cx="-39.2" cy="-18.47" rx="0.72" ry="0.53" fill="#796349" opacity="0.27"/><ellipse cx="-9.16" cy="-6.62" rx="0.92" ry="0.5" fill="#796349" opacity="0.27"/><ellipse cx="0.15" cy="69.02" rx="1.34" ry="0.48" fill="#796349" opacity="0.27"/><ellipse cx="-0.84" cy="75.73" rx="1.25" ry="1" fill="#796349" opacity="0.27"/><ellipse cx="-17.81" cy="-28.95" rx="1.07" ry="0.64" fill="#796349" opacity="0.27"/><ellipse cx="38.69" cy="13.71" rx="1.55" ry="0.65" fill="#796349" opacity="0.27"/><ellipse cx="-2.2" cy="-1.72" rx="1.34" ry="0.54" fill="#796349" opacity="0.27"/><ellipse cx="52" cy="-23.71" rx="1.2" ry="0.71" fill="#796349" opacity="0.27"/><ellipse cx="14.44" cy="28.88" rx="1.29" ry="0.42" fill="#796349" opacity="0.27"/><ellipse cx="31.77" cy="-41.63" rx="1" ry="0.82" fill="#796349" opacity="0.27"/><ellipse cx="3.58" cy="-60.18" rx="1.45" ry="0.92" fill="#796349" opacity="0.27"/><ellipse cx="-21.71" cy="-50.01" rx="1.13" ry="0.64" fill="#796349" opacity="0.27"/><ellipse cx="-28.11" cy="-60.78" rx="0.85" ry="0.92" fill="#796349" opacity="0.27"/><ellipse cx="13.99" cy="-81.23" rx="1.11" ry="0.69" fill="#796349" opacity="0.27"/><ellipse cx="32.52" cy="50.3" rx="1.32" ry="0.55" fill="#796349" opacity="0.27"/><ellipse cx="38.3" cy="-38.5" rx="1.04" ry="0.93" fill="#796349" opacity="0.27"/><ellipse cx="2.18" cy="8.15" rx="1.34" ry="1.03" fill="#796349" opacity="0.27"/><ellipse cx="24.63" cy="-59.14" rx="1.25" ry="0.54" fill="#796349" opacity="0.27"/><ellipse cx="-23.79" cy="28.31" rx="1.31" ry="0.91" fill="#796349" opacity="0.27"/><ellipse cx="-46.38" cy="-27.36" rx="1.51" ry="0.76" fill="#796349" opacity="0.27"/><ellipse cx="-31.02" cy="-58.46" rx="1.41" ry="0.67" fill="#796349" opacity="0.27"/><ellipse cx="56.03" cy="-42.79" rx="0.82" ry="1.07" fill="#796349" opacity="0.27"/><ellipse cx="16.7" cy="20.46" rx="0.66" ry="0.85" fill="#796349" opacity="0.27"/><ellipse cx="3.35" cy="9.8" rx="1.48" ry="0.93" fill="#796349" opacity="0.27"/><ellipse cx="24.09" cy="-24.5" rx="0.81" ry="0.93" fill="#796349" opacity="0.27"/><ellipse cx="27.42" cy="-46.59" rx="0.77" ry="0.92" fill="#796349" opacity="0.27"/><ellipse cx="19.9" cy="-26.8" rx="1.58" ry="0.6" fill="#796349" opacity="0.27"/><ellipse cx="-24.57" cy="47.79" rx="1.15" ry="0.78" fill="#796349" opacity="0.27"/><ellipse cx="-21.14" cy="-48.29" rx="0.93" ry="0.69" fill="#796349" opacity="0.27"/><ellipse cx="-35.58" cy="-38.43" rx="0.62" ry="0.5" fill="#796349" opacity="0.27"/><ellipse cx="40.47" cy="-39.41" rx="1.51" ry="0.52" fill="#796349" opacity="0.27"/><ellipse cx="-50.28" cy="-46.95" rx="0.63" ry="0.6" fill="#796349" opacity="0.27"/><ellipse cx="-9.53" cy="-83.2" rx="0.99" ry="0.45" fill="#796349" opacity="0.27"/><ellipse cx="-37.15" cy="-54.95" rx="1.44" ry="0.86" fill="#796349" opacity="0.27"/><ellipse cx="-43.31" cy="18.87" rx="1.13" ry="1.02" fill="#796349" opacity="0.27"/><path d="M30.728540980071315 -0.2922858624839222 q3 3 6 0" fill="none" stroke="#8d7351" stroke-width="1.3"/><path d="M-21.995868041281803 -9.31513737142231 q3 3 6 0" fill="none" stroke="#8d7351" stroke-width="1.3"/><path d="M20.938107096592788 26.29766275947857 q3 3 6 0" fill="none" stroke="#8d7351" stroke-width="1.3"/><path d="M-58.04848630969059 -4.112747331399746 q3 3 6 0" fill="none" stroke="#8d7351" stroke-width="1.3"/><path d="M-24.009648044146708 -23.98118020237912 q3 3 6 0" fill="none" stroke="#8d7351" stroke-width="1.3"/><path d="M-49.07536550546971 39.759128950877084 q3 3 6 0" fill="none" stroke="#8d7351" stroke-width="1.3"/><path d="M20.561299381769373 -49.673957241106734 q3 3 6 0" fill="none" stroke="#8d7351" stroke-width="1.3"/><path d="M-58.2572946611816 -10.99073711865018 q3 3 6 0" fill="none" stroke="#8d7351" stroke-width="1.3"/><path d="M-15.8460083314707 60.865320851493294 q3 3 6 0" fill="none" stroke="#8d7351" stroke-width="1.3"/></g><g transform="translate(286 288) rotate(18) scale(1)"><ellipse cx="0" cy="0" rx="85" ry="58" fill="#c9ae7c" stroke="#9d805c" stroke-width="1.2"/><ellipse cx="-39.24" cy="9.6" rx="1.18" ry="0.43" fill="#796349" opacity="0.27"/><ellipse cx="-61.01" cy="15.83" rx="0.94" ry="1.01" fill="#796349" opacity="0.27"/><ellipse cx="32.23" cy="0.45" rx="1.48" ry="0.94" fill="#796349" opacity="0.27"/><ellipse cx="34.48" cy="13.61" rx="1.42" ry="0.69" fill="#796349" opacity="0.27"/><ellipse cx="-34.75" cy="15.33" rx="1.04" ry="0.82" fill="#796349" opacity="0.27"/><ellipse cx="-24.04" cy="-32.05" rx="1.58" ry="1.07" fill="#796349" opacity="0.27"/><ellipse cx="58.89" cy="13.23" rx="1.52" ry="1.07" fill="#796349" opacity="0.27"/><ellipse cx="41.82" cy="-24.63" rx="1.51" ry="0.75" fill="#796349" opacity="0.27"/><ellipse cx="-6.07" cy="-48.33" rx="0.6" ry="0.8" fill="#796349" opacity="0.27"/><ellipse cx="45.55" cy="-4.18" rx="1.23" ry="0.46" fill="#796349" opacity="0.27"/><ellipse cx="10.14" cy="33.47" rx="0.65" ry="0.8" fill="#796349" opacity="0.27"/><ellipse cx="-34.83" cy="-18.44" rx="1.44" ry="1.02" fill="#796349" opacity="0.27"/><ellipse cx="-16.33" cy="1" rx="0.99" ry="0.46" fill="#796349" opacity="0.27"/><ellipse cx="10.86" cy="8.64" rx="0.95" ry="0.65" fill="#796349" opacity="0.27"/><ellipse cx="-40.72" cy="-18.62" rx="0.7" ry="1.03" fill="#796349" opacity="0.27"/><ellipse cx="-29.49" cy="30.42" rx="0.91" ry="0.87" fill="#796349" opacity="0.27"/><ellipse cx="-3.26" cy="1.25" rx="0.96" ry="0.81" fill="#796349" opacity="0.27"/><ellipse cx="67.59" cy="2.29" rx="0.81" ry="1.03" fill="#796349" opacity="0.27"/><ellipse cx="50.43" cy="5.22" rx="1.5" ry="0.56" fill="#796349" opacity="0.27"/><ellipse cx="-69.62" cy="-8.04" rx="1.06" ry="0.43" fill="#796349" opacity="0.27"/><ellipse cx="-25.28" cy="-6.21" rx="1.57" ry="0.67" fill="#796349" opacity="0.27"/><ellipse cx="45.99" cy="29.29" rx="0.82" ry="0.49" fill="#796349" opacity="0.27"/><ellipse cx="30.77" cy="41.09" rx="1.02" ry="0.55" fill="#796349" opacity="0.27"/><ellipse cx="-27.64" cy="44.14" rx="1" ry="1.08" fill="#796349" opacity="0.27"/><ellipse cx="-35.4" cy="-11.42" rx="1.32" ry="0.71" fill="#796349" opacity="0.27"/><ellipse cx="31.84" cy="32.63" rx="1.59" ry="1" fill="#796349" opacity="0.27"/><ellipse cx="-21.18" cy="-15.68" rx="1.32" ry="0.78" fill="#796349" opacity="0.27"/><ellipse cx="-14.01" cy="24.17" rx="1.51" ry="0.48" fill="#796349" opacity="0.27"/><ellipse cx="5.9" cy="-41.92" rx="1.23" ry="0.64" fill="#796349" opacity="0.27"/><ellipse cx="-23.43" cy="-2.67" rx="1.29" ry="0.94" fill="#796349" opacity="0.27"/><ellipse cx="43.05" cy="-14.91" rx="1.19" ry="0.79" fill="#796349" opacity="0.27"/><ellipse cx="70.1" cy="-5.58" rx="1.31" ry="1.05" fill="#796349" opacity="0.27"/><ellipse cx="-51.74" cy="12.23" rx="1.31" ry="1.07" fill="#796349" opacity="0.27"/><ellipse cx="-1.94" cy="-37.7" rx="1.44" ry="0.53" fill="#796349" opacity="0.27"/><ellipse cx="-57.86" cy="30.21" rx="1.03" ry="0.82" fill="#796349" opacity="0.27"/><ellipse cx="3.27" cy="-33.39" rx="1.41" ry="0.8" fill="#796349" opacity="0.27"/><ellipse cx="-39.74" cy="13.45" rx="0.69" ry="0.5" fill="#796349" opacity="0.27"/><ellipse cx="-6.57" cy="1.24" rx="1.45" ry="0.5" fill="#796349" opacity="0.27"/><ellipse cx="5.92" cy="-30.2" rx="0.74" ry="1.02" fill="#796349" opacity="0.27"/><ellipse cx="14.6" cy="7.27" rx="0.79" ry="0.94" fill="#796349" opacity="0.27"/><ellipse cx="40.07" cy="38.86" rx="1.55" ry="1.07" fill="#796349" opacity="0.27"/><ellipse cx="18.09" cy="2.05" rx="1.23" ry="0.6" fill="#796349" opacity="0.27"/><ellipse cx="-19.11" cy="28.01" rx="1.21" ry="0.84" fill="#796349" opacity="0.27"/><ellipse cx="38.7" cy="-39.96" rx="1.43" ry="0.9" fill="#796349" opacity="0.27"/><ellipse cx="17.09" cy="35.39" rx="0.72" ry="0.67" fill="#796349" opacity="0.27"/><ellipse cx="-44.54" cy="-25.01" rx="1.09" ry="0.55" fill="#796349" opacity="0.27"/><ellipse cx="-19.03" cy="-37.88" rx="0.86" ry="0.88" fill="#796349" opacity="0.27"/><ellipse cx="23.21" cy="-22.49" rx="1.37" ry="0.7" fill="#796349" opacity="0.27"/><ellipse cx="56.51" cy="21.3" rx="0.82" ry="0.73" fill="#796349" opacity="0.27"/><ellipse cx="-2.59" cy="-12.96" rx="1" ry="1.03" fill="#796349" opacity="0.27"/><ellipse cx="-19.29" cy="-11.62" rx="0.97" ry="0.44" fill="#796349" opacity="0.27"/><ellipse cx="23.93" cy="-34.94" rx="0.99" ry="0.87" fill="#796349" opacity="0.27"/><ellipse cx="-41.05" cy="29.82" rx="0.82" ry="0.95" fill="#796349" opacity="0.27"/><ellipse cx="39.45" cy="-32.51" rx="1.55" ry="0.44" fill="#796349" opacity="0.27"/><ellipse cx="-4.86" cy="-20.02" rx="1.02" ry="1.08" fill="#796349" opacity="0.27"/><ellipse cx="-48.78" cy="-28.49" rx="1.47" ry="1.04" fill="#796349" opacity="0.27"/><ellipse cx="-56.99" cy="5.72" rx="1.55" ry="0.51" fill="#796349" opacity="0.27"/><ellipse cx="8.79" cy="-4.72" rx="0.91" ry="0.81" fill="#796349" opacity="0.27"/><ellipse cx="11.4" cy="-41.96" rx="1.55" ry="0.76" fill="#796349" opacity="0.27"/><ellipse cx="27.72" cy="-8.95" rx="0.92" ry="0.52" fill="#796349" opacity="0.27"/><ellipse cx="41.61" cy="16.89" rx="1.36" ry="0.46" fill="#796349" opacity="0.27"/><ellipse cx="-9.76" cy="32.89" rx="0.84" ry="0.5" fill="#796349" opacity="0.27"/><ellipse cx="1.86" cy="30.57" rx="1.34" ry="0.81" fill="#796349" opacity="0.27"/><ellipse cx="8.37" cy="25.79" rx="1.05" ry="0.45" fill="#796349" opacity="0.27"/><ellipse cx="52.39" cy="4.56" rx="1.37" ry="0.92" fill="#796349" opacity="0.27"/><ellipse cx="22.03" cy="-11.88" rx="0.91" ry="0.7" fill="#796349" opacity="0.27"/><ellipse cx="-49.15" cy="6.75" rx="1.33" ry="0.55" fill="#796349" opacity="0.27"/><ellipse cx="-55.59" cy="5.77" rx="1.42" ry="0.94" fill="#796349" opacity="0.27"/><ellipse cx="11.77" cy="-37.34" rx="1" ry="0.61" fill="#796349" opacity="0.27"/><ellipse cx="20.82" cy="33.83" rx="1.11" ry="0.9" fill="#796349" opacity="0.27"/><ellipse cx="-57.48" cy="-14.21" rx="0.76" ry="0.74" fill="#796349" opacity="0.27"/><ellipse cx="-8.01" cy="25.18" rx="0.62" ry="0.53" fill="#796349" opacity="0.27"/><ellipse cx="-47.9" cy="5.39" rx="1.15" ry="0.85" fill="#796349" opacity="0.27"/><ellipse cx="16.35" cy="14.66" rx="1.18" ry="0.94" fill="#796349" opacity="0.27"/><ellipse cx="-25" cy="43.38" rx="0.8" ry="0.87" fill="#796349" opacity="0.27"/><ellipse cx="24.21" cy="-11.75" rx="1.37" ry="0.93" fill="#796349" opacity="0.27"/><ellipse cx="-17.58" cy="-24.49" rx="1.06" ry="1.07" fill="#796349" opacity="0.27"/><ellipse cx="-6.23" cy="16.32" rx="0.65" ry="0.8" fill="#796349" opacity="0.27"/><ellipse cx="13.64" cy="39.53" rx="0.91" ry="1.03" fill="#796349" opacity="0.27"/><ellipse cx="-8.12" cy="6.39" rx="0.84" ry="0.73" fill="#796349" opacity="0.27"/><ellipse cx="39.4" cy="-35.41" rx="1.46" ry="1.07" fill="#796349" opacity="0.27"/><ellipse cx="-22.2" cy="10.08" rx="1.03" ry="0.82" fill="#796349" opacity="0.27"/><ellipse cx="-11.6" cy="45.08" rx="1.39" ry="0.43" fill="#796349" opacity="0.27"/><ellipse cx="29.96" cy="38.35" rx="0.91" ry="1.05" fill="#796349" opacity="0.27"/><ellipse cx="33.84" cy="-13.73" rx="0.7" ry="0.87" fill="#796349" opacity="0.27"/><ellipse cx="64.18" cy="4.98" rx="0.7" ry="0.84" fill="#796349" opacity="0.27"/><ellipse cx="40.14" cy="-13.63" rx="1.11" ry="0.88" fill="#796349" opacity="0.27"/><ellipse cx="-44.87" cy="9.21" rx="1.44" ry="0.64" fill="#796349" opacity="0.27"/><ellipse cx="-20.31" cy="-8.36" rx="0.73" ry="0.97" fill="#796349" opacity="0.27"/><ellipse cx="-41.56" cy="-40.13" rx="1.26" ry="0.67" fill="#796349" opacity="0.27"/><ellipse cx="1.59" cy="23.97" rx="1.11" ry="0.76" fill="#796349" opacity="0.27"/><ellipse cx="-45.47" cy="22.52" rx="1.24" ry="1.04" fill="#796349" opacity="0.27"/><ellipse cx="-37.84" cy="4.52" rx="1.14" ry="1.03" fill="#796349" opacity="0.27"/><ellipse cx="-3.51" cy="-32.53" rx="0.78" ry="1.02" fill="#796349" opacity="0.27"/><ellipse cx="14.42" cy="-28.54" rx="1.41" ry="0.68" fill="#796349" opacity="0.27"/><path d="M-2.913077091148338 13.548231313489715 q3 3 6 0" fill="none" stroke="#8d7351" stroke-width="1.3"/><path d="M-57.819204264082764 25.02747579893048 q3 3 6 0" fill="none" stroke="#8d7351" stroke-width="1.3"/><path d="M-24.427544744521974 27.274861441339553 q3 3 6 0" fill="none" stroke="#8d7351" stroke-width="1.3"/><path d="M11.002389456978669 -16.22118780385192 q3 3 6 0" fill="none" stroke="#8d7351" stroke-width="1.3"/><path d="M-30.520235093075854 27.890634823689084 q3 3 6 0" fill="none" stroke="#8d7351" stroke-width="1.3"/><path d="M48.74975573218246 11.962320246963948 q3 3 6 0" fill="none" stroke="#8d7351" stroke-width="1.3"/><path d="M-55.37403391893213 -29.422681517934144 q3 3 6 0" fill="none" stroke="#8d7351" stroke-width="1.3"/><path d="M-8.32458940790358 -11.911662993365866 q3 3 6 0" fill="none" stroke="#8d7351" stroke-width="1.3"/><path d="M30.487396389227875 -2.9829020191141637 q3 3 6 0" fill="none" stroke="#8d7351" stroke-width="1.3"/></g></g><rect width="480" height="480" fill="#968265" filter="url(#paper)" opacity=".023" pointer-events="none"/>
</svg>